<ttFont>
    <TTGlyph name=".notdef" xMin="68" yMin="0" xMax="612" yMax="1365">
      <contour>
        <pt x="68" y="0" on="1"/>
        <pt x="68" y="1365" on="1"/>
        <pt x="612" y="1365" on="1"/>
        <pt x="612" y="0" on="1"/>
      </contour>
      <contour>
        <pt x="136" y="68" on="1"/>
        <pt x="544" y="68" on="1"/>
        <pt x="544" y="1297" on="1"/>
        <pt x="136" y="1297" on="1"/>
      </contour>
    </TTGlyph>
    <TTGlyph name="A" xMin="-3" yMin="0" xMax="1472" yMax="1404">
      <contour>
        <pt x="1472" y="89" on="1"/>
        <pt x="1472" y="43" on="0"/>
        <pt x="1358" y="0" on="0"/>
        <pt x="1290" y="0" on="1"/>
        <pt x="1278" y="0" on="1"/>
        <pt x="1241" y="0" on="0"/>
        <pt x="1194" y="1" on="0"/>
        <pt x="1124" y="7" on="0"/>
        <pt x="1079" y="20" on="0"/>
        <pt x="1035" y="41" on="0"/>
        <pt x="1013" y="77" on="0"/>
        <pt x="1013" y="101" on="1"/>
        <pt x="1013" y="113" on="0"/>
        <pt x="1046" y="125" on="0"/>
        <pt x="1087" y="127" on="0"/>
        <pt x="1120" y="144" on="0"/>
        <pt x="1120" y="160" on="1"/>
        <pt x="1120" y="171" on="0"/>
        <pt x="1101" y="208" on="1"/>
        <pt x="1102" y="208" on="1"/>
        <pt x="992" y="470" on="1"/>
        <pt x="403" y="470" on="1"/>
        <pt x="296" y="188" on="0"/>
        <pt x="296" y="164" on="1"/>
        <pt x="296" y="138" on="0"/>
        <pt x="309" y="134" on="1"/>
        <pt x="308" y="135" on="1"/>
        <pt x="315" y="131" on="0"/>
        <pt x="368" y="118" on="0"/>
        <pt x="409" y="101" on="0"/>
        <pt x="409" y="89" on="1"/>
        <pt x="409" y="0" on="0"/>
        <pt x="184" y="0" on="1"/>
        <pt x="-3" y="0" on="0"/>
        <pt x="-3" y="89" on="1"/>
        <pt x="-3" y="96" on="0"/>
        <pt x="6" y="107" on="0"/>
        <pt x="22" y="114" on="0"/>
        <pt x="37" y="118" on="0"/>
        <pt x="56" y="123" on="0"/>
        <pt x="60" y="124" on="1"/>
        <pt x="132" y="146" on="0"/>
        <pt x="160" y="221" on="1"/>
        <pt x="565" y="1280" on="1"/>
        <pt x="555" y="1307" on="0"/>
        <pt x="555" y="1327" on="1"/>
        <pt x="555" y="1404" on="0"/>
        <pt x="712" y="1404" on="1"/>
        <pt x="779" y="1404" on="0"/>
        <pt x="856" y="1357" on="0"/>
        <pt x="875" y="1308" on="1"/>
        <pt x="1297" y="228" on="1"/>
        <pt x="1333" y="142" on="0"/>
        <pt x="1407" y="130" on="1"/>
        <pt x="1454" y="123" on="0"/>
        <pt x="1463" y="114" on="1"/>
        <pt x="1472" y="106" on="0"/>
      </contour>
      <contour>
        <pt x="442" y="566" on="1"/>
        <pt x="952" y="566" on="1"/>
        <pt x="692" y="1280" on="1"/>
      </contour>
    </TTGlyph>
    <TTGlyph name="AE" xMin="-16" yMin="-4" xMax="2258" yMax="1404">
      <contour>
        <pt x="2180" y="356" on="1"/>
        <pt x="2258" y="356" on="0"/>
        <pt x="2258" y="261" on="1"/>
        <pt x="2258" y="168" on="0"/>
        <pt x="2176" y="81" on="1"/>
        <pt x="2095" y="-4" on="0"/>
        <pt x="1988" y="-4" on="1"/>
        <pt x="1227" y="0" on="1"/>
        <pt x="1084" y="0" on="0"/>
        <pt x="1045" y="10" on="1"/>
        <pt x="969" y="29" on="0"/>
        <pt x="969" y="90" on="1"/>
        <pt x="969" y="120" on="0"/>
        <pt x="1008" y="128" on="1"/>
        <pt x="1039" y="134" on="0"/>
        <pt x="1044" y="134" on="1"/>
        <pt x="1119" y="142" on="0"/>
        <pt x="1119" y="215" on="1"/>
        <pt x="1119" y="470" on="1"/>
        <pt x="535" y="470" on="1"/>
        <pt x="323" y="187" on="0"/>
        <pt x="315" y="164" on="1"/>
        <pt x="306" y="138" on="0"/>
        <pt x="317" y="134" on="1"/>
        <pt x="317" y="135" on="1"/>
        <pt x="336" y="121" on="0"/>
        <pt x="361" y="116" on="1"/>
        <pt x="390" y="110" on="0"/>
        <pt x="398" y="105" on="1"/>
        <pt x="405" y="101" on="0"/>
        <pt x="401" y="89" on="1"/>
        <pt x="368" y="0" on="0"/>
        <pt x="143" y="0" on="1"/>
        <pt x="-16" y="0" on="0"/>
        <pt x="-16" y="65" on="1"/>
        <pt x="-16" y="76" on="0"/>
        <pt x="-10" y="91" on="1"/>
        <pt x="-4" y="107" on="0"/>
        <pt x="38" y="117" on="1"/>
        <pt x="71" y="125" on="0"/>
        <pt x="118" y="147" on="1"/>
        <pt x="156" y="164" on="0"/>
        <pt x="200" y="221" on="1"/>
        <pt x="994" y="1280" on="1"/>
        <pt x="994" y="1306" on="0"/>
        <pt x="1001" y="1327" on="1"/>
        <pt x="1030" y="1404" on="0"/>
        <pt x="1186" y="1404" on="1"/>
        <pt x="2060" y="1404" on="1"/>
        <pt x="2139" y="1404" on="0"/>
        <pt x="2184" y="1342" on="1"/>
        <pt x="2229" y="1280" on="0"/>
        <pt x="2229" y="1198" on="1"/>
        <pt x="2229" y="1050" on="0"/>
        <pt x="2126" y="1050" on="1"/>
        <pt x="2058" y="1050" on="0"/>
        <pt x="2036" y="1093" on="1"/>
        <pt x="2013" y="1137" on="0"/>
        <pt x="2013" y="1211" on="1"/>
        <pt x="2013" y="1262" on="1"/>
        <pt x="2014" y="1286" on="1"/>
        <pt x="1338" y="1286" on="1"/>
        <pt x="1338" y="787" on="1"/>
        <pt x="1767" y="787" on="1"/>
        <pt x="1774" y="794" on="0"/>
        <pt x="1799" y="841" on="1"/>
        <pt x="1823" y="886" on="0"/>
        <pt x="1835" y="904" on="1"/>
        <pt x="1846" y="921" on="0"/>
        <pt x="1858" y="921" on="1"/>
        <pt x="1971" y="921" on="0"/>
        <pt x="1971" y="729" on="1"/>
        <pt x="1971" y="602" on="0"/>
        <pt x="1919" y="550" on="1"/>
        <pt x="1897" y="528" on="0"/>
        <pt x="1873" y="528" on="1"/>
        <pt x="1851" y="528" on="0"/>
        <pt x="1835" y="544" on="1"/>
        <pt x="1821" y="558" on="0"/>
        <pt x="1787" y="635" on="1"/>
        <pt x="1786" y="636" on="1"/>
        <pt x="1786" y="637" on="0"/>
        <pt x="1766" y="672" on="1"/>
        <pt x="1338" y="672" on="1"/>
        <pt x="1338" y="131" on="1"/>
        <pt x="1977" y="131" on="1"/>
        <pt x="1992" y="146" on="0"/>
        <pt x="2078" y="284" on="0"/>
        <pt x="2110" y="319" on="1"/>
        <pt x="2144" y="356" on="0"/>
      </contour>
      <contour>
        <pt x="1121" y="1244" on="1"/>
        <pt x="1121" y="1280" on="1"/>
        <pt x="609" y="566" on="1"/>
        <pt x="1119" y="566" on="1"/>
        <pt x="1119" y="1190" on="1"/>
        <pt x="1119" y="1210" on="0"/>
      </contour>
    </TTGlyph>
    <TTGlyph name="Aacute" xMin="-3" yMin="0" xMax="1472" yMax="2136">
      <component glyphName="acute" x="618" y="432" flags="0x1004"/>
      <component glyphName="A" x="0" y="0" flags="0x1204"/>
    </TTGlyph>
    <TTGlyph name="Abreve" xMin="-3" yMin="0" xMax="1472" yMax="1895">
      <component glyphName="breve" x="224" y="1478" flags="0x1004"/>
      <component glyphName="A" x="0" y="0" flags="0x1204"/>
    </TTGlyph>
    <TTGlyph name="Acircumflex" xMin="-3" yMin="0" xMax="1472" yMax="1984">
      <component glyphName="circumflex" x="248" y="275" flags="0x1004"/>
      <component glyphName="A" x="0" y="0" flags="0x1204"/>
    </TTGlyph>
    <TTGlyph name="Adieresis" xMin="-3" yMin="0" xMax="1472" yMax="1759">
      <component glyphName="dieresis" x="132" y="172" flags="0x1004"/>
      <component glyphName="A" x="0" y="0" flags="0x1204"/>
    </TTGlyph>
    <TTGlyph name="Agrave" xMin="-3" yMin="0" xMax="1472" yMax="2136">
      <component glyphName="grave" x="316" y="432" flags="0x1004"/>
      <component glyphName="A" x="0" y="0" flags="0x1204"/>
    </TTGlyph>
    <TTGlyph name="Amacron" xMin="-3" yMin="0" xMax="1472" yMax="1664">
      <component glyphName="macron" x="305" y="1291" flags="0x1004"/>
      <component glyphName="A" x="0" y="0" flags="0x1204"/>
    </TTGlyph>
    <TTGlyph name="Aogonek" xMin="3" yMin="-455" xMax="1478" yMax="1404">
      <component glyphName="ogonek" x="454" y="-9" flags="0x1004"/>
      <component glyphName="A" x="6" y="0" flags="0x1004"/>
    </TTGlyph>
    <TTGlyph name="Aring" xMin="-3" yMin="0" xMax="1472" yMax="1793">
      <component glyphName="ring" x="383" y="340" flags="0x1004"/>
      <component glyphName="A" x="0" y="0" flags="0x1204"/>
    </TTGlyph>
    <TTGlyph name="Atilde" xMin="-3" yMin="0" xMax="1472" yMax="1758">
      <component glyphName="tilde" x="224" y="392" flags="0x1004"/>
      <component glyphName="A" x="0" y="0" flags="0x1204"/>
    </TTGlyph>
    <TTGlyph name="B" xMin="94" yMin="-1" xMax="1445" yMax="1405">
      <contour>
        <pt x="1224" y="389" on="1"/>
        <pt x="1224" y="451" on="0"/>
        <pt x="1185" y="546" on="0"/>
        <pt x="1108" y="608" on="0"/>
        <pt x="1016" y="649" on="0"/>
        <pt x="886" y="669" on="0"/>
        <pt x="766" y="677" on="0"/>
        <pt x="689" y="677" on="1"/>
        <pt x="463" y="677" on="1"/>
        <pt x="463" y="290" on="1"/>
        <pt x="463" y="191" on="0"/>
        <pt x="530" y="113" on="0"/>
        <pt x="621" y="113" on="1"/>
        <pt x="787" y="113" on="1"/>
        <pt x="869" y="113" on="0"/>
        <pt x="995" y="128" on="0"/>
        <pt x="1108" y="165" on="0"/>
        <pt x="1182" y="227" on="0"/>
        <pt x="1224" y="324" on="0"/>
      </contour>
      <contour>
        <pt x="94" y="1321" on="1"/>
        <pt x="94" y="1351" on="0"/>
        <pt x="125" y="1388" on="0"/>
        <pt x="203" y="1402" on="0"/>
        <pt x="255" y="1404" on="0"/>
        <pt x="317" y="1404" on="1"/>
        <pt x="340" y="1404" on="0"/>
        <pt x="352" y="1404" on="1"/>
        <pt x="739" y="1404" on="1"/>
        <pt x="872" y="1404" on="0"/>
        <pt x="1083" y="1368" on="0"/>
        <pt x="1251" y="1289" on="0"/>
        <pt x="1343" y="1151" on="0"/>
        <pt x="1343" y="1056" on="1"/>
        <pt x="1343" y="994" on="0"/>
        <pt x="1301" y="895" on="0"/>
        <pt x="1221" y="824" on="0"/>
        <pt x="1140" y="777" on="0"/>
        <pt x="1084" y="753" on="1"/>
        <pt x="1445" y="639" on="0"/>
        <pt x="1445" y="379" on="1"/>
        <pt x="1445" y="272" on="0"/>
        <pt x="1340" y="119" on="0"/>
        <pt x="1153" y="36" on="0"/>
        <pt x="933" y="-1" on="0"/>
        <pt x="798" y="-1" on="1"/>
        <pt x="352" y="0" on="1"/>
        <pt x="214" y="0" on="0"/>
        <pt x="176" y="7" on="1"/>
        <pt x="97" y="28" on="0"/>
        <pt x="94" y="90" on="1"/>
        <pt x="94" y="111" on="0"/>
        <pt x="131" y="130" on="0"/>
        <pt x="194" y="139" on="0"/>
        <pt x="205" y="144" on="1"/>
        <pt x="244" y="160" on="0"/>
        <pt x="244" y="215" on="1"/>
        <pt x="244" y="1190" on="1"/>
        <pt x="244" y="1262" on="0"/>
        <pt x="169" y="1272" on="1"/>
        <pt x="163" y="1273" on="0"/>
        <pt x="140" y="1276" on="0"/>
        <pt x="131" y="1277" on="0"/>
        <pt x="115" y="1280" on="0"/>
        <pt x="109" y="1284" on="0"/>
        <pt x="100" y="1291" on="0"/>
        <pt x="97" y="1300" on="0"/>
        <pt x="94" y="1313" on="0"/>
      </contour>
      <contour>
        <pt x="796" y="793" on="1"/>
        <pt x="867" y="793" on="0"/>
        <pt x="987" y="817" on="0"/>
        <pt x="1085" y="869" on="0"/>
        <pt x="1141" y="960" on="0"/>
        <pt x="1141" y="1022" on="1"/>
        <pt x="1141" y="1081" on="0"/>
        <pt x="1101" y="1170" on="0"/>
        <pt x="1023" y="1226" on="0"/>
        <pt x="934" y="1262" on="0"/>
        <pt x="808" y="1279" on="0"/>
        <pt x="704" y="1285" on="0"/>
        <pt x="634" y="1285" on="1"/>
        <pt x="544" y="1285" on="0"/>
        <pt x="463" y="1224" on="0"/>
        <pt x="463" y="1141" on="1"/>
        <pt x="463" y="793" on="1"/>
      </contour>
    </TTGlyph>
    <TTGlyph name="C" xMin="36" yMin="-28" xMax="1513" yMax="1413">
      <contour>
        <pt x="266" y="735" on="1"/>
        <pt x="266" y="601" on="0"/>
        <pt x="364" y="374" on="0"/>
        <pt x="536" y="218" on="0"/>
        <pt x="774" y="131" on="0"/>
        <pt x="911" y="131" on="1"/>
        <pt x="1202" y="131" on="0"/>
        <pt x="1419" y="348" on="1"/>
        <pt x="1443" y="372" on="0"/>
        <pt x="1454" y="372" on="1"/>
        <pt x="1480" y="372" on="0"/>
        <pt x="1513" y="344" on="0"/>
        <pt x="1513" y="319" on="1"/>
        <pt x="1513" y="304" on="0"/>
        <pt x="1502" y="279" on="1"/>
        <pt x="1503" y="279" on="1"/>
        <pt x="1428" y="147" on="0"/>
        <pt x="1077" y="-28" on="0"/>
        <pt x="876" y="-28" on="1"/>
        <pt x="709" y="-28" on="0"/>
        <pt x="407" y="66" on="0"/>
        <pt x="174" y="240" on="0"/>
        <pt x="36" y="511" on="0"/>
        <pt x="36" y="676" on="1"/>
        <pt x="36" y="850" on="0"/>
        <pt x="166" y="1131" on="0"/>
        <pt x="393" y="1315" on="0"/>
        <pt x="699" y="1413" on="0"/>
        <pt x="877" y="1413" on="1"/>
        <pt x="968" y="1413" on="0"/>
        <pt x="1153" y="1384" on="0"/>
        <pt x="1330" y="1322" on="0"/>
        <pt x="1441" y="1207" on="0"/>
        <pt x="1441" y="1131" on="1"/>
        <pt x="1441" y="1059" on="0"/>
        <pt x="1349" y="987" on="0"/>
        <pt x="1274" y="987" on="1"/>
        <pt x="1225" y="987" on="0"/>
        <pt x="1196" y="997" on="1"/>
        <pt x="1185" y="1153" on="0"/>
        <pt x="1027" y="1305" on="0"/>
        <pt x="868" y="1305" on="1"/>
        <pt x="597" y="1305" on="0"/>
        <pt x="266" y="990" on="0"/>
      </contour>
    </TTGlyph>
    <TTGlyph name="Cacute" xMin="36" yMin="-28" xMax="1513" yMax="2136">
      <component glyphName="acute" x="658" y="432" flags="0x1004"/>
      <component glyphName="C" x="0" y="0" flags="0x1204"/>
    </TTGlyph>
    <TTGlyph name="Ccaron" xMin="36" yMin="-28" xMax="1513" yMax="1984">
      <component glyphName="caron" x="391" y="276" flags="0x1004"/>
      <component glyphName="C" x="0" y="0" flags="0x1204"/>
    </TTGlyph>
    <TTGlyph name="Ccedilla" xMin="36" yMin="-494" xMax="1513" yMax="1413">
      <component glyphName="cedilla" x="462" y="-29" flags="0x1004"/>
      <component glyphName="C" x="0" y="0" flags="0x1204"/>
    </TTGlyph>
    <TTGlyph name="Ccircumflex" xMin="36" yMin="-28" xMax="1513" yMax="1984">
      <component glyphName="circumflex" x="321" y="275" flags="0x1004"/>
      <component glyphName="C" x="0" y="0" flags="0x1204"/>
    </TTGlyph>
    <TTGlyph name="Cdotaccent" xMin="36" yMin="-28" xMax="1513" yMax="1771">
      <component glyphName="dotaccent" x="535" y="1307" flags="0x1004"/>
      <component glyphName="C" x="0" y="0" flags="0x1204"/>
    </TTGlyph>
    <TTGlyph name="D" xMin="94" yMin="-1" xMax="1681" yMax="1405">
      <contour>
        <pt x="1458" y="696" on="1"/>
        <pt x="1458" y="830" on="0"/>
        <pt x="1375" y="1034" on="0"/>
        <pt x="1230" y="1165" on="0"/>
        <pt x="1012" y="1248" on="0"/>
        <pt x="762" y="1282" on="0"/>
        <pt x="605" y="1282" on="1"/>
        <pt x="462" y="1282" on="0"/>
        <pt x="462" y="1259" on="1"/>
        <pt x="462" y="142" on="1"/>
        <pt x="620" y="125" on="0"/>
        <pt x="792" y="125" on="1"/>
        <pt x="991" y="125" on="0"/>
        <pt x="1289" y="254" on="0"/>
        <pt x="1458" y="514" on="0"/>
      </contour>
      <contour>
        <pt x="1681" y="749" on="1"/>
        <pt x="1681" y="606" on="0"/>
        <pt x="1594" y="363" on="0"/>
        <pt x="1439" y="186" on="0"/>
        <pt x="1225" y="61" on="0"/>
        <pt x="969" y="-1" on="0"/>
        <pt x="827" y="-1" on="1"/>
        <pt x="724" y="1" on="0"/>
        <pt x="351" y="1" on="1"/>
        <pt x="212" y="1" on="0"/>
        <pt x="174" y="9" on="1"/>
        <pt x="97" y="29" on="0"/>
        <pt x="94" y="91" on="1"/>
        <pt x="94" y="112" on="0"/>
        <pt x="131" y="131" on="0"/>
        <pt x="194" y="139" on="0"/>
        <pt x="205" y="144" on="1"/>
        <pt x="244" y="160" on="0"/>
        <pt x="244" y="216" on="1"/>
        <pt x="244" y="1190" on="1"/>
        <pt x="244" y="1266" on="0"/>
        <pt x="169" y="1272" on="1"/>
        <pt x="146" y="1274" on="0"/>
        <pt x="126" y="1277" on="0"/>
        <pt x="102" y="1287" on="0"/>
        <pt x="94" y="1305" on="0"/>
        <pt x="94" y="1321" on="1"/>
        <pt x="94" y="1351" on="0"/>
        <pt x="124" y="1388" on="0"/>
        <pt x="202" y="1402" on="0"/>
        <pt x="254" y="1404" on="0"/>
        <pt x="316" y="1404" on="1"/>
        <pt x="339" y="1404" on="0"/>
        <pt x="351" y="1404" on="1"/>
        <pt x="660" y="1404" on="1"/>
        <pt x="821" y="1404" on="0"/>
        <pt x="1112" y="1360" on="0"/>
        <pt x="1376" y="1259" on="0"/>
        <pt x="1568" y="1110" on="0"/>
        <pt x="1681" y="887" on="0"/>
      </contour>
    </TTGlyph>
    <TTGlyph name="DZ" xMin="95" yMin="-1" xMax="3172" yMax="1405">
      <component glyphName="Z" x="1755" y="0" flags="0x1004"/>
      <component glyphName="D" x="1" y="0" flags="0x1004"/>
    </TTGlyph>
    <TTGlyph name="Dcaron" xMin="94" yMin="-1" xMax="1681" yMax="1984">
      <component glyphName="caron" x="482" y="276" flags="0x1004"/>
      <component glyphName="D" x="0" y="0" flags="0x1204"/>
    </TTGlyph>
    <TTGlyph name="Dz" xMin="95" yMin="-9" xMax="2740" yMax="1404">
      <component glyphName="z" x="1755" y="0" flags="0x1004"/>
      <component glyphName="D" x="1" y="0" flags="0x1004"/>
    </TTGlyph>
    <TTGlyph name="E" xMin="94" yMin="-4" xMax="1383" yMax="1405">
      <contour>
        <pt x="1102" y="131" on="1"/>
        <pt x="1120" y="149" on="0"/>
        <pt x="1190" y="271" on="0"/>
        <pt x="1264" y="356" on="0"/>
        <pt x="1305" y="356" on="1"/>
        <pt x="1344" y="356" on="0"/>
        <pt x="1383" y="307" on="0"/>
        <pt x="1383" y="264" on="1"/>
        <pt x="1383" y="156" on="0"/>
        <pt x="1215" y="-4" on="0"/>
        <pt x="1113" y="-4" on="1"/>
        <pt x="352" y="0" on="1"/>
        <pt x="214" y="0" on="0"/>
        <pt x="176" y="7" on="1"/>
        <pt x="97" y="28" on="0"/>
        <pt x="94" y="90" on="1"/>
        <pt x="94" y="111" on="0"/>
        <pt x="131" y="130" on="0"/>
        <pt x="194" y="139" on="0"/>
        <pt x="205" y="144" on="1"/>
        <pt x="244" y="160" on="0"/>
        <pt x="244" y="215" on="1"/>
        <pt x="244" y="1190" on="1"/>
        <pt x="244" y="1262" on="0"/>
        <pt x="169" y="1272" on="1"/>
        <pt x="163" y="1273" on="0"/>
        <pt x="140" y="1276" on="0"/>
        <pt x="131" y="1277" on="0"/>
        <pt x="115" y="1280" on="0"/>
        <pt x="109" y="1284" on="0"/>
        <pt x="100" y="1291" on="0"/>
        <pt x="97" y="1300" on="0"/>
        <pt x="94" y="1313" on="0"/>
        <pt x="94" y="1321" on="1"/>
        <pt x="94" y="1351" on="0"/>
        <pt x="125" y="1388" on="0"/>
        <pt x="203" y="1402" on="0"/>
        <pt x="255" y="1404" on="0"/>
        <pt x="317" y="1404" on="1"/>
        <pt x="340" y="1404" on="0"/>
        <pt x="352" y="1404" on="1"/>
        <pt x="1185" y="1404" on="1"/>
        <pt x="1261" y="1404" on="0"/>
        <pt x="1354" y="1284" on="0"/>
        <pt x="1354" y="1198" on="1"/>
        <pt x="1354" y="1050" on="0"/>
        <pt x="1251" y="1050" on="1"/>
        <pt x="1187" y="1050" on="0"/>
        <pt x="1138" y="1131" on="0"/>
        <pt x="1138" y="1211" on="1"/>
        <pt x="1138" y="1262" on="0"/>
        <pt x="1139" y="1286" on="1"/>
        <pt x="463" y="1286" on="1"/>
        <pt x="463" y="787" on="1"/>
        <pt x="892" y="787" on="1"/>
        <pt x="899" y="794" on="0"/>
        <pt x="933" y="863" on="0"/>
        <pt x="970" y="921" on="0"/>
        <pt x="983" y="921" on="1"/>
        <pt x="1096" y="921" on="0"/>
        <pt x="1096" y="729" on="1"/>
        <pt x="1096" y="647" on="0"/>
        <pt x="1049" y="528" on="0"/>
        <pt x="998" y="528" on="1"/>
        <pt x="971" y="528" on="0"/>
        <pt x="936" y="568" on="0"/>
        <pt x="899" y="658" on="0"/>
        <pt x="891" y="672" on="1"/>
        <pt x="463" y="672" on="1"/>
        <pt x="463" y="131" on="1"/>
      </contour>
    </TTGlyph>
    <TTGlyph name="Eacute" xMin="94" yMin="-4" xMax="1383" yMax="2136">
      <component glyphName="acute" x="622" y="432" flags="0x1004"/>
      <component glyphName="E" x="0" y="0" flags="0x1204"/>
    </TTGlyph>
    <TTGlyph name="Ebreve" xMin="94" yMin="-4" xMax="1383" yMax="1895">
      <component glyphName="breve" x="228" y="1478" flags="0x1004"/>
      <component glyphName="E" x="0" y="0" flags="0x1204"/>
    </TTGlyph>
    <TTGlyph name="Ecaron" xMin="94" yMin="-4" xMax="1383" yMax="1984">
      <component glyphName="caron" x="355" y="276" flags="0x1004"/>
      <component glyphName="E" x="0" y="0" flags="0x1204"/>
    </TTGlyph>
    <TTGlyph name="Ecircumflex" xMin="94" yMin="-4" xMax="1383" yMax="1984">
      <component glyphName="circumflex" x="285" y="275" flags="0x1004"/>
      <component glyphName="E" x="0" y="0" flags="0x1204"/>
    </TTGlyph>
    <TTGlyph name="Edieresis" xMin="94" yMin="-4" xMax="1383" yMax="1759">
      <component glyphName="dieresis" x="227" y="172" flags="0x1004"/>
      <component glyphName="E" x="0" y="0" flags="0x1204"/>
    </TTGlyph>
    <TTGlyph name="Edotaccent" xMin="94" yMin="-4" xMax="1383" yMax="1771">
      <component glyphName="dotaccent" x="499" y="1307" flags="0x1004"/>
      <component glyphName="E" x="0" y="0" flags="0x1204"/>
    </TTGlyph>
    <TTGlyph name="Egrave" xMin="94" yMin="-4" xMax="1383" yMax="2136">
      <component glyphName="grave" x="320" y="432" flags="0x1004"/>
      <component glyphName="E" x="0" y="0" flags="0x1204"/>
    </TTGlyph>
    <TTGlyph name="Emacron" xMin="94" yMin="-4" xMax="1383" yMax="1664">
      <component glyphName="macron" x="310" y="1291" flags="0x1004"/>
      <component glyphName="E" x="0" y="0" flags="0x1204"/>
    </TTGlyph>
    <TTGlyph name="Eogonek" xMin="93" yMin="-459" xMax="1382" yMax="1404">
      <component glyphName="ogonek" x="450" y="-13" flags="0x1004"/>
      <component glyphName="E" x="-1" y="0" flags="0x1004"/>
    </TTGlyph>
    <TTGlyph name="Eth" xMin="95" yMin="-1" xMax="1682" yMax="1404">
      <component glyphName="macron" x="0" y="414" flags="0x1004"/>
      <component glyphName="D" x="1" y="0" flags="0x1004"/>
    </TTGlyph>
    <TTGlyph name="Euro" xMin="4" yMin="-28" xMax="1649" yMax="1413">
      <contour>
        <pt x="68" y="773" on="1"/>
        <pt x="42" y="773" on="0"/>
        <pt x="4" y="812" on="0"/>
        <pt x="4" y="862" on="0"/>
        <pt x="42" y="901" on="0"/>
        <pt x="68" y="901" on="1"/>
        <pt x="868" y="901" on="1"/>
        <pt x="894" y="901" on="0"/>
        <pt x="932" y="862" on="0"/>
        <pt x="932" y="812" on="0"/>
        <pt x="894" y="773" on="0"/>
        <pt x="868" y="773" on="1"/>
      </contour>
      <contour>
        <pt x="68" y="503" on="1"/>
        <pt x="42" y="503" on="0"/>
        <pt x="4" y="542" on="0"/>
        <pt x="4" y="592" on="0"/>
        <pt x="42" y="631" on="0"/>
        <pt x="68" y="631" on="1"/>
        <pt x="868" y="631" on="1"/>
        <pt x="894" y="631" on="0"/>
        <pt x="932" y="592" on="0"/>
        <pt x="932" y="542" on="0"/>
        <pt x="894" y="503" on="0"/>
        <pt x="868" y="503" on="1"/>
      </contour>
      <contour>
        <pt x="1590" y="372" on="1"/>
        <pt x="1616" y="372" on="0"/>
        <pt x="1649" y="344" on="0"/>
        <pt x="1649" y="319" on="1"/>
        <pt x="1649" y="304" on="0"/>
        <pt x="1638" y="279" on="1"/>
        <pt x="1639" y="279" on="1"/>
        <pt x="1558" y="135" on="0"/>
        <pt x="1373" y="51" on="1"/>
        <pt x="1202" y="-28" on="0"/>
        <pt x="1012" y="-28" on="1"/>
        <pt x="716" y="-28" on="0"/>
        <pt x="274" y="248" on="0"/>
        <pt x="201" y="484" on="1"/>
        <pt x="172" y="579" on="0"/>
        <pt x="172" y="676" on="1"/>
        <pt x="172" y="978" on="0"/>
        <pt x="383" y="1185" on="1"/>
        <pt x="492" y="1292" on="0"/>
        <pt x="817" y="1413" on="0"/>
        <pt x="1013" y="1413" on="1"/>
        <pt x="1189" y="1413" on="0"/>
        <pt x="1490" y="1312" on="0"/>
        <pt x="1550" y="1216" on="1"/>
        <pt x="1577" y="1173" on="0"/>
        <pt x="1577" y="1131" on="1"/>
        <pt x="1577" y="1059" on="0"/>
        <pt x="1485" y="987" on="0"/>
        <pt x="1410" y="987" on="1"/>
        <pt x="1361" y="987" on="0"/>
        <pt x="1332" y="997" on="1"/>
        <pt x="1321" y="1153" on="0"/>
        <pt x="1163" y="1305" on="0"/>
        <pt x="1004" y="1305" on="1"/>
        <pt x="714" y="1305" on="0"/>
        <pt x="550" y="1128" on="1"/>
        <pt x="402" y="970" on="0"/>
        <pt x="402" y="735" on="1"/>
        <pt x="402" y="477" on="0"/>
        <pt x="572" y="309" on="1"/>
        <pt x="750" y="131" on="0"/>
        <pt x="1047" y="131" on="1"/>
        <pt x="1293" y="131" on="0"/>
        <pt x="1454" y="262" on="1"/>
        <pt x="1532" y="325" on="0"/>
        <pt x="1555" y="348" on="1"/>
        <pt x="1579" y="372" on="0"/>
      </contour>
    </TTGlyph>
    <TTGlyph name="F" xMin="94" yMin="-2" xMax="1354" yMax="1405">
      <contour>
        <pt x="94" y="1321" on="1"/>
        <pt x="94" y="1351" on="0"/>
        <pt x="124" y="1388" on="0"/>
        <pt x="202" y="1402" on="0"/>
        <pt x="254" y="1404" on="0"/>
        <pt x="315" y="1404" on="1"/>
        <pt x="338" y="1404" on="0"/>
        <pt x="350" y="1404" on="1"/>
        <pt x="1185" y="1404" on="1"/>
        <pt x="1261" y="1404" on="0"/>
        <pt x="1354" y="1284" on="0"/>
        <pt x="1354" y="1198" on="1"/>
        <pt x="1354" y="1050" on="0"/>
        <pt x="1251" y="1050" on="1"/>
        <pt x="1187" y="1050" on="0"/>
        <pt x="1138" y="1131" on="0"/>
        <pt x="1138" y="1211" on="1"/>
        <pt x="1138" y="1262" on="0"/>
        <pt x="1139" y="1286" on="1"/>
        <pt x="464" y="1286" on="1"/>
        <pt x="464" y="787" on="1"/>
        <pt x="892" y="787" on="1"/>
        <pt x="899" y="794" on="0"/>
        <pt x="934" y="863" on="0"/>
        <pt x="970" y="921" on="0"/>
        <pt x="983" y="921" on="1"/>
        <pt x="1096" y="921" on="0"/>
        <pt x="1096" y="729" on="1"/>
        <pt x="1096" y="647" on="0"/>
        <pt x="1049" y="528" on="0"/>
        <pt x="998" y="528" on="1"/>
        <pt x="970" y="528" on="0"/>
        <pt x="935" y="570" on="0"/>
        <pt x="901" y="656" on="0"/>
        <pt x="891" y="672" on="1"/>
        <pt x="464" y="672" on="1"/>
        <pt x="464" y="215" on="1"/>
        <pt x="464" y="171" on="0"/>
        <pt x="511" y="134" on="0"/>
        <pt x="558" y="129" on="1"/>
        <pt x="577" y="127" on="0"/>
        <pt x="597" y="122" on="0"/>
        <pt x="614" y="103" on="0"/>
        <pt x="614" y="86" on="1"/>
        <pt x="614" y="70" on="0"/>
        <pt x="604" y="44" on="0"/>
        <pt x="581" y="26" on="0"/>
        <pt x="559" y="13" on="0"/>
        <pt x="519" y="5" on="0"/>
        <pt x="491" y="0" on="0"/>
        <pt x="441" y="-2" on="0"/>
        <pt x="414" y="-2" on="0"/>
        <pt x="388" y="-2" on="1"/>
        <pt x="242" y="-2" on="0"/>
        <pt x="209" y="2" on="1"/>
        <pt x="101" y="14" on="0"/>
        <pt x="95" y="80" on="1"/>
        <pt x="94" y="85" on="0"/>
        <pt x="94" y="90" on="1"/>
        <pt x="94" y="111" on="0"/>
        <pt x="131" y="130" on="0"/>
        <pt x="194" y="139" on="0"/>
        <pt x="205" y="144" on="1"/>
        <pt x="244" y="160" on="0"/>
        <pt x="244" y="215" on="1"/>
        <pt x="244" y="1190" on="1"/>
        <pt x="244" y="1262" on="0"/>
        <pt x="169" y="1272" on="1"/>
        <pt x="163" y="1273" on="0"/>
        <pt x="140" y="1276" on="0"/>
        <pt x="131" y="1277" on="0"/>
        <pt x="115" y="1280" on="0"/>
        <pt x="109" y="1284" on="0"/>
        <pt x="100" y="1291" on="0"/>
        <pt x="97" y="1300" on="0"/>
        <pt x="94" y="1313" on="0"/>
      </contour>
    </TTGlyph>
    <TTGlyph name="G" xMin="39" yMin="-27" xMax="1583" yMax="1413">
      <contour>
        <pt x="39" y="467" on="0"/>
        <pt x="39" y="899" on="0"/>
        <pt x="255" y="1235" on="0"/>
        <pt x="622" y="1413" on="0"/>
        <pt x="847" y="1413" on="1"/>
        <pt x="938" y="1413" on="0"/>
        <pt x="1123" y="1384" on="0"/>
        <pt x="1300" y="1322" on="0"/>
        <pt x="1411" y="1207" on="0"/>
        <pt x="1411" y="1131" on="1"/>
        <pt x="1411" y="1059" on="0"/>
        <pt x="1319" y="987" on="0"/>
        <pt x="1244" y="987" on="1"/>
        <pt x="1194" y="987" on="0"/>
        <pt x="1167" y="997" on="1"/>
        <pt x="1156" y="1152" on="0"/>
        <pt x="998" y="1305" on="0"/>
        <pt x="842" y="1305" on="1"/>
        <pt x="579" y="1305" on="0"/>
        <pt x="268" y="989" on="0"/>
        <pt x="268" y="735" on="1"/>
        <pt x="268" y="564" on="0"/>
        <pt x="416" y="283" on="0"/>
        <pt x="683" y="119" on="0"/>
        <pt x="850" y="119" on="1"/>
        <pt x="903" y="119" on="0"/>
        <pt x="1023" y="137" on="0"/>
        <pt x="1139" y="171" on="0"/>
        <pt x="1217" y="231" on="0"/>
        <pt x="1218" y="268" on="1"/>
        <pt x="1219" y="295" on="0"/>
        <pt x="1219" y="334" on="1"/>
        <pt x="1219" y="453" on="1"/>
        <pt x="1219" y="469" on="0"/>
        <pt x="1207" y="541" on="0"/>
        <pt x="1206" y="550" on="1"/>
        <pt x="1204" y="573" on="0"/>
        <pt x="1153" y="603" on="0"/>
        <pt x="1094" y="615" on="0"/>
        <pt x="1046" y="636" on="0"/>
        <pt x="1046" y="651" on="1"/>
        <pt x="1046" y="673" on="0"/>
        <pt x="1067" y="706" on="0"/>
        <pt x="1112" y="726" on="0"/>
        <pt x="1156" y="739" on="0"/>
        <pt x="1230" y="744" on="0"/>
        <pt x="1280" y="745" on="0"/>
        <pt x="1321" y="745" on="1"/>
        <pt x="1450" y="745" on="0"/>
        <pt x="1489" y="738" on="1"/>
        <pt x="1583" y="720" on="0"/>
        <pt x="1583" y="651" on="1"/>
        <pt x="1583" y="644" on="0"/>
        <pt x="1574" y="632" on="0"/>
        <pt x="1555" y="624" on="0"/>
        <pt x="1540" y="619" on="0"/>
        <pt x="1515" y="613" on="0"/>
        <pt x="1511" y="612" on="1"/>
        <pt x="1443" y="592" on="0"/>
        <pt x="1412" y="524" on="0"/>
        <pt x="1413" y="433" on="1"/>
        <pt x="1416" y="154" on="1"/>
        <pt x="1380" y="143" on="0"/>
        <pt x="1238" y="66" on="0"/>
        <pt x="1210" y="54" on="1"/>
        <pt x="1018" y="-27" on="0"/>
        <pt x="819" y="-27" on="1"/>
        <pt x="597" y="-27" on="0"/>
        <pt x="245" y="142" on="0"/>
      </contour>
    </TTGlyph>
    <TTGlyph name="Gbreve" xMin="39" yMin="-27" xMax="1583" yMax="1895">
      <component glyphName="breve" x="300" y="1478" flags="0x1004"/>
      <component glyphName="G" x="0" y="0" flags="0x1204"/>
    </TTGlyph>
    <TTGlyph name="Gcircumflex" xMin="39" yMin="-27" xMax="1583" yMax="1984">
      <component glyphName="circumflex" x="358" y="275" flags="0x1004"/>
      <component glyphName="G" x="0" y="0" flags="0x1204"/>
    </TTGlyph>
    <TTGlyph name="Gcommaaccent" xMin="39" yMin="-494" xMax="1583" yMax="1413">
      <component glyphName="uni0326" x="580" y="-374" flags="0x1004"/>
      <component glyphName="G" x="0" y="0" flags="0x1204"/>
    </TTGlyph>
    <TTGlyph name="Gdotaccent" xMin="39" yMin="-27" xMax="1583" yMax="1771">
      <component glyphName="dotaccent" x="572" y="1307" flags="0x1004"/>
      <component glyphName="G" x="0" y="0" flags="0x1204"/>
    </TTGlyph>
    <TTGlyph name="H" xMin="94" yMin="-1" xMax="1688" yMax="1405">
      <contour>
        <pt x="1688" y="86" on="1"/>
        <pt x="1688" y="65" on="0"/>
        <pt x="1673" y="34" on="0"/>
        <pt x="1635" y="15" on="0"/>
        <pt x="1605" y="5" on="0"/>
        <pt x="1539" y="1" on="0"/>
        <pt x="1508" y="0" on="0"/>
        <pt x="1470" y="0" on="1"/>
        <pt x="1453" y="0" on="0"/>
        <pt x="1382" y="-1" on="0"/>
        <pt x="1364" y="-1" on="1"/>
        <pt x="1321" y="-1" on="0"/>
        <pt x="1260" y="5" on="0"/>
        <pt x="1200" y="23" on="0"/>
        <pt x="1170" y="61" on="0"/>
        <pt x="1170" y="90" on="1"/>
        <pt x="1170" y="111" on="0"/>
        <pt x="1207" y="130" on="0"/>
        <pt x="1268" y="138" on="0"/>
        <pt x="1280" y="144" on="1"/>
        <pt x="1319" y="162" on="0"/>
        <pt x="1319" y="215" on="1"/>
        <pt x="1319" y="662" on="1"/>
        <pt x="462" y="662" on="1"/>
        <pt x="462" y="215" on="1"/>
        <pt x="462" y="171" on="0"/>
        <pt x="509" y="134" on="0"/>
        <pt x="558" y="129" on="1"/>
        <pt x="577" y="127" on="0"/>
        <pt x="596" y="122" on="0"/>
        <pt x="613" y="103" on="0"/>
        <pt x="613" y="86" on="1"/>
        <pt x="613" y="54" on="0"/>
        <pt x="583" y="17" on="0"/>
        <pt x="503" y="2" on="0"/>
        <pt x="451" y="0" on="0"/>
        <pt x="389" y="0" on="1"/>
        <pt x="364" y="0" on="0"/>
        <pt x="351" y="0" on="1"/>
        <pt x="212" y="0" on="0"/>
        <pt x="174" y="8" on="1"/>
        <pt x="97" y="28" on="0"/>
        <pt x="94" y="90" on="1"/>
        <pt x="94" y="111" on="0"/>
        <pt x="131" y="130" on="0"/>
        <pt x="194" y="139" on="0"/>
        <pt x="205" y="144" on="1"/>
        <pt x="244" y="160" on="0"/>
        <pt x="244" y="215" on="1"/>
        <pt x="244" y="1190" on="1"/>
        <pt x="244" y="1266" on="0"/>
        <pt x="169" y="1272" on="1"/>
        <pt x="146" y="1274" on="0"/>
        <pt x="126" y="1277" on="0"/>
        <pt x="102" y="1287" on="0"/>
        <pt x="94" y="1305" on="0"/>
        <pt x="94" y="1321" on="1"/>
        <pt x="94" y="1351" on="0"/>
        <pt x="124" y="1388" on="0"/>
        <pt x="202" y="1402" on="0"/>
        <pt x="254" y="1404" on="0"/>
        <pt x="316" y="1404" on="1"/>
        <pt x="339" y="1404" on="0"/>
        <pt x="351" y="1404" on="1"/>
        <pt x="492" y="1404" on="0"/>
        <pt x="531" y="1396" on="1"/>
        <pt x="611" y="1377" on="0"/>
        <pt x="613" y="1314" on="1"/>
        <pt x="613" y="1292" on="0"/>
        <pt x="574" y="1274" on="0"/>
        <pt x="512" y="1267" on="0"/>
        <pt x="501" y="1262" on="1"/>
        <pt x="462" y="1246" on="0"/>
        <pt x="462" y="1190" on="1"/>
        <pt x="462" y="777" on="1"/>
        <pt x="1319" y="777" on="1"/>
        <pt x="1319" y="1190" on="1"/>
        <pt x="1319" y="1264" on="0"/>
        <pt x="1244" y="1271" on="1"/>
        <pt x="1214" y="1274" on="0"/>
        <pt x="1190" y="1279" on="0"/>
        <pt x="1170" y="1300" on="0"/>
        <pt x="1170" y="1321" on="1"/>
        <pt x="1170" y="1341" on="0"/>
        <pt x="1188" y="1371" on="0"/>
        <pt x="1228" y="1388" on="0"/>
        <pt x="1265" y="1399" on="0"/>
        <pt x="1334" y="1403" on="0"/>
        <pt x="1375" y="1404" on="0"/>
        <pt x="1416" y="1404" on="1"/>
        <pt x="1421" y="1404" on="0"/>
        <pt x="1424" y="1404" on="1"/>
        <pt x="1465" y="1404" on="0"/>
        <pt x="1520" y="1402" on="0"/>
        <pt x="1601" y="1392" on="0"/>
        <pt x="1651" y="1374" on="0"/>
        <pt x="1688" y="1339" on="0"/>
        <pt x="1688" y="1314" on="1"/>
        <pt x="1688" y="1292" on="0"/>
        <pt x="1650" y="1275" on="0"/>
        <pt x="1588" y="1268" on="0"/>
        <pt x="1577" y="1263" on="1"/>
        <pt x="1538" y="1245" on="0"/>
        <pt x="1538" y="1190" on="1"/>
        <pt x="1538" y="215" on="1"/>
        <pt x="1538" y="171" on="0"/>
        <pt x="1585" y="134" on="0"/>
        <pt x="1633" y="129" on="1"/>
        <pt x="1652" y="127" on="0"/>
        <pt x="1671" y="122" on="0"/>
        <pt x="1688" y="103" on="0"/>
      </contour>
    </TTGlyph>
    <TTGlyph name="Hcircumflex" xMin="94" yMin="-1" xMax="1688" yMax="1984">
      <component glyphName="circumflex" x="404" y="275" flags="0x1004"/>
      <component glyphName="H" x="0" y="0" flags="0x1204"/>
    </TTGlyph>
    <TTGlyph name="I" xMin="94" yMin="0" xMax="613" yMax="1405">
      <contour>
        <pt x="356" y="0" on="1"/>
        <pt x="227" y="0" on="0"/>
        <pt x="94" y="37" on="0"/>
        <pt x="94" y="90" on="1"/>
        <pt x="94" y="111" on="0"/>
        <pt x="131" y="130" on="0"/>
        <pt x="194" y="139" on="0"/>
        <pt x="205" y="144" on="1"/>
        <pt x="244" y="160" on="0"/>
        <pt x="244" y="215" on="1"/>
        <pt x="244" y="1190" on="1"/>
        <pt x="244" y="1262" on="0"/>
        <pt x="169" y="1272" on="1"/>
        <pt x="163" y="1273" on="0"/>
        <pt x="140" y="1276" on="0"/>
        <pt x="131" y="1277" on="0"/>
        <pt x="115" y="1280" on="0"/>
        <pt x="109" y="1284" on="0"/>
        <pt x="100" y="1291" on="0"/>
        <pt x="97" y="1300" on="0"/>
        <pt x="94" y="1313" on="0"/>
        <pt x="94" y="1321" on="1"/>
        <pt x="94" y="1336" on="0"/>
        <pt x="103" y="1360" on="0"/>
        <pt x="126" y="1378" on="0"/>
        <pt x="147" y="1390" on="0"/>
        <pt x="190" y="1397" on="0"/>
        <pt x="219" y="1402" on="0"/>
        <pt x="279" y="1404" on="0"/>
        <pt x="314" y="1404" on="0"/>
        <pt x="350" y="1404" on="1"/>
        <pt x="357" y="1404" on="0"/>
        <pt x="360" y="1404" on="1"/>
        <pt x="392" y="1404" on="0"/>
        <pt x="433" y="1403" on="0"/>
        <pt x="491" y="1399" on="0"/>
        <pt x="529" y="1393" on="0"/>
        <pt x="572" y="1379" on="0"/>
        <pt x="597" y="1361" on="0"/>
        <pt x="613" y="1332" on="0"/>
        <pt x="613" y="1314" on="1"/>
        <pt x="613" y="1292" on="0"/>
        <pt x="574" y="1275" on="0"/>
        <pt x="512" y="1268" on="0"/>
        <pt x="501" y="1263" on="1"/>
        <pt x="462" y="1245" on="0"/>
        <pt x="462" y="1190" on="1"/>
        <pt x="462" y="215" on="1"/>
        <pt x="462" y="171" on="0"/>
        <pt x="509" y="134" on="0"/>
        <pt x="557" y="129" on="1"/>
        <pt x="576" y="127" on="0"/>
        <pt x="596" y="122" on="0"/>
        <pt x="613" y="103" on="0"/>
        <pt x="613" y="86" on="1"/>
        <pt x="613" y="65" on="0"/>
        <pt x="595" y="35" on="0"/>
        <pt x="553" y="16" on="0"/>
        <pt x="515" y="5" on="0"/>
        <pt x="443" y="1" on="0"/>
        <pt x="399" y="0" on="0"/>
      </contour>
    </TTGlyph>
    <TTGlyph name="IJ" xMin="95" yMin="-22" xMax="1540" yMax="1405">
      <component glyphName="J" x="653" y="0" flags="0x1004"/>
      <component glyphName="I" x="1" y="0" flags="0x1004"/>
    </TTGlyph>
    <TTGlyph name="Iacute" xMin="94" yMin="0" xMax="732" yMax="2136">
      <component glyphName="acute" x="236" y="432" flags="0x1004"/>
      <component glyphName="I" x="0" y="0" flags="0x1204"/>
    </TTGlyph>
    <TTGlyph name="Ibreve" xMin="-56" yMin="0" xMax="762" yMax="1895">
      <component glyphName="breve" x="-158" y="1478" flags="0x1004"/>
      <component glyphName="I" x="0" y="0" flags="0x1204"/>
    </TTGlyph>
    <TTGlyph name="Icircumflex" xMin="-18" yMin="0" xMax="724" yMax="1984">
      <component glyphName="circumflex" x="-100" y="275" flags="0x1004"/>
      <component glyphName="I" x="0" y="0" flags="0x1204"/>
    </TTGlyph>
    <TTGlyph name="Idieresis" xMin="-43" yMin="0" xMax="750" yMax="1759">
      <component glyphName="dieresis" x="-158" y="172" flags="0x1004"/>
      <component glyphName="I" x="0" y="0" flags="0x1204"/>
    </TTGlyph>
    <TTGlyph name="Idotaccent" xMin="94" yMin="0" xMax="613" yMax="1771">
      <component glyphName="dotaccent" x="114" y="1307" flags="0x1004"/>
      <component glyphName="I" x="0" y="0" flags="0x1204"/>
    </TTGlyph>
    <TTGlyph name="Igrave" xMin="-26" yMin="0" xMax="613" yMax="2136">
      <component glyphName="grave" x="-66" y="432" flags="0x1004"/>
      <component glyphName="I" x="0" y="0" flags="0x1204"/>
    </TTGlyph>
    <TTGlyph name="Imacron" xMin="35" yMin="0" xMax="674" yMax="1664">
      <component glyphName="macron" x="-75" y="1291" flags="0x1004"/>
      <component glyphName="I" x="0" y="0" flags="0x1204"/>
    </TTGlyph>
    <TTGlyph name="Iogonek" xMin="52" yMin="-458" xMax="613" yMax="1404">
      <component glyphName="ogonek" x="12" y="-12" flags="0x1004"/>
      <component glyphName="I" x="0" y="0" flags="0x1204"/>
    </TTGlyph>
    <TTGlyph name="Itilde" xMin="-72" yMin="0" xMax="718" yMax="1758">
      <component glyphName="tilde" x="-157" y="392" flags="0x1004"/>
      <component glyphName="I" x="0" y="0" flags="0x1204"/>
    </TTGlyph>
    <TTGlyph name="J" xMin="14" yMin="-22" xMax="887" yMax="1405">
      <contour>
        <pt x="368" y="1321" on="1"/>
        <pt x="368" y="1341" on="0"/>
        <pt x="383" y="1371" on="0"/>
        <pt x="418" y="1388" on="0"/>
        <pt x="450" y="1399" on="0"/>
        <pt x="509" y="1403" on="0"/>
        <pt x="544" y="1404" on="0"/>
        <pt x="578" y="1404" on="1"/>
        <pt x="583" y="1404" on="0"/>
        <pt x="585" y="1404" on="1"/>
        <pt x="698" y="1405" on="1"/>
        <pt x="740" y="1405" on="0"/>
        <pt x="800" y="1399" on="0"/>
        <pt x="857" y="1381" on="0"/>
        <pt x="887" y="1343" on="0"/>
        <pt x="887" y="1314" on="1"/>
        <pt x="887" y="1292" on="0"/>
        <pt x="848" y="1274" on="0"/>
        <pt x="786" y="1267" on="0"/>
        <pt x="775" y="1262" on="1"/>
        <pt x="736" y="1246" on="0"/>
        <pt x="736" y="1190" on="1"/>
        <pt x="736" y="439" on="1"/>
        <pt x="736" y="199" on="0"/>
        <pt x="548" y="-22" on="0"/>
        <pt x="330" y="-22" on="1"/>
        <pt x="201" y="-22" on="0"/>
        <pt x="14" y="114" on="0"/>
        <pt x="14" y="226" on="1"/>
        <pt x="14" y="296" on="0"/>
        <pt x="94" y="381" on="0"/>
        <pt x="162" y="381" on="1"/>
        <pt x="292" y="381" on="0"/>
        <pt x="292" y="256" on="1"/>
        <pt x="292" y="222" on="0"/>
        <pt x="234" y="158" on="0"/>
        <pt x="195" y="144" on="1"/>
        <pt x="256" y="91" on="0"/>
        <pt x="309" y="91" on="1"/>
        <pt x="420" y="91" on="0"/>
        <pt x="519" y="218" on="0"/>
        <pt x="519" y="340" on="1"/>
        <pt x="519" y="1190" on="1"/>
        <pt x="519" y="1264" on="0"/>
        <pt x="444" y="1271" on="1"/>
        <pt x="423" y="1273" on="0"/>
        <pt x="410" y="1275" on="0"/>
        <pt x="384" y="1281" on="0"/>
        <pt x="376" y="1291" on="0"/>
        <pt x="368" y="1308" on="0"/>
      </contour>
    </TTGlyph>
    <TTGlyph name="Jcircumflex" xMin="14" yMin="-22" xMax="887" yMax="1984">
      <component glyphName="circumflex" x="-36" y="275" flags="0x1004"/>
      <component glyphName="J" x="0" y="0" flags="0x1204"/>
    </TTGlyph>
    <TTGlyph name="K" xMin="93" yMin="-1" xMax="1535" yMax="1405">
      <contour>
        <pt x="613" y="83" on="1"/>
        <pt x="613" y="68" on="0"/>
        <pt x="604" y="43" on="0"/>
        <pt x="583" y="26" on="0"/>
        <pt x="563" y="14" on="0"/>
        <pt x="526" y="7" on="0"/>
        <pt x="500" y="2" on="0"/>
        <pt x="453" y="0" on="0"/>
        <pt x="427" y="0" on="0"/>
        <pt x="401" y="0" on="1"/>
        <pt x="396" y="0" on="0"/>
        <pt x="394" y="0" on="1"/>
        <pt x="378" y="0" on="0"/>
        <pt x="308" y="-1" on="0"/>
        <pt x="290" y="-1" on="1"/>
        <pt x="246" y="-1" on="0"/>
        <pt x="184" y="5" on="0"/>
        <pt x="124" y="23" on="0"/>
        <pt x="93" y="61" on="0"/>
        <pt x="93" y="90" on="1"/>
        <pt x="93" y="111" on="0"/>
        <pt x="130" y="130" on="0"/>
        <pt x="193" y="139" on="0"/>
        <pt x="205" y="144" on="1"/>
        <pt x="244" y="160" on="0"/>
        <pt x="244" y="215" on="1"/>
        <pt x="244" y="1190" on="1"/>
        <pt x="244" y="1263" on="0"/>
        <pt x="168" y="1271" on="1"/>
        <pt x="147" y="1273" on="0"/>
        <pt x="134" y="1275" on="0"/>
        <pt x="108" y="1281" on="0"/>
        <pt x="101" y="1291" on="0"/>
        <pt x="93" y="1308" on="0"/>
        <pt x="93" y="1321" on="1"/>
        <pt x="93" y="1341" on="0"/>
        <pt x="108" y="1371" on="0"/>
        <pt x="143" y="1388" on="0"/>
        <pt x="175" y="1399" on="0"/>
        <pt x="234" y="1403" on="0"/>
        <pt x="269" y="1404" on="0"/>
        <pt x="303" y="1404" on="1"/>
        <pt x="308" y="1404" on="0"/>
        <pt x="310" y="1404" on="1"/>
        <pt x="424" y="1405" on="1"/>
        <pt x="466" y="1405" on="0"/>
        <pt x="526" y="1399" on="0"/>
        <pt x="583" y="1381" on="0"/>
        <pt x="613" y="1343" on="0"/>
        <pt x="613" y="1314" on="1"/>
        <pt x="613" y="1292" on="0"/>
        <pt x="574" y="1274" on="0"/>
        <pt x="512" y="1267" on="0"/>
        <pt x="501" y="1262" on="1"/>
        <pt x="462" y="1246" on="0"/>
        <pt x="462" y="1189" on="1"/>
        <pt x="462" y="681" on="1"/>
        <pt x="786" y="973" on="0"/>
        <pt x="1063" y="1226" on="1"/>
        <pt x="1084" y="1246" on="0"/>
        <pt x="1084" y="1268" on="0"/>
        <pt x="1057" y="1278" on="0"/>
        <pt x="1024" y="1280" on="0"/>
        <pt x="997" y="1298" on="0"/>
        <pt x="997" y="1318" on="1"/>
        <pt x="997" y="1339" on="0"/>
        <pt x="1009" y="1369" on="0"/>
        <pt x="1038" y="1388" on="0"/>
        <pt x="1065" y="1399" on="0"/>
        <pt x="1118" y="1403" on="0"/>
        <pt x="1151" y="1404" on="0"/>
        <pt x="1185" y="1404" on="1"/>
        <pt x="1264" y="1404" on="0"/>
        <pt x="1336" y="1401" on="0"/>
        <pt x="1421" y="1389" on="0"/>
        <pt x="1452" y="1358" on="0"/>
        <pt x="1452" y="1331" on="1"/>
        <pt x="1452" y="1319" on="0"/>
        <pt x="1444" y="1304" on="0"/>
        <pt x="1425" y="1294" on="0"/>
        <pt x="1409" y="1289" on="0"/>
        <pt x="1378" y="1281" on="0"/>
        <pt x="1370" y="1279" on="1"/>
        <pt x="1272" y="1250" on="1"/>
        <pt x="862" y="901" on="0"/>
        <pt x="792" y="843" on="1"/>
        <pt x="1316" y="201" on="1"/>
        <pt x="1367" y="147" on="0"/>
        <pt x="1462" y="132" on="1"/>
        <pt x="1466" y="131" on="0"/>
        <pt x="1486" y="129" on="0"/>
        <pt x="1493" y="127" on="0"/>
        <pt x="1510" y="123" on="0"/>
        <pt x="1516" y="120" on="0"/>
        <pt x="1527" y="113" on="0"/>
        <pt x="1531" y="104" on="0"/>
        <pt x="1535" y="92" on="0"/>
        <pt x="1535" y="84" on="1"/>
        <pt x="1535" y="56" on="0"/>
        <pt x="1501" y="19" on="0"/>
        <pt x="1437" y="4" on="0"/>
        <pt x="1381" y="-1" on="0"/>
        <pt x="1340" y="-1" on="1"/>
        <pt x="1144" y="-1" on="0"/>
        <pt x="1144" y="40" on="1"/>
        <pt x="756" y="555" on="0"/>
        <pt x="643" y="714" on="1"/>
        <pt x="462" y="565" on="1"/>
        <pt x="462" y="213" on="1"/>
        <pt x="462" y="138" on="0"/>
        <pt x="538" y="132" on="1"/>
        <pt x="558" y="130" on="0"/>
        <pt x="573" y="129" on="0"/>
        <pt x="598" y="123" on="0"/>
        <pt x="606" y="113" on="0"/>
        <pt x="613" y="96" on="0"/>
      </contour>
    </TTGlyph>
    <TTGlyph name="Kcommaaccent" xMin="93" yMin="-468" xMax="1535" yMax="1405">
      <component glyphName="uni0326" x="582" y="-348" flags="0x1004"/>
      <component glyphName="K" x="0" y="0" flags="0x1204"/>
    </TTGlyph>
    <TTGlyph name="L" xMin="86" yMin="-4" xMax="1345" yMax="1404">
      <contour>
        <pt x="1345" y="269" on="1"/>
        <pt x="1345" y="162" on="0"/>
        <pt x="1203" y="-4" on="0"/>
        <pt x="1109" y="-4" on="1"/>
        <pt x="368" y="0" on="1"/>
        <pt x="212" y="0" on="0"/>
        <pt x="171" y="10" on="1"/>
        <pt x="86" y="30" on="0"/>
        <pt x="86" y="84" on="1"/>
        <pt x="86" y="94" on="0"/>
        <pt x="94" y="109" on="0"/>
        <pt x="112" y="119" on="0"/>
        <pt x="124" y="124" on="0"/>
        <pt x="152" y="131" on="0"/>
        <pt x="156" y="132" on="1"/>
        <pt x="230" y="154" on="0"/>
        <pt x="247" y="197" on="1"/>
        <pt x="260" y="253" on="0"/>
        <pt x="260" y="312" on="1"/>
        <pt x="260" y="1093" on="1"/>
        <pt x="260" y="1224" on="0"/>
        <pt x="212" y="1249" on="1"/>
        <pt x="188" y="1262" on="0"/>
        <pt x="108" y="1288" on="1"/>
        <pt x="86" y="1295" on="0"/>
        <pt x="86" y="1320" on="1"/>
        <pt x="86" y="1374" on="0"/>
        <pt x="164" y="1392" on="1"/>
        <pt x="213" y="1404" on="0"/>
        <pt x="368" y="1404" on="1"/>
        <pt x="526" y="1404" on="0"/>
        <pt x="567" y="1394" on="1"/>
        <pt x="653" y="1374" on="0"/>
        <pt x="653" y="1321" on="1"/>
        <pt x="653" y="1313" on="0"/>
        <pt x="646" y="1299" on="0"/>
        <pt x="639" y="1292" on="0"/>
        <pt x="621" y="1284" on="0"/>
        <pt x="614" y="1281" on="0"/>
        <pt x="590" y="1275" on="0"/>
        <pt x="588" y="1274" on="1"/>
        <pt x="582" y="1272" on="0"/>
        <pt x="556" y="1265" on="0"/>
        <pt x="544" y="1261" on="0"/>
        <pt x="526" y="1253" on="0"/>
        <pt x="512" y="1243" on="0"/>
        <pt x="507" y="1236" on="1"/>
        <pt x="479" y="1202" on="0"/>
        <pt x="479" y="1093" on="1"/>
        <pt x="479" y="167" on="1"/>
        <pt x="479" y="122" on="0"/>
        <pt x="572" y="122" on="1"/>
        <pt x="777" y="122" on="0"/>
        <pt x="978" y="141" on="1"/>
        <pt x="1096" y="153" on="0"/>
        <pt x="1116" y="166" on="1"/>
        <pt x="1130" y="182" on="0"/>
        <pt x="1172" y="274" on="0"/>
        <pt x="1175" y="279" on="1"/>
        <pt x="1217" y="356" on="0"/>
        <pt x="1275" y="356" on="1"/>
        <pt x="1345" y="356" on="0"/>
      </contour>
    </TTGlyph>
    <TTGlyph name="Lacute" xMin="86" yMin="-4" xMax="1345" yMax="2136">
      <component glyphName="acute" x="598" y="432" flags="0x1004"/>
      <component glyphName="L" x="0" y="0" flags="0x1204"/>
    </TTGlyph>
    <TTGlyph name="Lcaron" xMin="87" yMin="-4" xMax="1800" yMax="1416">
      <component glyphName="comma" x="1425" y="1191" flags="0x1004"/>
      <component glyphName="L" x="1" y="0" flags="0x1004"/>
    </TTGlyph>
    <TTGlyph name="Lcommaaccent" xMin="86" yMin="-471" xMax="1345" yMax="1404">
      <component glyphName="uni0326" x="484" y="-351" flags="0x1004"/>
      <component glyphName="L" x="0" y="0" flags="0x1204"/>
    </TTGlyph>
    <TTGlyph name="Ldotaccent" xMin="86" yMin="-4" xMax="1345" yMax="1404">
      <component glyphName="periodcentered" x="471" y="-74" flags="0x1004"/>
      <component glyphName="L" x="0" y="0" flags="0x1204"/>
    </TTGlyph>
    <TTGlyph name="Lslash" xMin="76" yMin="-4" xMax="1354" yMax="1404">
      <contour>
        <pt x="136" y="498" on="1"/>
        <pt x="112" y="498" on="0"/>
        <pt x="76" y="542" on="0"/>
        <pt x="76" y="569" on="1"/>
        <pt x="76" y="628" on="0"/>
        <pt x="137" y="649" on="1"/>
        <pt x="608" y="801" on="1"/>
        <pt x="628" y="806" on="0"/>
        <pt x="639" y="806" on="1"/>
        <pt x="667" y="806" on="0"/>
        <pt x="703" y="764" on="0"/>
        <pt x="703" y="730" on="1"/>
        <pt x="703" y="675" on="0"/>
        <pt x="642" y="656" on="1"/>
        <pt x="172" y="504" on="1"/>
        <pt x="156" y="498" on="0"/>
      </contour>
      <contour>
        <pt x="1354" y="269" on="1"/>
        <pt x="1354" y="162" on="0"/>
        <pt x="1212" y="-4" on="0"/>
        <pt x="1118" y="-4" on="1"/>
        <pt x="377" y="0" on="1"/>
        <pt x="221" y="0" on="0"/>
        <pt x="180" y="10" on="1"/>
        <pt x="95" y="30" on="0"/>
        <pt x="95" y="84" on="1"/>
        <pt x="95" y="94" on="0"/>
        <pt x="103" y="109" on="0"/>
        <pt x="121" y="119" on="0"/>
        <pt x="133" y="124" on="0"/>
        <pt x="161" y="131" on="0"/>
        <pt x="165" y="132" on="1"/>
        <pt x="239" y="154" on="0"/>
        <pt x="256" y="197" on="1"/>
        <pt x="269" y="253" on="0"/>
        <pt x="269" y="312" on="1"/>
        <pt x="269" y="1093" on="1"/>
        <pt x="269" y="1224" on="0"/>
        <pt x="222" y="1249" on="1"/>
        <pt x="200" y="1261" on="0"/>
        <pt x="117" y="1288" on="1"/>
        <pt x="95" y="1295" on="0"/>
        <pt x="95" y="1320" on="1"/>
        <pt x="95" y="1374" on="0"/>
        <pt x="174" y="1392" on="1"/>
        <pt x="224" y="1404" on="0"/>
        <pt x="377" y="1404" on="1"/>
        <pt x="535" y="1404" on="0"/>
        <pt x="576" y="1394" on="1"/>
        <pt x="662" y="1374" on="0"/>
        <pt x="662" y="1321" on="1"/>
        <pt x="662" y="1314" on="0"/>
        <pt x="658" y="1302" on="0"/>
        <pt x="650" y="1294" on="0"/>
        <pt x="642" y="1288" on="0"/>
        <pt x="627" y="1282" on="0"/>
        <pt x="619" y="1280" on="0"/>
        <pt x="601" y="1275" on="0"/>
        <pt x="598" y="1274" on="1"/>
        <pt x="592" y="1272" on="0"/>
        <pt x="566" y="1265" on="0"/>
        <pt x="553" y="1261" on="0"/>
        <pt x="535" y="1253" on="0"/>
        <pt x="521" y="1243" on="0"/>
        <pt x="516" y="1236" on="1"/>
        <pt x="488" y="1202" on="0"/>
        <pt x="488" y="1093" on="1"/>
        <pt x="488" y="167" on="1"/>
        <pt x="488" y="141" on="0"/>
        <pt x="507" y="134" on="1"/>
        <pt x="539" y="121" on="0"/>
        <pt x="622" y="121" on="1"/>
        <pt x="639" y="121" on="0"/>
        <pt x="685" y="123" on="1"/>
        <pt x="914" y="134" on="0"/>
        <pt x="986" y="141" on="1"/>
        <pt x="1105" y="153" on="0"/>
        <pt x="1125" y="166" on="1"/>
        <pt x="1139" y="182" on="0"/>
        <pt x="1181" y="274" on="0"/>
        <pt x="1184" y="279" on="1"/>
        <pt x="1226" y="356" on="0"/>
        <pt x="1284" y="356" on="1"/>
        <pt x="1354" y="356" on="0"/>
      </contour>
    </TTGlyph>
    <TTGlyph name="M" xMin="86" yMin="-1" xMax="1944" yMax="1406">
      <contour>
        <pt x="254" y="1234" on="1"/>
        <pt x="254" y="1253" on="0"/>
        <pt x="86" y="1298" on="0"/>
        <pt x="86" y="1315" on="1"/>
        <pt x="86" y="1406" on="0"/>
        <pt x="293" y="1406" on="1"/>
        <pt x="381" y="1404" on="1"/>
        <pt x="398" y="1404" on="0"/>
        <pt x="458" y="1352" on="0"/>
        <pt x="474" y="1324" on="1"/>
        <pt x="1001" y="375" on="1"/>
        <pt x="1157" y="628" on="0"/>
        <pt x="1507" y="1218" on="1"/>
        <pt x="1507" y="1217" on="1"/>
        <pt x="1512" y="1226" on="0"/>
        <pt x="1549" y="1298" on="0"/>
        <pt x="1572" y="1332" on="0"/>
        <pt x="1613" y="1382" on="0"/>
        <pt x="1660" y="1404" on="0"/>
        <pt x="1688" y="1404" on="1"/>
        <pt x="1761" y="1405" on="1"/>
        <pt x="1944" y="1405" on="0"/>
        <pt x="1944" y="1315" on="1"/>
        <pt x="1944" y="1297" on="0"/>
        <pt x="1890" y="1278" on="0"/>
        <pt x="1826" y="1271" on="0"/>
        <pt x="1772" y="1252" on="0"/>
        <pt x="1772" y="1234" on="1"/>
        <pt x="1772" y="172" on="1"/>
        <pt x="1772" y="153" on="0"/>
        <pt x="1858" y="128" on="0"/>
        <pt x="1944" y="106" on="0"/>
        <pt x="1944" y="90" on="1"/>
        <pt x="1944" y="-1" on="0"/>
        <pt x="1746" y="-1" on="1"/>
        <pt x="1667" y="1" on="1"/>
        <pt x="1584" y="-1" on="1"/>
        <pt x="1388" y="-1" on="0"/>
        <pt x="1388" y="90" on="1"/>
        <pt x="1388" y="113" on="0"/>
        <pt x="1472" y="130" on="0"/>
        <pt x="1555" y="147" on="0"/>
        <pt x="1555" y="172" on="1"/>
        <pt x="1555" y="1064" on="1"/>
        <pt x="1536" y="1031" on="0"/>
        <pt x="1230" y="474" on="0"/>
        <pt x="1146" y="338" on="1"/>
        <pt x="1078" y="228" on="0"/>
        <pt x="1032" y="174" on="1"/>
        <pt x="1032" y="175" on="1"/>
        <pt x="1004" y="147" on="0"/>
        <pt x="976" y="147" on="1"/>
        <pt x="956" y="147" on="0"/>
        <pt x="926" y="156" on="0"/>
        <pt x="903" y="180" on="0"/>
        <pt x="891" y="195" on="0"/>
        <pt x="871" y="233" on="0"/>
        <pt x="867" y="239" on="1"/>
        <pt x="430" y="957" on="1"/>
        <pt x="430" y="172" on="1"/>
        <pt x="430" y="153" on="0"/>
        <pt x="516" y="128" on="0"/>
        <pt x="603" y="107" on="0"/>
        <pt x="603" y="90" on="1"/>
        <pt x="603" y="0" on="0"/>
        <pt x="417" y="0" on="1"/>
        <pt x="344" y="1" on="1"/>
        <pt x="268" y="-1" on="1"/>
        <pt x="86" y="-1" on="0"/>
        <pt x="86" y="90" on="1"/>
        <pt x="86" y="114" on="0"/>
        <pt x="170" y="130" on="0"/>
        <pt x="254" y="147" on="0"/>
        <pt x="254" y="172" on="1"/>
      </contour>
    </TTGlyph>
    <TTGlyph name="N" xMin="85" yMin="-28" xMax="1744" yMax="1435">
      <contour>
        <pt x="379" y="-28" on="1"/>
        <pt x="327" y="-28" on="0"/>
        <pt x="235" y="-18" on="0"/>
        <pt x="141" y="6" on="0"/>
        <pt x="85" y="56" on="0"/>
        <pt x="85" y="91" on="1"/>
        <pt x="85" y="115" on="0"/>
        <pt x="172" y="139" on="0"/>
        <pt x="258" y="166" on="0"/>
        <pt x="258" y="193" on="1"/>
        <pt x="258" y="1234" on="1"/>
        <pt x="258" y="1253" on="0"/>
        <pt x="85" y="1298" on="0"/>
        <pt x="85" y="1315" on="1"/>
        <pt x="85" y="1336" on="0"/>
        <pt x="100" y="1367" on="0"/>
        <pt x="134" y="1386" on="0"/>
        <pt x="168" y="1398" on="0"/>
        <pt x="226" y="1403" on="0"/>
        <pt x="267" y="1404" on="0"/>
        <pt x="302" y="1404" on="1"/>
        <pt x="315" y="1404" on="1"/>
        <pt x="425" y="1404" on="0"/>
        <pt x="452" y="1380" on="1"/>
        <pt x="452" y="1381" on="1"/>
        <pt x="1392" y="362" on="1"/>
        <pt x="1392" y="493" on="1"/>
        <pt x="1391" y="500" on="1"/>
        <pt x="1391" y="1213" on="1"/>
        <pt x="1391" y="1226" on="0"/>
        <pt x="1219" y="1290" on="0"/>
        <pt x="1219" y="1305" on="1"/>
        <pt x="1219" y="1344" on="0"/>
        <pt x="1301" y="1406" on="0"/>
        <pt x="1407" y="1435" on="0"/>
        <pt x="1456" y="1435" on="1"/>
        <pt x="1509" y="1435" on="0"/>
        <pt x="1601" y="1424" on="0"/>
        <pt x="1691" y="1397" on="0"/>
        <pt x="1744" y="1343" on="0"/>
        <pt x="1744" y="1305" on="1"/>
        <pt x="1744" y="1292" on="0"/>
        <pt x="1578" y="1226" on="0"/>
        <pt x="1578" y="1213" on="1"/>
        <pt x="1577" y="88" on="1"/>
        <pt x="1577" y="41" on="0"/>
        <pt x="1546" y="-22" on="0"/>
        <pt x="1512" y="-22" on="1"/>
        <pt x="1462" y="-22" on="0"/>
        <pt x="1390" y="56" on="1"/>
        <pt x="1175" y="284" on="0"/>
        <pt x="444" y="1083" on="1"/>
        <pt x="444" y="193" on="1"/>
        <pt x="444" y="176" on="0"/>
        <pt x="528" y="141" on="0"/>
        <pt x="612" y="106" on="0"/>
        <pt x="612" y="89" on="1"/>
        <pt x="612" y="58" on="0"/>
        <pt x="564" y="9" on="0"/>
        <pt x="490" y="-16" on="0"/>
        <pt x="415" y="-28" on="0"/>
      </contour>
    </TTGlyph>
    <TTGlyph name="Nacute" xMin="85" yMin="-28" xMax="1744" yMax="2155">
      <component glyphName="acute" x="798" y="451" flags="0x1004"/>
      <component glyphName="N" x="0" y="0" flags="0x1204"/>
    </TTGlyph>
    <TTGlyph name="Ncaron" xMin="85" yMin="-28" xMax="1744" yMax="2003">
      <component glyphName="caron" x="531" y="295" flags="0x1004"/>
      <component glyphName="N" x="0" y="0" flags="0x1204"/>
    </TTGlyph>
    <TTGlyph name="Ncommaaccent" xMin="85" yMin="-495" xMax="1744" yMax="1435">
      <component glyphName="uni0326" x="683" y="-375" flags="0x1004"/>
      <component glyphName="N" x="0" y="0" flags="0x1204"/>
    </TTGlyph>
    <TTGlyph name="Ntilde" xMin="85" yMin="-28" xMax="1744" yMax="1777">
      <component glyphName="tilde" x="434" y="411" flags="0x1004"/>
      <component glyphName="N" x="0" y="0" flags="0x1204"/>
    </TTGlyph>
    <TTGlyph name="O" xMin="45" yMin="-25" xMax="1720" yMax="1416">
      <contour>
        <pt x="890" y="110" on="1"/>
        <pt x="1055" y="110" on="0"/>
        <pt x="1332" y="253" on="0"/>
        <pt x="1498" y="512" on="0"/>
        <pt x="1498" y="672" on="1"/>
        <pt x="1498" y="859" on="0"/>
        <pt x="1334" y="1143" on="0"/>
        <pt x="1043" y="1293" on="0"/>
        <pt x="856" y="1293" on="1"/>
        <pt x="686" y="1293" on="0"/>
        <pt x="416" y="1148" on="0"/>
        <pt x="264" y="883" on="0"/>
        <pt x="264" y="545" on="0"/>
        <pt x="431" y="267" on="0"/>
        <pt x="718" y="110" on="0"/>
      </contour>
      <contour>
        <pt x="45" y="637" on="1"/>
        <pt x="45" y="782" on="0"/>
        <pt x="129" y="1032" on="0"/>
        <pt x="282" y="1218" on="0"/>
        <pt x="491" y="1350" on="0"/>
        <pt x="745" y="1416" on="0"/>
        <pt x="886" y="1416" on="1"/>
        <pt x="1016" y="1416" on="0"/>
        <pt x="1259" y="1363" on="0"/>
        <pt x="1471" y="1253" on="0"/>
        <pt x="1629" y="1098" on="0"/>
        <pt x="1720" y="879" on="0"/>
        <pt x="1720" y="750" on="1"/>
        <pt x="1720" y="516" on="0"/>
        <pt x="1500" y="161" on="0"/>
        <pt x="1120" y="-25" on="0"/>
        <pt x="879" y="-25" on="1"/>
        <pt x="746" y="-25" on="0"/>
        <pt x="500" y="31" on="0"/>
        <pt x="290" y="143" on="0"/>
        <pt x="134" y="299" on="0"/>
        <pt x="45" y="513" on="0"/>
      </contour>
    </TTGlyph>
    <TTGlyph name="OE" xMin="33" yMin="-4" xMax="2117" yMax="1300">
      <contour>
        <pt x="2033" y="342" on="1"/>
        <pt x="2117" y="342" on="0"/>
        <pt x="2117" y="251" on="1"/>
        <pt x="2117" y="203" on="0"/>
        <pt x="2073" y="108" on="0"/>
        <pt x="2041" y="76" on="1"/>
        <pt x="1965" y="-4" on="0"/>
        <pt x="1862" y="-4" on="1"/>
        <pt x="1167" y="0" on="1"/>
        <pt x="797" y="0" on="1"/>
        <pt x="479" y="0" on="0"/>
        <pt x="262" y="163" on="1"/>
        <pt x="33" y="336" on="0"/>
        <pt x="33" y="610" on="1"/>
        <pt x="33" y="913" on="0"/>
        <pt x="254" y="1108" on="1"/>
        <pt x="473" y="1300" on="0"/>
        <pt x="810" y="1300" on="1"/>
        <pt x="1929" y="1300" on="1"/>
        <pt x="2002" y="1300" on="0"/>
        <pt x="2091" y="1186" on="0"/>
        <pt x="2091" y="1103" on="1"/>
        <pt x="2091" y="960" on="0"/>
        <pt x="1988" y="960" on="1"/>
        <pt x="1924" y="960" on="0"/>
        <pt x="1878" y="1036" on="0"/>
        <pt x="1878" y="1115" on="1"/>
        <pt x="1879" y="1175" on="1"/>
        <pt x="1276" y="1175" on="1"/>
        <pt x="1276" y="757" on="1"/>
        <pt x="1277" y="736" on="1"/>
        <pt x="1657" y="736" on="1"/>
        <pt x="1665" y="744" on="0"/>
        <pt x="1698" y="808" on="0"/>
        <pt x="1730" y="858" on="0"/>
        <pt x="1744" y="858" on="1"/>
        <pt x="1854" y="858" on="0"/>
        <pt x="1854" y="674" on="1"/>
        <pt x="1854" y="553" on="0"/>
        <pt x="1804" y="504" on="1"/>
        <pt x="1783" y="483" on="0"/>
        <pt x="1756" y="483" on="1"/>
        <pt x="1743" y="483" on="0"/>
        <pt x="1724" y="491" on="0"/>
        <pt x="1707" y="514" on="0"/>
        <pt x="1702" y="522" on="0"/>
        <pt x="1694" y="538" on="1"/>
        <pt x="1688" y="549" on="0"/>
        <pt x="1662" y="604" on="0"/>
        <pt x="1657" y="614" on="1"/>
        <pt x="1276" y="614" on="1"/>
        <pt x="1276" y="136" on="1"/>
        <pt x="1849" y="136" on="1"/>
        <pt x="1864" y="152" on="0"/>
        <pt x="1933" y="264" on="0"/>
        <pt x="2001" y="342" on="0"/>
      </contour>
      <contour>
        <pt x="1055" y="139" on="1"/>
        <pt x="1061" y="332" on="0"/>
        <pt x="1061" y="516" on="1"/>
        <pt x="1061" y="924" on="1"/>
        <pt x="1062" y="1161" on="1"/>
        <pt x="961" y="1171" on="0"/>
        <pt x="805" y="1171" on="1"/>
        <pt x="536" y="1171" on="0"/>
        <pt x="388" y="1020" on="1"/>
        <pt x="249" y="878" on="0"/>
        <pt x="249" y="661" on="1"/>
        <pt x="249" y="450" on="0"/>
        <pt x="401" y="298" on="1"/>
        <pt x="560" y="139" on="0"/>
        <pt x="814" y="139" on="1"/>
      </contour>
    </TTGlyph>
    <TTGlyph name="Oacute" xMin="45" yMin="-25" xMax="1720" yMax="2136">
      <component glyphName="acute" x="766" y="432" flags="0x1004"/>
      <component glyphName="O" x="0" y="0" flags="0x1204"/>
    </TTGlyph>
    <TTGlyph name="Obreve" xMin="45" yMin="-25" xMax="1720" yMax="1895">
      <component glyphName="breve" x="372" y="1478" flags="0x1004"/>
      <component glyphName="O" x="0" y="0" flags="0x1204"/>
    </TTGlyph>
    <TTGlyph name="Ocircumflex" xMin="45" yMin="-25" xMax="1720" yMax="1984">
      <component glyphName="circumflex" x="429" y="275" flags="0x1004"/>
      <component glyphName="O" x="0" y="0" flags="0x1204"/>
    </TTGlyph>
    <TTGlyph name="Odieresis" xMin="45" yMin="-25" xMax="1720" yMax="1759">
      <component glyphName="dieresis" x="371" y="172" flags="0x1004"/>
      <component glyphName="O" x="0" y="0" flags="0x1204"/>
    </TTGlyph>
    <TTGlyph name="Ograve" xMin="45" yMin="-25" xMax="1720" yMax="2136">
      <component glyphName="grave" x="464" y="432" flags="0x1004"/>
      <component glyphName="O" x="0" y="0" flags="0x1204"/>
    </TTGlyph>
    <TTGlyph name="Ohungarumlaut" xMin="45" yMin="-25" xMax="1720" yMax="2136">
      <component glyphName="hungarumlaut" x="600" y="432" flags="0x1004"/>
      <component glyphName="O" x="0" y="0" flags="0x1204"/>
    </TTGlyph>
    <TTGlyph name="Omacron" xMin="45" yMin="-25" xMax="1720" yMax="1664">
      <component glyphName="macron" x="454" y="1291" flags="0x1004"/>
      <component glyphName="O" x="0" y="0" flags="0x1204"/>
    </TTGlyph>
    <TTGlyph name="Oslash" xMin="35" yMin="-179" xMax="1710" yMax="1553">
      <contour>
        <pt x="487" y="-179" on="1"/>
        <pt x="459" y="-179" on="0"/>
        <pt x="420" y="-150" on="0"/>
        <pt x="420" y="-100" on="0"/>
        <pt x="430" y="-81" on="1"/>
        <pt x="1189" y="1516" on="1"/>
        <pt x="1205" y="1553" on="0"/>
        <pt x="1239" y="1553" on="1"/>
        <pt x="1313" y="1553" on="0"/>
        <pt x="1313" y="1493" on="1"/>
        <pt x="1313" y="1484" on="0"/>
        <pt x="1308" y="1466" on="1"/>
        <pt x="536" y="-139" on="1"/>
        <pt x="517" y="-179" on="0"/>
      </contour>
      <contour>
        <pt x="1488" y="672" on="1"/>
        <pt x="1488" y="855" on="0"/>
        <pt x="1328" y="1126" on="0"/>
        <pt x="1196" y="1204" on="1"/>
        <pt x="1044" y="1293" on="0"/>
        <pt x="846" y="1293" on="1"/>
        <pt x="572" y="1293" on="0"/>
        <pt x="408" y="1120" on="1"/>
        <pt x="254" y="957" on="0"/>
        <pt x="254" y="714" on="1"/>
        <pt x="254" y="469" on="0"/>
        <pt x="423" y="294" on="1"/>
        <pt x="600" y="110" on="0"/>
        <pt x="880" y="110" on="1"/>
        <pt x="1144" y="110" on="0"/>
        <pt x="1320" y="278" on="1"/>
        <pt x="1488" y="438" on="0"/>
      </contour>
      <contour>
        <pt x="1602" y="354" on="1"/>
        <pt x="1496" y="180" on="0"/>
        <pt x="1122" y="-25" on="0"/>
        <pt x="869" y="-25" on="1"/>
        <pt x="518" y="-25" on="0"/>
        <pt x="282" y="158" on="1"/>
        <pt x="210" y="215" on="0"/>
        <pt x="151" y="294" on="1"/>
        <pt x="35" y="454" on="0"/>
        <pt x="35" y="637" on="1"/>
        <pt x="35" y="987" on="0"/>
        <pt x="274" y="1202" on="1"/>
        <pt x="510" y="1416" on="0"/>
        <pt x="876" y="1416" on="1"/>
        <pt x="1063" y="1416" on="0"/>
        <pt x="1390" y="1304" on="0"/>
        <pt x="1628" y="1090" on="0"/>
        <pt x="1678" y="947" on="1"/>
        <pt x="1710" y="856" on="0"/>
        <pt x="1710" y="750" on="1"/>
        <pt x="1710" y="532" on="0"/>
      </contour>
    </TTGlyph>
    <TTGlyph name="Otilde" xMin="45" yMin="-25" xMax="1720" yMax="1758">
      <component glyphName="tilde" x="372" y="392" flags="0x1004"/>
      <component glyphName="O" x="0" y="0" flags="0x1204"/>
    </TTGlyph>
    <TTGlyph name="P" xMin="86" yMin="0" xMax="1383" yMax="1404">
      <contour>
        <pt x="86" y="1315" on="1"/>
        <pt x="86" y="1336" on="0"/>
        <pt x="113" y="1367" on="0"/>
        <pt x="167" y="1386" on="0"/>
        <pt x="222" y="1398" on="0"/>
        <pt x="306" y="1403" on="0"/>
        <pt x="364" y="1404" on="0"/>
        <pt x="407" y="1404" on="1"/>
        <pt x="581" y="1404" on="1"/>
        <pt x="678" y="1404" on="0"/>
        <pt x="819" y="1400" on="0"/>
        <pt x="998" y="1383" on="0"/>
        <pt x="1123" y="1354" on="0"/>
        <pt x="1253" y="1300" on="0"/>
        <pt x="1333" y="1224" on="0"/>
        <pt x="1383" y="1111" on="0"/>
        <pt x="1383" y="1040" on="1"/>
        <pt x="1383" y="972" on="0"/>
        <pt x="1353" y="859" on="0"/>
        <pt x="1303" y="774" on="0"/>
        <pt x="1221" y="707" on="0"/>
        <pt x="1134" y="660" on="0"/>
        <pt x="1012" y="627" on="0"/>
        <pt x="900" y="608" on="0"/>
        <pt x="750" y="597" on="0"/>
        <pt x="625" y="594" on="0"/>
        <pt x="542" y="594" on="1"/>
        <pt x="479" y="594" on="1"/>
        <pt x="479" y="172" on="1"/>
        <pt x="479" y="153" on="0"/>
        <pt x="562" y="128" on="0"/>
        <pt x="645" y="105" on="0"/>
        <pt x="645" y="90" on="1"/>
        <pt x="645" y="57" on="0"/>
        <pt x="613" y="18" on="0"/>
        <pt x="528" y="3" on="0"/>
        <pt x="472" y="1" on="0"/>
        <pt x="405" y="1" on="1"/>
        <pt x="379" y="1" on="0"/>
        <pt x="366" y="1" on="1"/>
        <pt x="220" y="1" on="0"/>
        <pt x="188" y="5" on="1"/>
        <pt x="87" y="18" on="0"/>
        <pt x="86" y="80" on="1"/>
        <pt x="86" y="105" on="0"/>
        <pt x="138" y="128" on="0"/>
        <pt x="201" y="130" on="0"/>
        <pt x="253" y="150" on="0"/>
        <pt x="253" y="172" on="1"/>
        <pt x="253" y="1234" on="1"/>
        <pt x="253" y="1258" on="0"/>
        <pt x="170" y="1278" on="0"/>
        <pt x="86" y="1295" on="0"/>
      </contour>
      <contour>
        <pt x="1157" y="979" on="1"/>
        <pt x="1157" y="1285" on="0"/>
        <pt x="687" y="1285" on="1"/>
        <pt x="658" y="1285" on="0"/>
        <pt x="630" y="1285" on="0"/>
        <pt x="585" y="1283" on="0"/>
        <pt x="565" y="1279" on="0"/>
        <pt x="533" y="1272" on="0"/>
        <pt x="519" y="1262" on="0"/>
        <pt x="499" y="1247" on="0"/>
        <pt x="491" y="1226" on="0"/>
        <pt x="482" y="1199" on="0"/>
        <pt x="479" y="1164" on="0"/>
        <pt x="479" y="1143" on="1"/>
        <pt x="479" y="713" on="1"/>
        <pt x="515" y="710" on="0"/>
        <pt x="599" y="710" on="1"/>
        <pt x="682" y="710" on="0"/>
        <pt x="817" y="719" on="0"/>
        <pt x="948" y="741" on="0"/>
        <pt x="1044" y="781" on="0"/>
        <pt x="1119" y="839" on="0"/>
        <pt x="1157" y="924" on="0"/>
      </contour>
    </TTGlyph>
    <TTGlyph name="Q" xMin="35" yMin="-418" xMax="1710" yMax="1425">
      <contour>
        <pt x="35" y="646" on="1"/>
        <pt x="35" y="791" on="0"/>
        <pt x="119" y="1041" on="0"/>
        <pt x="272" y="1227" on="0"/>
        <pt x="481" y="1359" on="0"/>
        <pt x="735" y="1425" on="0"/>
        <pt x="876" y="1425" on="1"/>
        <pt x="1006" y="1425" on="0"/>
        <pt x="1249" y="1372" on="0"/>
        <pt x="1461" y="1262" on="0"/>
        <pt x="1619" y="1106" on="0"/>
        <pt x="1710" y="887" on="0"/>
        <pt x="1710" y="758" on="1"/>
        <pt x="1710" y="608" on="0"/>
        <pt x="1617" y="351" on="0"/>
        <pt x="1450" y="165" on="0"/>
        <pt x="1230" y="39" on="0"/>
        <pt x="1098" y="9" on="1"/>
        <pt x="1131" y="-26" on="0"/>
        <pt x="1156" y="-51" on="0"/>
        <pt x="1219" y="-111" on="0"/>
        <pt x="1262" y="-138" on="0"/>
        <pt x="1325" y="-174" on="0"/>
        <pt x="1389" y="-188" on="0"/>
        <pt x="1424" y="-188" on="1"/>
        <pt x="1507" y="-188" on="0"/>
        <pt x="1608" y="-148" on="1"/>
        <pt x="1624" y="-184" on="0"/>
        <pt x="1624" y="-222" on="1"/>
        <pt x="1624" y="-315" on="0"/>
        <pt x="1507" y="-418" on="0"/>
        <pt x="1409" y="-418" on="1"/>
        <pt x="1339" y="-418" on="0"/>
        <pt x="1182" y="-347" on="0"/>
        <pt x="1139" y="-295" on="1"/>
        <pt x="906" y="-15" on="1"/>
        <pt x="900" y="-15" on="0"/>
        <pt x="875" y="-16" on="0"/>
        <pt x="869" y="-16" on="1"/>
        <pt x="736" y="-16" on="0"/>
        <pt x="490" y="40" on="0"/>
        <pt x="280" y="152" on="0"/>
        <pt x="124" y="308" on="0"/>
        <pt x="35" y="522" on="0"/>
      </contour>
      <contour>
        <pt x="880" y="119" on="1"/>
        <pt x="1045" y="119" on="0"/>
        <pt x="1322" y="262" on="0"/>
        <pt x="1488" y="521" on="0"/>
        <pt x="1488" y="681" on="1"/>
        <pt x="1488" y="868" on="0"/>
        <pt x="1324" y="1152" on="0"/>
        <pt x="1033" y="1302" on="0"/>
        <pt x="846" y="1302" on="1"/>
        <pt x="676" y="1302" on="0"/>
        <pt x="406" y="1157" on="0"/>
        <pt x="254" y="892" on="0"/>
        <pt x="254" y="554" on="0"/>
        <pt x="421" y="276" on="0"/>
        <pt x="708" y="119" on="0"/>
      </contour>
    </TTGlyph>
    <TTGlyph name="R" xMin="86" yMin="-16" xMax="1556" yMax="1404">
      <contour>
        <pt x="1367" y="1028" on="1"/>
        <pt x="1367" y="957" on="0"/>
        <pt x="1318" y="837" on="0"/>
        <pt x="1239" y="754" on="0"/>
        <pt x="1127" y="688" on="0"/>
        <pt x="1011" y="648" on="0"/>
        <pt x="945" y="635" on="1"/>
        <pt x="997" y="563" on="1"/>
        <pt x="1018" y="534" on="0"/>
        <pt x="1088" y="434" on="0"/>
        <pt x="1129" y="377" on="0"/>
        <pt x="1193" y="294" on="0"/>
        <pt x="1243" y="237" on="0"/>
        <pt x="1309" y="174" on="0"/>
        <pt x="1342" y="149" on="1"/>
        <pt x="1402" y="103" on="0"/>
        <pt x="1539" y="103" on="1"/>
        <pt x="1556" y="86" on="0"/>
        <pt x="1556" y="63" on="1"/>
        <pt x="1556" y="-16" on="0"/>
        <pt x="1398" y="-16" on="1"/>
        <pt x="1223" y="-16" on="0"/>
        <pt x="1140" y="40" on="1"/>
        <pt x="1141" y="40" on="1"/>
        <pt x="1010" y="148" on="0"/>
        <pt x="838" y="467" on="1"/>
        <pt x="755" y="619" on="1"/>
        <pt x="478" y="619" on="1"/>
        <pt x="478" y="172" on="1"/>
        <pt x="478" y="154" on="0"/>
        <pt x="562" y="128" on="0"/>
        <pt x="646" y="105" on="0"/>
        <pt x="646" y="90" on="1"/>
        <pt x="646" y="57" on="0"/>
        <pt x="614" y="18" on="0"/>
        <pt x="529" y="3" on="0"/>
        <pt x="473" y="1" on="0"/>
        <pt x="406" y="1" on="1"/>
        <pt x="380" y="1" on="0"/>
        <pt x="367" y="1" on="1"/>
        <pt x="353" y="1" on="0"/>
        <pt x="326" y="1" on="1"/>
        <pt x="295" y="0" on="0"/>
        <pt x="235" y="1" on="0"/>
        <pt x="182" y="4" on="0"/>
        <pt x="137" y="15" on="0"/>
        <pt x="104" y="32" on="0"/>
        <pt x="86" y="60" on="0"/>
        <pt x="86" y="80" on="1"/>
        <pt x="86" y="105" on="0"/>
        <pt x="138" y="128" on="0"/>
        <pt x="202" y="130" on="0"/>
        <pt x="254" y="150" on="0"/>
        <pt x="254" y="172" on="1"/>
        <pt x="254" y="1234" on="1"/>
        <pt x="254" y="1258" on="0"/>
        <pt x="170" y="1278" on="0"/>
        <pt x="86" y="1295" on="0"/>
        <pt x="86" y="1315" on="1"/>
        <pt x="86" y="1336" on="0"/>
        <pt x="113" y="1367" on="0"/>
        <pt x="167" y="1386" on="0"/>
        <pt x="223" y="1398" on="0"/>
        <pt x="307" y="1403" on="0"/>
        <pt x="365" y="1404" on="0"/>
        <pt x="408" y="1404" on="1"/>
        <pt x="581" y="1404" on="1"/>
        <pt x="656" y="1404" on="0"/>
        <pt x="769" y="1402" on="0"/>
        <pt x="909" y="1393" on="0"/>
        <pt x="1013" y="1377" on="0"/>
        <pt x="1129" y="1349" on="0"/>
        <pt x="1211" y="1311" on="0"/>
        <pt x="1290" y="1254" on="0"/>
        <pt x="1338" y="1182" on="0"/>
        <pt x="1367" y="1086" on="0"/>
      </contour>
      <contour>
        <pt x="1142" y="986" on="1"/>
        <pt x="1142" y="1059" on="0"/>
        <pt x="1087" y="1169" on="0"/>
        <pt x="999" y="1233" on="0"/>
        <pt x="867" y="1272" on="0"/>
        <pt x="736" y="1285" on="0"/>
        <pt x="653" y="1285" on="1"/>
        <pt x="554" y="1285" on="0"/>
        <pt x="478" y="1231" on="0"/>
        <pt x="478" y="1143" on="1"/>
        <pt x="478" y="740" on="1"/>
        <pt x="748" y="740" on="1"/>
        <pt x="831" y="740" on="0"/>
        <pt x="967" y="765" on="0"/>
        <pt x="1080" y="820" on="0"/>
        <pt x="1142" y="919" on="0"/>
      </contour>
    </TTGlyph>
    <TTGlyph name="Racute" xMin="86" yMin="-16" xMax="1556" yMax="2136">
      <component glyphName="acute" x="704" y="432" flags="0x1004"/>
      <component glyphName="R" x="0" y="0" flags="0x1204"/>
    </TTGlyph>
    <TTGlyph name="Rcaron" xMin="86" yMin="-16" xMax="1556" yMax="1984">
      <component glyphName="caron" x="438" y="276" flags="0x1004"/>
      <component glyphName="R" x="0" y="0" flags="0x1204"/>
    </TTGlyph>
    <TTGlyph name="Rcommaaccent" xMin="86" yMin="-483" xMax="1556" yMax="1404">
      <component glyphName="uni0326" x="590" y="-363" flags="0x1004"/>
      <component glyphName="R" x="0" y="0" flags="0x1204"/>
    </TTGlyph>
    <TTGlyph name="S" xMin="45" yMin="-24" xMax="1254" yMax="1419">
      <contour>
        <pt x="621" y="1295" on="1"/>
        <pt x="563" y="1295" on="0"/>
        <pt x="454" y="1274" on="0"/>
        <pt x="361" y="1231" on="0"/>
        <pt x="304" y="1157" on="0"/>
        <pt x="304" y="1110" on="1"/>
        <pt x="304" y="1084" on="0"/>
        <pt x="324" y="1038" on="0"/>
        <pt x="362" y="998" on="0"/>
        <pt x="394" y="972" on="0"/>
        <pt x="417" y="957" on="1"/>
        <pt x="470" y="921" on="0"/>
        <pt x="600" y="863" on="0"/>
        <pt x="816" y="785" on="0"/>
        <pt x="830" y="780" on="1"/>
        <pt x="895" y="755" on="0"/>
        <pt x="995" y="709" on="0"/>
        <pt x="1118" y="631" on="0"/>
        <pt x="1198" y="547" on="0"/>
        <pt x="1254" y="426" on="0"/>
        <pt x="1254" y="358" on="1"/>
        <pt x="1254" y="265" on="0"/>
        <pt x="1153" y="115" on="0"/>
        <pt x="985" y="24" on="0"/>
        <pt x="783" y="-24" on="0"/>
        <pt x="675" y="-24" on="1"/>
        <pt x="590" y="-24" on="0"/>
        <pt x="421" y="-4" on="0"/>
        <pt x="252" y="45" on="0"/>
        <pt x="125" y="115" on="0"/>
        <pt x="45" y="225" on="0"/>
        <pt x="45" y="292" on="1"/>
        <pt x="45" y="350" on="0"/>
        <pt x="121" y="422" on="0"/>
        <pt x="188" y="422" on="1"/>
        <pt x="262" y="422" on="0"/>
        <pt x="341" y="324" on="0"/>
        <pt x="341" y="245" on="1"/>
        <pt x="341" y="214" on="0"/>
        <pt x="335" y="178" on="1"/>
        <pt x="487" y="100" on="0"/>
        <pt x="660" y="100" on="1"/>
        <pt x="736" y="100" on="0"/>
        <pt x="864" y="122" on="0"/>
        <pt x="978" y="171" on="0"/>
        <pt x="1044" y="265" on="0"/>
        <pt x="1044" y="330" on="1"/>
        <pt x="1044" y="467" on="0"/>
        <pt x="770" y="572" on="1"/>
        <pt x="724" y="589" on="0"/>
        <pt x="533" y="655" on="0"/>
        <pt x="392" y="711" on="0"/>
        <pt x="333" y="742" on="1"/>
        <pt x="90" y="870" on="0"/>
        <pt x="90" y="1063" on="1"/>
        <pt x="90" y="1154" on="0"/>
        <pt x="188" y="1296" on="0"/>
        <pt x="353" y="1378" on="0"/>
        <pt x="549" y="1419" on="0"/>
        <pt x="658" y="1419" on="1"/>
        <pt x="731" y="1419" on="0"/>
        <pt x="875" y="1403" on="0"/>
        <pt x="1024" y="1362" on="0"/>
        <pt x="1136" y="1301" on="0"/>
        <pt x="1207" y="1202" on="0"/>
        <pt x="1207" y="1140" on="1"/>
        <pt x="1207" y="1077" on="0"/>
        <pt x="1120" y="996" on="0"/>
        <pt x="1050" y="996" on="1"/>
        <pt x="992" y="996" on="0"/>
        <pt x="962" y="1002" on="1"/>
        <pt x="949" y="1178" on="0"/>
        <pt x="811" y="1295" on="0"/>
      </contour>
    </TTGlyph>
    <TTGlyph name="Sacute" xMin="45" yMin="-24" xMax="1254" yMax="2139">
      <component glyphName="acute" x="532" y="435" flags="0x1004"/>
      <component glyphName="S" x="0" y="0" flags="0x1204"/>
    </TTGlyph>
    <TTGlyph name="Scaron" xMin="45" yMin="-24" xMax="1254" yMax="1987">
      <component glyphName="caron" x="266" y="279" flags="0x1004"/>
      <component glyphName="S" x="0" y="0" flags="0x1204"/>
    </TTGlyph>
    <TTGlyph name="Scedilla" xMin="45" yMin="-490" xMax="1254" yMax="1419">
      <component glyphName="cedilla" x="336" y="-25" flags="0x1004"/>
      <component glyphName="S" x="0" y="0" flags="0x1204"/>
    </TTGlyph>
    <TTGlyph name="Scircumflex" xMin="45" yMin="-24" xMax="1254" yMax="1987">
      <component glyphName="circumflex" x="196" y="278" flags="0x1004"/>
      <component glyphName="S" x="0" y="0" flags="0x1204"/>
    </TTGlyph>
    <TTGlyph name="T" xMin="-50" yMin="-1" xMax="1263" yMax="1405">
      <contour>
        <pt x="619" y="0" on="1"/>
        <pt x="588" y="0" on="0"/>
        <pt x="555" y="0" on="0"/>
        <pt x="493" y="2" on="0"/>
        <pt x="456" y="7" on="0"/>
        <pt x="405" y="15" on="0"/>
        <pt x="374" y="29" on="0"/>
        <pt x="344" y="47" on="0"/>
        <pt x="330" y="74" on="0"/>
        <pt x="330" y="90" on="1"/>
        <pt x="330" y="115" on="0"/>
        <pt x="414" y="130" on="0"/>
        <pt x="498" y="146" on="0"/>
        <pt x="498" y="172" on="1"/>
        <pt x="498" y="1279" on="1"/>
        <pt x="205" y="1278" on="1"/>
        <pt x="179" y="1278" on="0"/>
        <pt x="131" y="1209" on="0"/>
        <pt x="100" y="1125" on="0"/>
        <pt x="53" y="1056" on="0"/>
        <pt x="28" y="1056" on="1"/>
        <pt x="-50" y="1056" on="0"/>
        <pt x="-50" y="1148" on="1"/>
        <pt x="-50" y="1276" on="0"/>
        <pt x="37" y="1405" on="0"/>
        <pt x="151" y="1405" on="1"/>
        <pt x="501" y="1405" on="1"/>
        <pt x="733" y="1405" on="1"/>
        <pt x="1050" y="1405" on="0"/>
        <pt x="1127" y="1403" on="1"/>
        <pt x="1165" y="1401" on="0"/>
        <pt x="1221" y="1351" on="0"/>
        <pt x="1250" y="1271" on="0"/>
        <pt x="1263" y="1187" on="0"/>
        <pt x="1263" y="1142" on="1"/>
        <pt x="1263" y="1056" on="0"/>
        <pt x="1185" y="1056" on="1"/>
        <pt x="1157" y="1056" on="0"/>
        <pt x="1113" y="1125" on="0"/>
        <pt x="1087" y="1209" on="0"/>
        <pt x="1039" y="1278" on="0"/>
        <pt x="1008" y="1278" on="1"/>
        <pt x="715" y="1279" on="1"/>
        <pt x="715" y="172" on="1"/>
        <pt x="715" y="157" on="0"/>
        <pt x="768" y="134" on="0"/>
        <pt x="833" y="123" on="0"/>
        <pt x="886" y="103" on="0"/>
        <pt x="886" y="90" on="1"/>
        <pt x="886" y="73" on="0"/>
        <pt x="875" y="47" on="0"/>
        <pt x="851" y="29" on="0"/>
        <pt x="827" y="15" on="0"/>
        <pt x="782" y="7" on="0"/>
        <pt x="750" y="2" on="0"/>
        <pt x="692" y="0" on="0"/>
        <pt x="659" y="0" on="0"/>
        <pt x="627" y="0" on="1"/>
        <pt x="622" y="0" on="0"/>
      </contour>
    </TTGlyph>
    <TTGlyph name="Tcaron" xMin="-50" yMin="0" xMax="1263" yMax="1984">
      <component glyphName="caron" x="223" y="276" flags="0x1004"/>
      <component glyphName="T" x="0" y="0" flags="0x1204"/>
    </TTGlyph>
    <TTGlyph name="Tcommaaccent" xMin="-50" yMin="-465" xMax="1263" yMax="1405">
      <component glyphName="cedilla" x="294" y="0" flags="0x1004"/>
      <component glyphName="T" x="0" y="0" flags="0x1204"/>
    </TTGlyph>
    <TTGlyph name="Thorn" xMin="73" yMin="1" xMax="1301" yMax="1403">
      <contour>
        <pt x="466" y="1154" on="1"/>
        <pt x="568" y="1154" on="1"/>
        <pt x="754" y="1154" on="0"/>
        <pt x="938" y="1138" on="0"/>
        <pt x="1046" y="1108" on="1"/>
        <pt x="1125" y="1086" on="0"/>
        <pt x="1178" y="1051" on="1"/>
        <pt x="1301" y="970" on="0"/>
        <pt x="1301" y="822" on="1"/>
        <pt x="1301" y="566" on="0"/>
        <pt x="1006" y="478" on="1"/>
        <pt x="823" y="424" on="0"/>
        <pt x="529" y="424" on="1"/>
        <pt x="466" y="424" on="1"/>
        <pt x="466" y="172" on="1"/>
        <pt x="466" y="142" on="0"/>
        <pt x="632" y="114" on="0"/>
        <pt x="632" y="90" on="1"/>
        <pt x="632" y="29" on="0"/>
        <pt x="556" y="12" on="1"/>
        <pt x="504" y="1" on="0"/>
        <pt x="353" y="1" on="1"/>
        <pt x="200" y="1" on="0"/>
        <pt x="156" y="10" on="1"/>
        <pt x="73" y="28" on="0"/>
        <pt x="73" y="80" on="1"/>
        <pt x="73" y="98" on="0"/>
        <pt x="102" y="121" on="0"/>
        <pt x="135" y="127" on="0"/>
        <pt x="186" y="133" on="0"/>
        <pt x="196" y="136" on="1"/>
        <pt x="240" y="148" on="0"/>
        <pt x="240" y="172" on="1"/>
        <pt x="240" y="1232" on="1"/>
        <pt x="240" y="1262" on="0"/>
        <pt x="156" y="1276" on="1"/>
        <pt x="73" y="1289" on="0"/>
        <pt x="73" y="1314" on="1"/>
        <pt x="73" y="1375" on="0"/>
        <pt x="150" y="1392" on="1"/>
        <pt x="202" y="1403" on="0"/>
        <pt x="353" y="1403" on="1"/>
        <pt x="506" y="1403" on="0"/>
        <pt x="550" y="1394" on="1"/>
        <pt x="632" y="1376" on="0"/>
        <pt x="632" y="1324" on="1"/>
        <pt x="632" y="1306" on="0"/>
        <pt x="603" y="1284" on="0"/>
        <pt x="569" y="1277" on="0"/>
        <pt x="519" y="1271" on="0"/>
        <pt x="509" y="1268" on="1"/>
        <pt x="466" y="1256" on="0"/>
        <pt x="466" y="1232" on="1"/>
      </contour>
      <contour>
        <pt x="466" y="543" on="1"/>
        <pt x="499" y="540" on="0"/>
        <pt x="537" y="540" on="1"/>
        <pt x="586" y="540" on="1"/>
        <pt x="937" y="540" on="0"/>
        <pt x="1037" y="676" on="1"/>
        <pt x="1075" y="728" on="0"/>
        <pt x="1075" y="804" on="1"/>
        <pt x="1075" y="939" on="0"/>
        <pt x="936" y="994" on="1"/>
        <pt x="832" y="1035" on="0"/>
        <pt x="634" y="1035" on="1"/>
        <pt x="552" y="1035" on="1"/>
        <pt x="475" y="1035" on="0"/>
        <pt x="466" y="1023" on="1"/>
      </contour>
    </TTGlyph>
    <TTGlyph name="U" xMin="-15" yMin="-21" xMax="1745" yMax="1405">
      <contour>
        <pt x="253" y="1404" on="1"/>
        <pt x="300" y="1404" on="0"/>
        <pt x="353" y="1403" on="0"/>
        <pt x="432" y="1398" on="0"/>
        <pt x="477" y="1387" on="0"/>
        <pt x="524" y="1368" on="0"/>
        <pt x="545" y="1336" on="0"/>
        <pt x="545" y="1294" on="0"/>
        <pt x="461" y="1274" on="0"/>
        <pt x="377" y="1254" on="0"/>
        <pt x="377" y="1234" on="1"/>
        <pt x="377" y="449" on="1"/>
        <pt x="377" y="354" on="0"/>
        <pt x="517" y="203" on="0"/>
        <pt x="741" y="123" on="0"/>
        <pt x="870" y="123" on="1"/>
        <pt x="969" y="123" on="0"/>
        <pt x="1147" y="165" on="0"/>
        <pt x="1291" y="245" on="0"/>
        <pt x="1375" y="378" on="0"/>
        <pt x="1375" y="462" on="1"/>
        <pt x="1375" y="1234" on="1"/>
        <pt x="1375" y="1257" on="0"/>
        <pt x="1292" y="1278" on="0"/>
        <pt x="1208" y="1296" on="0"/>
        <pt x="1208" y="1315" on="1"/>
        <pt x="1208" y="1331" on="0"/>
        <pt x="1217" y="1358" on="0"/>
        <pt x="1239" y="1376" on="0"/>
        <pt x="1260" y="1390" on="0"/>
        <pt x="1299" y="1398" on="0"/>
        <pt x="1325" y="1403" on="0"/>
        <pt x="1377" y="1404" on="0"/>
        <pt x="1403" y="1405" on="0"/>
        <pt x="1461" y="1404" on="0"/>
        <pt x="1472" y="1404" on="1"/>
        <pt x="1514" y="1404" on="0"/>
        <pt x="1567" y="1403" on="0"/>
        <pt x="1638" y="1398" on="0"/>
        <pt x="1682" y="1386" on="0"/>
        <pt x="1725" y="1367" on="0"/>
        <pt x="1745" y="1336" on="0"/>
        <pt x="1745" y="1294" on="0"/>
        <pt x="1661" y="1274" on="0"/>
        <pt x="1577" y="1254" on="0"/>
        <pt x="1577" y="1234" on="1"/>
        <pt x="1577" y="441" on="1"/>
        <pt x="1577" y="350" on="0"/>
        <pt x="1497" y="197" on="0"/>
        <pt x="1363" y="90" on="0"/>
        <pt x="1184" y="14" on="0"/>
        <pt x="988" y="-21" on="0"/>
        <pt x="886" y="-21" on="1"/>
        <pt x="779" y="-21" on="0"/>
        <pt x="575" y="12" on="0"/>
        <pt x="386" y="86" on="0"/>
        <pt x="243" y="192" on="0"/>
        <pt x="158" y="352" on="0"/>
        <pt x="158" y="448" on="1"/>
        <pt x="158" y="1234" on="1"/>
        <pt x="158" y="1257" on="0"/>
        <pt x="72" y="1278" on="0"/>
        <pt x="-15" y="1296" on="0"/>
        <pt x="-15" y="1315" on="1"/>
        <pt x="-15" y="1331" on="0"/>
        <pt x="-4" y="1357" on="0"/>
        <pt x="21" y="1376" on="0"/>
        <pt x="45" y="1389" on="0"/>
        <pt x="90" y="1397" on="0"/>
        <pt x="121" y="1402" on="0"/>
        <pt x="180" y="1404" on="0"/>
        <pt x="212" y="1404" on="0"/>
        <pt x="245" y="1404" on="1"/>
        <pt x="250" y="1404" on="0"/>
      </contour>
    </TTGlyph>
    <TTGlyph name="Uacute" xMin="-15" yMin="-21" xMax="1745" yMax="2136">
      <component glyphName="acute" x="748" y="432" flags="0x1004"/>
      <component glyphName="U" x="0" y="0" flags="0x1204"/>
    </TTGlyph>
    <TTGlyph name="Ubreve" xMin="-15" yMin="-21" xMax="1745" yMax="1895">
      <component glyphName="breve" x="354" y="1478" flags="0x1004"/>
      <component glyphName="U" x="0" y="0" flags="0x1204"/>
    </TTGlyph>
    <TTGlyph name="Ucircumflex" xMin="-15" yMin="-21" xMax="1745" yMax="1984">
      <component glyphName="circumflex" x="412" y="275" flags="0x1004"/>
      <component glyphName="U" x="0" y="0" flags="0x1204"/>
    </TTGlyph>
    <TTGlyph name="Udieresis" xMin="-15" yMin="-21" xMax="1745" yMax="1759">
      <component glyphName="dieresis" x="354" y="172" flags="0x1004"/>
      <component glyphName="U" x="0" y="0" flags="0x1204"/>
    </TTGlyph>
    <TTGlyph name="Ugrave" xMin="-15" yMin="-21" xMax="1745" yMax="2136">
      <component glyphName="grave" x="446" y="432" flags="0x1004"/>
      <component glyphName="U" x="0" y="0" flags="0x1204"/>
    </TTGlyph>
    <TTGlyph name="Uhungarumlaut" xMin="-15" yMin="-21" xMax="1745" yMax="2136">
      <component glyphName="hungarumlaut" x="582" y="432" flags="0x1004"/>
      <component glyphName="U" x="0" y="0" flags="0x1204"/>
    </TTGlyph>
    <TTGlyph name="Umacron" xMin="-15" yMin="-21" xMax="1745" yMax="1664">
      <component glyphName="macron" x="436" y="1291" flags="0x1004"/>
      <component glyphName="U" x="0" y="0" flags="0x1204"/>
    </TTGlyph>
    <TTGlyph name="Uogonek" xMin="-15" yMin="-476" xMax="1745" yMax="1404">
      <component glyphName="ogonek" x="524" y="-30" flags="0x1004"/>
      <component glyphName="U" x="0" y="0" flags="0x1204"/>
    </TTGlyph>
    <TTGlyph name="Uring" xMin="-15" yMin="-21" xMax="1745" yMax="1928">
      <component glyphName="ring" x="514" y="475" flags="0x1004"/>
      <component glyphName="U" x="0" y="0" flags="0x1204"/>
    </TTGlyph>
    <TTGlyph name="Utilde" xMin="-15" yMin="-21" xMax="1745" yMax="1758">
      <component glyphName="tilde" x="354" y="392" flags="0x1004"/>
      <component glyphName="U" x="0" y="0" flags="0x1204"/>
    </TTGlyph>
    <TTGlyph name="V" xMin="-77" yMin="-18" xMax="1681" yMax="1405">
      <contour>
        <pt x="1681" y="1343" on="1"/>
        <pt x="1681" y="1293" on="0"/>
        <pt x="1596" y="1280" on="1"/>
        <pt x="1499" y="1264" on="0"/>
        <pt x="1469" y="1228" on="1"/>
        <pt x="986" y="133" on="1"/>
        <pt x="952" y="57" on="0"/>
        <pt x="873" y="-18" on="0"/>
        <pt x="812" y="-18" on="1"/>
        <pt x="765" y="-18" on="0"/>
        <pt x="680" y="59" on="0"/>
        <pt x="634" y="159" on="1"/>
        <pt x="152" y="1228" on="1"/>
        <pt x="143" y="1239" on="0"/>
        <pt x="25" y="1273" on="0"/>
        <pt x="-77" y="1317" on="0"/>
        <pt x="-77" y="1343" on="1"/>
        <pt x="-77" y="1358" on="0"/>
        <pt x="-56" y="1380" on="0"/>
        <pt x="-11" y="1392" on="0"/>
        <pt x="30" y="1400" on="0"/>
        <pt x="101" y="1403" on="0"/>
        <pt x="141" y="1404" on="0"/>
        <pt x="177" y="1404" on="1"/>
        <pt x="184" y="1404" on="0"/>
        <pt x="187" y="1404" on="1"/>
        <pt x="198" y="1404" on="0"/>
        <pt x="220" y="1404" on="1"/>
        <pt x="249" y="1404" on="0"/>
        <pt x="305" y="1404" on="0"/>
        <pt x="358" y="1401" on="0"/>
        <pt x="405" y="1395" on="0"/>
        <pt x="446" y="1381" on="0"/>
        <pt x="477" y="1363" on="0"/>
        <pt x="498" y="1333" on="0"/>
        <pt x="501" y="1314" on="1"/>
        <pt x="499" y="1300" on="0"/>
        <pt x="466" y="1282" on="0"/>
        <pt x="448" y="1282" on="1"/>
        <pt x="446" y="1281" on="0"/>
        <pt x="417" y="1275" on="0"/>
        <pt x="400" y="1270" on="0"/>
        <pt x="377" y="1261" on="0"/>
        <pt x="366" y="1249" on="0"/>
        <pt x="366" y="1242" on="1"/>
        <pt x="850" y="163" on="1"/>
        <pt x="900" y="294" on="0"/>
        <pt x="1101" y="769" on="0"/>
        <pt x="1176" y="942" on="1"/>
        <pt x="1251" y="1114" on="1"/>
        <pt x="1302" y="1233" on="0"/>
        <pt x="1302" y="1244" on="1"/>
        <pt x="1302" y="1263" on="0"/>
        <pt x="1220" y="1278" on="0"/>
        <pt x="1138" y="1294" on="0"/>
        <pt x="1138" y="1314" on="1"/>
        <pt x="1138" y="1339" on="0"/>
        <pt x="1171" y="1374" on="0"/>
        <pt x="1217" y="1392" on="0"/>
        <pt x="1296" y="1402" on="0"/>
        <pt x="1357" y="1404" on="0"/>
        <pt x="1403" y="1404" on="1"/>
        <pt x="1418" y="1404" on="0"/>
        <pt x="1490" y="1405" on="0"/>
        <pt x="1530" y="1405" on="0"/>
        <pt x="1592" y="1402" on="0"/>
        <pt x="1627" y="1394" on="0"/>
        <pt x="1664" y="1381" on="0"/>
        <pt x="1681" y="1359" on="0"/>
      </contour>
    </TTGlyph>
    <TTGlyph name="W" xMin="-77" yMin="-18" xMax="2577" yMax="1405">
      <contour>
        <pt x="1594" y="1343" on="1"/>
        <pt x="1594" y="1315" on="0"/>
        <pt x="1547" y="1284" on="0"/>
        <pt x="1515" y="1284" on="1"/>
        <pt x="1407" y="1257" on="0"/>
        <pt x="1383" y="1233" on="1"/>
        <pt x="1365" y="1189" on="1"/>
        <pt x="1786" y="162" on="1"/>
        <pt x="2060" y="878" on="0"/>
        <pt x="2198" y="1235" on="1"/>
        <pt x="2198" y="1262" on="0"/>
        <pt x="2117" y="1279" on="0"/>
        <pt x="2036" y="1291" on="0"/>
        <pt x="2036" y="1314" on="1"/>
        <pt x="2036" y="1332" on="0"/>
        <pt x="2053" y="1361" on="0"/>
        <pt x="2079" y="1379" on="0"/>
        <pt x="2123" y="1393" on="0"/>
        <pt x="2163" y="1399" on="0"/>
        <pt x="2223" y="1403" on="0"/>
        <pt x="2266" y="1404" on="0"/>
        <pt x="2299" y="1404" on="1"/>
        <pt x="2337" y="1404" on="0"/>
        <pt x="2387" y="1403" on="0"/>
        <pt x="2460" y="1400" on="0"/>
        <pt x="2507" y="1391" on="0"/>
        <pt x="2554" y="1379" on="0"/>
        <pt x="2577" y="1357" on="0"/>
        <pt x="2577" y="1343" on="1"/>
        <pt x="2577" y="1316" on="0"/>
        <pt x="2532" y="1284" on="0"/>
        <pt x="2501" y="1284" on="1"/>
        <pt x="2386" y="1258" on="0"/>
        <pt x="2364" y="1232" on="1"/>
        <pt x="1922" y="132" on="1"/>
        <pt x="1898" y="73" on="0"/>
        <pt x="1813" y="-18" on="0"/>
        <pt x="1764" y="-18" on="1"/>
        <pt x="1689" y="-18" on="0"/>
        <pt x="1606" y="72" on="0"/>
        <pt x="1570" y="159" on="1"/>
        <pt x="1256" y="918" on="1"/>
        <pt x="940" y="132" on="1"/>
        <pt x="880" y="-18" on="0"/>
        <pt x="771" y="-18" on="1"/>
        <pt x="735" y="-18" on="0"/>
        <pt x="680" y="9" on="0"/>
        <pt x="637" y="65" on="0"/>
        <pt x="610" y="117" on="0"/>
        <pt x="592" y="159" on="1"/>
        <pt x="145" y="1229" on="1"/>
        <pt x="132" y="1245" on="0"/>
        <pt x="55" y="1270" on="0"/>
        <pt x="-18" y="1284" on="0"/>
        <pt x="-77" y="1317" on="0"/>
        <pt x="-77" y="1343" on="1"/>
        <pt x="-77" y="1358" on="0"/>
        <pt x="-55" y="1380" on="0"/>
        <pt x="-7" y="1392" on="0"/>
        <pt x="36" y="1400" on="0"/>
        <pt x="111" y="1403" on="0"/>
        <pt x="153" y="1404" on="0"/>
        <pt x="192" y="1404" on="1"/>
        <pt x="199" y="1404" on="0"/>
        <pt x="202" y="1404" on="1"/>
        <pt x="242" y="1404" on="0"/>
        <pt x="300" y="1402" on="0"/>
        <pt x="374" y="1397" on="0"/>
        <pt x="424" y="1385" on="0"/>
        <pt x="472" y="1366" on="0"/>
        <pt x="498" y="1335" on="0"/>
        <pt x="500" y="1314" on="1"/>
        <pt x="498" y="1301" on="0"/>
        <pt x="430" y="1281" on="0"/>
        <pt x="365" y="1259" on="0"/>
        <pt x="365" y="1242" on="1"/>
        <pt x="807" y="162" on="1"/>
        <pt x="1174" y="1118" on="1"/>
        <pt x="1129" y="1227" on="1"/>
        <pt x="1122" y="1236" on="0"/>
        <pt x="1098" y="1252" on="0"/>
        <pt x="1058" y="1265" on="0"/>
        <pt x="1036" y="1272" on="0"/>
        <pt x="985" y="1284" on="0"/>
        <pt x="984" y="1284" on="1"/>
        <pt x="938" y="1292" on="0"/>
        <pt x="908" y="1315" on="0"/>
        <pt x="908" y="1348" on="1"/>
        <pt x="908" y="1384" on="0"/>
        <pt x="1065" y="1403" on="0"/>
        <pt x="1248" y="1403" on="1"/>
        <pt x="1313" y="1403" on="0"/>
        <pt x="1382" y="1402" on="0"/>
        <pt x="1476" y="1399" on="0"/>
        <pt x="1524" y="1391" on="0"/>
        <pt x="1574" y="1378" on="0"/>
        <pt x="1594" y="1357" on="0"/>
      </contour>
    </TTGlyph>
    <TTGlyph name="Wcircumflex" xMin="-77" yMin="-18" xMax="2577" yMax="1984">
      <component glyphName="circumflex" x="797" y="275" flags="0x1004"/>
      <component glyphName="W" x="0" y="0" flags="0x1204"/>
    </TTGlyph>
    <TTGlyph name="X" xMin="122" yMin="-1" xMax="1763" yMax="1404">
      <contour>
        <pt x="650" y="1233" on="1"/>
        <pt x="650" y="1212" on="0"/>
        <pt x="691" y="1173" on="1"/>
        <pt x="975" y="851" on="1"/>
        <pt x="1278" y="1170" on="1"/>
        <pt x="1305" y="1201" on="0"/>
        <pt x="1305" y="1222" on="1"/>
        <pt x="1305" y="1246" on="0"/>
        <pt x="1247" y="1252" on="1"/>
        <pt x="1169" y="1264" on="0"/>
        <pt x="1164" y="1300" on="1"/>
        <pt x="1159" y="1334" on="0"/>
        <pt x="1227" y="1363" on="1"/>
        <pt x="1323" y="1404" on="0"/>
        <pt x="1504" y="1404" on="1"/>
        <pt x="1704" y="1404" on="0"/>
        <pt x="1704" y="1293" on="1"/>
        <pt x="1704" y="1270" on="0"/>
        <pt x="1655" y="1252" on="0"/>
        <pt x="1586" y="1250" on="0"/>
        <pt x="1491" y="1210" on="0"/>
        <pt x="1456" y="1170" on="1"/>
        <pt x="1061" y="754" on="1"/>
        <pt x="1511" y="261" on="1"/>
        <pt x="1530" y="234" on="0"/>
        <pt x="1618" y="188" on="0"/>
        <pt x="1699" y="160" on="0"/>
        <pt x="1763" y="114" on="0"/>
        <pt x="1763" y="86" on="1"/>
        <pt x="1763" y="65" on="0"/>
        <pt x="1754" y="35" on="0"/>
        <pt x="1723" y="16" on="0"/>
        <pt x="1697" y="6" on="0"/>
        <pt x="1630" y="1" on="0"/>
        <pt x="1583" y="0" on="0"/>
        <pt x="1531" y="0" on="1"/>
        <pt x="1483" y="0" on="0"/>
        <pt x="1429" y="1" on="0"/>
        <pt x="1336" y="5" on="0"/>
        <pt x="1281" y="17" on="0"/>
        <pt x="1222" y="36" on="0"/>
        <pt x="1194" y="68" on="0"/>
        <pt x="1194" y="90" on="1"/>
        <pt x="1194" y="117" on="0"/>
        <pt x="1226" y="150" on="0"/>
        <pt x="1262" y="162" on="0"/>
        <pt x="1289" y="177" on="0"/>
        <pt x="1281" y="211" on="0"/>
        <pt x="1253" y="243" on="1"/>
        <pt x="928" y="607" on="1"/>
        <pt x="579" y="215" on="1"/>
        <pt x="554" y="187" on="0"/>
        <pt x="550" y="154" on="0"/>
        <pt x="581" y="139" on="0"/>
        <pt x="619" y="128" on="0"/>
        <pt x="651" y="104" on="0"/>
        <pt x="651" y="84" on="1"/>
        <pt x="651" y="53" on="0"/>
        <pt x="623" y="17" on="0"/>
        <pt x="531" y="2" on="0"/>
        <pt x="466" y="0" on="0"/>
        <pt x="376" y="0" on="1"/>
        <pt x="363" y="0" on="0"/>
        <pt x="348" y="0" on="0"/>
        <pt x="324" y="0" on="0"/>
        <pt x="314" y="0" on="1"/>
        <pt x="218" y="0" on="0"/>
        <pt x="122" y="40" on="0"/>
        <pt x="122" y="96" on="1"/>
        <pt x="122" y="116" on="0"/>
        <pt x="156" y="133" on="0"/>
        <pt x="215" y="139" on="0"/>
        <pt x="282" y="148" on="0"/>
        <pt x="361" y="183" on="0"/>
        <pt x="391" y="215" on="1"/>
        <pt x="848" y="695" on="1"/>
        <pt x="414" y="1159" on="1"/>
        <pt x="384" y="1191" on="0"/>
        <pt x="284" y="1232" on="0"/>
        <pt x="201" y="1246" on="0"/>
        <pt x="139" y="1272" on="0"/>
        <pt x="139" y="1291" on="1"/>
        <pt x="139" y="1329" on="0"/>
        <pt x="177" y="1375" on="0"/>
        <pt x="296" y="1404" on="0"/>
        <pt x="402" y="1404" on="1"/>
        <pt x="444" y="1404" on="0"/>
        <pt x="494" y="1403" on="0"/>
        <pt x="587" y="1399" on="0"/>
        <pt x="646" y="1390" on="0"/>
        <pt x="710" y="1374" on="0"/>
        <pt x="742" y="1347" on="0"/>
        <pt x="742" y="1329" on="1"/>
        <pt x="742" y="1299" on="0"/>
        <pt x="696" y="1256" on="0"/>
        <pt x="650" y="1235" on="0"/>
      </contour>
    </TTGlyph>
    <TTGlyph name="Y" xMin="-69" yMin="1" xMax="1507" yMax="1404">
      <contour>
        <pt x="825" y="172" on="1"/>
        <pt x="825" y="153" on="0"/>
        <pt x="909" y="129" on="0"/>
        <pt x="993" y="107" on="0"/>
        <pt x="993" y="90" on="1"/>
        <pt x="993" y="60" on="0"/>
        <pt x="951" y="21" on="0"/>
        <pt x="870" y="4" on="0"/>
        <pt x="786" y="-1" on="0"/>
        <pt x="728" y="1" on="1"/>
        <pt x="562" y="1" on="0"/>
        <pt x="507" y="17" on="1"/>
        <pt x="437" y="39" on="0"/>
        <pt x="436" y="90" on="1"/>
        <pt x="436" y="109" on="0"/>
        <pt x="490" y="128" on="0"/>
        <pt x="554" y="132" on="0"/>
        <pt x="608" y="152" on="0"/>
        <pt x="608" y="172" on="1"/>
        <pt x="608" y="558" on="1"/>
        <pt x="472" y="740" on="1"/>
        <pt x="444" y="778" on="0"/>
        <pt x="328" y="935" on="0"/>
        <pt x="256" y="1032" on="0"/>
        <pt x="155" y="1165" on="0"/>
        <pt x="113" y="1218" on="1"/>
        <pt x="104" y="1230" on="0"/>
        <pt x="10" y="1253" on="0"/>
        <pt x="-69" y="1285" on="0"/>
        <pt x="-69" y="1312" on="1"/>
        <pt x="-69" y="1404" on="0"/>
        <pt x="179" y="1404" on="1"/>
        <pt x="246" y="1404" on="1"/>
        <pt x="506" y="1404" on="0"/>
        <pt x="506" y="1288" on="1"/>
        <pt x="506" y="1268" on="0"/>
        <pt x="410" y="1256" on="1"/>
        <pt x="401" y="1255" on="0"/>
        <pt x="397" y="1254" on="1"/>
        <pt x="359" y="1249" on="1"/>
        <pt x="358" y="1240" on="1"/>
        <pt x="756" y="713" on="1"/>
        <pt x="1128" y="1194" on="1"/>
        <pt x="1155" y="1225" on="0"/>
        <pt x="1169" y="1252" on="1"/>
        <pt x="1117" y="1252" on="0"/>
        <pt x="1022" y="1269" on="0"/>
        <pt x="1022" y="1288" on="1"/>
        <pt x="1022" y="1340" on="0"/>
        <pt x="1162" y="1404" on="0"/>
        <pt x="1254" y="1404" on="1"/>
        <pt x="1507" y="1404" on="0"/>
        <pt x="1507" y="1319" on="1"/>
        <pt x="1507" y="1290" on="0"/>
        <pt x="1437" y="1252" on="0"/>
        <pt x="1345" y="1227" on="0"/>
        <pt x="1335" y="1220" on="1"/>
        <pt x="825" y="558" on="1"/>
      </contour>
    </TTGlyph>
    <TTGlyph name="Yacute" xMin="-69" yMin="1" xMax="1507" yMax="2136">
      <component glyphName="acute" x="602" y="432" flags="0x1004"/>
      <component glyphName="Y" x="0" y="0" flags="0x1204"/>
    </TTGlyph>
    <TTGlyph name="Ycircumflex" xMin="-69" yMin="1" xMax="1507" yMax="1984">
      <component glyphName="circumflex" x="266" y="275" flags="0x1004"/>
      <component glyphName="Y" x="0" y="0" flags="0x1204"/>
    </TTGlyph>
    <TTGlyph name="Ydieresis" xMin="-69" yMin="1" xMax="1507" yMax="1759">
      <component glyphName="dieresis" x="208" y="172" flags="0x1004"/>
      <component glyphName="Y" x="0" y="0" flags="0x1204"/>
    </TTGlyph>
    <TTGlyph name="Z" xMin="74" yMin="-1" xMax="1417" yMax="1405">
      <contour>
        <pt x="1417" y="303" on="1"/>
        <pt x="1417" y="243" on="0"/>
        <pt x="1371" y="104" on="0"/>
        <pt x="1284" y="0" on="0"/>
        <pt x="1234" y="0" on="1"/>
        <pt x="157" y="-1" on="1"/>
        <pt x="81" y="-1" on="0"/>
        <pt x="81" y="50" on="1"/>
        <pt x="81" y="77" on="0"/>
        <pt x="118" y="136" on="1"/>
        <pt x="183" y="238" on="0"/>
        <pt x="355" y="446" on="1"/>
        <pt x="483" y="601" on="0"/>
        <pt x="983" y="1160" on="0"/>
        <pt x="1077" y="1269" on="1"/>
        <pt x="981" y="1285" on="0"/>
        <pt x="796" y="1285" on="1"/>
        <pt x="300" y="1283" on="1"/>
        <pt x="295" y="1239" on="1"/>
        <pt x="289" y="1190" on="0"/>
        <pt x="255" y="1089" on="0"/>
        <pt x="187" y="1004" on="0"/>
        <pt x="146" y="1004" on="1"/>
        <pt x="112" y="1004" on="0"/>
        <pt x="74" y="1058" on="0"/>
        <pt x="74" y="1096" on="1"/>
        <pt x="74" y="1190" on="0"/>
        <pt x="110" y="1309" on="0"/>
        <pt x="194" y="1377" on="0"/>
        <pt x="312" y="1403" on="0"/>
        <pt x="405" y="1403" on="1"/>
        <pt x="1098" y="1405" on="1"/>
        <pt x="1269" y="1405" on="0"/>
        <pt x="1353" y="1390" on="1"/>
        <pt x="1352" y="1391" on="1"/>
        <pt x="1376" y="1376" on="0"/>
        <pt x="1376" y="1351" on="1"/>
        <pt x="1376" y="1325" on="0"/>
        <pt x="1352" y="1286" on="1"/>
        <pt x="1315" y="1228" on="0"/>
        <pt x="1201" y="1079" on="0"/>
        <pt x="1137" y="1001" on="0"/>
        <pt x="1061" y="911" on="1"/>
        <pt x="805" y="604" on="0"/>
        <pt x="529" y="300" on="1"/>
        <pt x="422" y="182" on="0"/>
        <pt x="375" y="141" on="1"/>
        <pt x="431" y="121" on="0"/>
        <pt x="738" y="121" on="1"/>
        <pt x="1010" y="121" on="0"/>
        <pt x="1174" y="130" on="1"/>
        <pt x="1213" y="177" on="0"/>
        <pt x="1285" y="320" on="1"/>
        <pt x="1323" y="385" on="0"/>
        <pt x="1338" y="385" on="1"/>
        <pt x="1372" y="385" on="0"/>
        <pt x="1417" y="337" on="0"/>
      </contour>
    </TTGlyph>
    <TTGlyph name="Zacute" xMin="74" yMin="-1" xMax="1417" yMax="2136">
      <component glyphName="acute" x="628" y="432" flags="0x1004"/>
      <component glyphName="Z" x="0" y="0" flags="0x1204"/>
    </TTGlyph>
    <TTGlyph name="Zcaron" xMin="74" yMin="-1" xMax="1417" yMax="1984">
      <component glyphName="caron" x="362" y="276" flags="0x1004"/>
      <component glyphName="Z" x="0" y="0" flags="0x1204"/>
    </TTGlyph>
    <TTGlyph name="Zdotaccent" xMin="74" yMin="-1" xMax="1417" yMax="1771">
      <component glyphName="dotaccent" x="506" y="1307" flags="0x1004"/>
      <component glyphName="Z" x="0" y="0" flags="0x1204"/>
    </TTGlyph>
    <TTGlyph name="a" xMin="62" yMin="-24" xMax="1085" yMax="976">
      <contour>
        <pt x="107" y="737" on="1"/>
        <pt x="107" y="788" on="0"/>
        <pt x="161" y="872" on="0"/>
        <pt x="247" y="925" on="0"/>
        <pt x="361" y="961" on="0"/>
        <pt x="472" y="976" on="0"/>
        <pt x="528" y="976" on="1"/>
        <pt x="730" y="976" on="0"/>
        <pt x="913" y="797" on="0"/>
        <pt x="913" y="591" on="1"/>
        <pt x="912" y="296" on="1"/>
        <pt x="912" y="189" on="0"/>
        <pt x="939" y="162" on="1"/>
        <pt x="946" y="155" on="0"/>
        <pt x="1020" y="132" on="0"/>
        <pt x="1085" y="106" on="0"/>
        <pt x="1085" y="95" on="1"/>
        <pt x="1085" y="-10" on="0"/>
        <pt x="870" y="-10" on="1"/>
        <pt x="789" y="-10" on="0"/>
        <pt x="740" y="62" on="0"/>
        <pt x="738" y="157" on="1"/>
        <pt x="693" y="76" on="0"/>
        <pt x="509" y="-24" on="0"/>
        <pt x="392" y="-24" on="1"/>
        <pt x="299" y="-24" on="0"/>
        <pt x="153" y="30" on="0"/>
        <pt x="62" y="151" on="0"/>
        <pt x="62" y="238" on="1"/>
        <pt x="62" y="291" on="0"/>
        <pt x="94" y="376" on="0"/>
        <pt x="142" y="434" on="0"/>
        <pt x="225" y="480" on="0"/>
        <pt x="297" y="507" on="0"/>
        <pt x="410" y="529" on="0"/>
        <pt x="487" y="540" on="0"/>
        <pt x="548" y="547" on="1"/>
        <pt x="552" y="547" on="0"/>
        <pt x="556" y="548" on="0"/>
        <pt x="563" y="549" on="0"/>
        <pt x="566" y="549" on="1"/>
        <pt x="685" y="562" on="0"/>
        <pt x="721" y="582" on="1"/>
        <pt x="721" y="643" on="0"/>
        <pt x="713" y="728" on="0"/>
        <pt x="690" y="807" on="0"/>
        <pt x="649" y="853" on="0"/>
        <pt x="581" y="880" on="0"/>
        <pt x="532" y="880" on="1"/>
        <pt x="419" y="880" on="0"/>
        <pt x="316" y="775" on="0"/>
        <pt x="316" y="661" on="1"/>
        <pt x="317" y="639" on="1"/>
        <pt x="275" y="634" on="0"/>
        <pt x="257" y="634" on="1"/>
        <pt x="200" y="634" on="0"/>
        <pt x="107" y="693" on="0"/>
      </contour>
      <contour>
        <pt x="721" y="492" on="1"/>
        <pt x="683" y="478" on="0"/>
        <pt x="572" y="458" on="0"/>
        <pt x="482" y="448" on="0"/>
        <pt x="384" y="422" on="0"/>
        <pt x="318" y="384" on="0"/>
        <pt x="275" y="307" on="0"/>
        <pt x="275" y="252" on="1"/>
        <pt x="275" y="80" on="0"/>
        <pt x="475" y="80" on="1"/>
        <pt x="536" y="80" on="0"/>
        <pt x="626" y="122" on="0"/>
        <pt x="679" y="190" on="0"/>
        <pt x="710" y="300" on="0"/>
        <pt x="721" y="415" on="0"/>
      </contour>
    </TTGlyph>
    <TTGlyph name="aacute" xMin="62" yMin="-24" xMax="1085" yMax="1696">
      <component glyphName="acute" x="456" y="-8" flags="0x1004"/>
      <component glyphName="a" x="0" y="0" flags="0x1204"/>
    </TTGlyph>
    <TTGlyph name="abreve" xMin="62" yMin="-24" xMax="1085" yMax="1455">
      <component glyphName="breve" x="62" y="1038" flags="0x1004"/>
      <component glyphName="a" x="0" y="0" flags="0x1204"/>
    </TTGlyph>
    <TTGlyph name="acircumflex" xMin="62" yMin="-24" xMax="1085" yMax="1544">
      <component glyphName="circumflex" x="87" y="-165" flags="0x1004"/>
      <component glyphName="a" x="0" y="0" flags="0x1204"/>
    </TTGlyph>
    <TTGlyph name="acute" xMin="110" yMin="1106" xMax="496" yMax="1704">
      <contour>
        <pt x="363" y="1704" on="1"/>
        <pt x="422" y="1704" on="0"/>
        <pt x="496" y="1648" on="0"/>
        <pt x="496" y="1546" on="0"/>
        <pt x="333" y="1335" on="1"/>
        <pt x="240" y="1214" on="0"/>
        <pt x="189" y="1163" on="1"/>
        <pt x="140" y="1114" on="0"/>
        <pt x="124" y="1106" on="1"/>
        <pt x="110" y="1120" on="1"/>
        <pt x="110" y="1125" on="1"/>
        <pt x="110" y="1171" on="0"/>
        <pt x="161" y="1336" on="1"/>
        <pt x="237" y="1582" on="0"/>
        <pt x="247" y="1611" on="1"/>
        <pt x="258" y="1643" on="0"/>
        <pt x="327" y="1704" on="0"/>
      </contour>
    </TTGlyph>
    <TTGlyph name="adieresis" xMin="62" yMin="-24" xMax="1085" yMax="1319">
      <component glyphName="dieresis" x="-29" y="-268" flags="0x1004"/>
      <component glyphName="a" x="0" y="0" flags="0x1204"/>
    </TTGlyph>
    <TTGlyph name="ae" xMin="62" yMin="-27" xMax="1625" yMax="976">
      <contour>
        <pt x="378" y="-24" on="1"/>
        <pt x="241" y="-24" on="0"/>
        <pt x="62" y="119" on="0"/>
        <pt x="62" y="242" on="1"/>
        <pt x="62" y="411" on="0"/>
        <pt x="238" y="482" on="1"/>
        <pt x="331" y="519" on="0"/>
        <pt x="423" y="531" on="1"/>
        <pt x="448" y="534" on="0"/>
        <pt x="559" y="547" on="0"/>
        <pt x="627" y="556" on="0"/>
        <pt x="702" y="572" on="0"/>
        <pt x="721" y="582" on="1"/>
        <pt x="721" y="724" on="0"/>
        <pt x="698" y="776" on="1"/>
        <pt x="652" y="880" on="0"/>
        <pt x="532" y="880" on="1"/>
        <pt x="530" y="880" on="1"/>
        <pt x="418" y="879" on="0"/>
        <pt x="316" y="774" on="0"/>
        <pt x="316" y="661" on="1"/>
        <pt x="317" y="639" on="1"/>
        <pt x="275" y="634" on="0"/>
        <pt x="257" y="634" on="1"/>
        <pt x="200" y="634" on="0"/>
        <pt x="107" y="693" on="0"/>
        <pt x="107" y="737" on="1"/>
        <pt x="107" y="776" on="0"/>
        <pt x="138" y="841" on="0"/>
        <pt x="184" y="884" on="0"/>
        <pt x="255" y="921" on="0"/>
        <pt x="313" y="942" on="0"/>
        <pt x="351" y="952" on="1"/>
        <pt x="438" y="976" on="0"/>
        <pt x="540" y="976" on="1"/>
        <pt x="774" y="976" on="0"/>
        <pt x="853" y="823" on="1"/>
        <pt x="997" y="976" on="0"/>
        <pt x="1219" y="976" on="1"/>
        <pt x="1390" y="976" on="0"/>
        <pt x="1625" y="755" on="0"/>
        <pt x="1625" y="588" on="1"/>
        <pt x="1625" y="507" on="0"/>
        <pt x="1497" y="507" on="1"/>
        <pt x="918" y="507" on="1"/>
        <pt x="920" y="345" on="0"/>
        <pt x="1126" y="123" on="0"/>
        <pt x="1283" y="123" on="1"/>
        <pt x="1387" y="123" on="0"/>
        <pt x="1485" y="184" on="1"/>
        <pt x="1537" y="216" on="0"/>
        <pt x="1549" y="216" on="1"/>
        <pt x="1566" y="216" on="0"/>
        <pt x="1603" y="187" on="0"/>
        <pt x="1603" y="166" on="1"/>
        <pt x="1603" y="164" on="0"/>
        <pt x="1590" y="138" on="1"/>
        <pt x="1574" y="108" on="0"/>
        <pt x="1487" y="42" on="0"/>
        <pt x="1444" y="22" on="1"/>
        <pt x="1340" y="-27" on="0"/>
        <pt x="1216" y="-27" on="1"/>
        <pt x="1087" y="-27" on="0"/>
        <pt x="878" y="83" on="0"/>
        <pt x="815" y="171" on="1"/>
        <pt x="675" y="-24" on="0"/>
      </contour>
      <contour>
        <pt x="475" y="80" on="1"/>
        <pt x="544" y="80" on="0"/>
        <pt x="649" y="145" on="0"/>
        <pt x="676" y="198" on="1"/>
        <pt x="721" y="286" on="0"/>
        <pt x="721" y="492" on="1"/>
        <pt x="684" y="479" on="0"/>
        <pt x="387" y="429" on="0"/>
        <pt x="346" y="403" on="1"/>
        <pt x="275" y="358" on="0"/>
        <pt x="275" y="252" on="1"/>
        <pt x="275" y="80" on="0"/>
      </contour>
      <contour>
        <pt x="1162" y="608" on="1"/>
        <pt x="1318" y="608" on="0"/>
        <pt x="1441" y="612" on="1"/>
        <pt x="1438" y="790" on="0"/>
        <pt x="1308" y="851" on="1"/>
        <pt x="1265" y="871" on="0"/>
        <pt x="1214" y="871" on="1"/>
        <pt x="1100" y="871" on="0"/>
        <pt x="933" y="711" on="0"/>
        <pt x="928" y="608" on="1"/>
      </contour>
    </TTGlyph>
    <TTGlyph name="agrave" xMin="62" yMin="-24" xMax="1085" yMax="1696">
      <component glyphName="grave" x="154" y="-8" flags="0x1004"/>
      <component glyphName="a" x="0" y="0" flags="0x1204"/>
    </TTGlyph>
    <TTGlyph name="amacron" xMin="62" yMin="-24" xMax="1085" yMax="1224">
      <component glyphName="macron" x="144" y="851" flags="0x1004"/>
      <component glyphName="a" x="0" y="0" flags="0x1204"/>
    </TTGlyph>
    <TTGlyph name="ampersand" xMin="66" yMin="-106" xMax="1608" yMax="1377">
      <contour>
        <pt x="1159" y="794" on="1"/>
        <pt x="1048" y="784" on="0"/>
        <pt x="941" y="732" on="0"/>
        <pt x="905" y="667" on="1"/>
        <pt x="808" y="737" on="1"/>
        <pt x="856" y="930" on="0"/>
        <pt x="1056" y="978" on="1"/>
        <pt x="1079" y="983" on="0"/>
        <pt x="1342" y="1023" on="0"/>
        <pt x="1376" y="1036" on="1"/>
        <pt x="1472" y="1070" on="0"/>
        <pt x="1487" y="1159" on="1"/>
        <pt x="1608" y="1094" on="1"/>
        <pt x="1595" y="1053" on="0"/>
        <pt x="1579" y="1006" on="0"/>
        <pt x="1547" y="945" on="0"/>
        <pt x="1527" y="922" on="1"/>
        <pt x="1447" y="831" on="0"/>
        <pt x="1264" y="810" on="1"/>
        <pt x="1365" y="631" on="0"/>
        <pt x="1365" y="454" on="1"/>
        <pt x="1365" y="212" on="0"/>
        <pt x="1184" y="56" on="1"/>
        <pt x="996" y="-106" on="0"/>
        <pt x="680" y="-106" on="1"/>
        <pt x="551" y="-106" on="0"/>
        <pt x="331" y="-50" on="0"/>
        <pt x="162" y="60" on="0"/>
        <pt x="66" y="239" on="0"/>
        <pt x="66" y="355" on="1"/>
        <pt x="66" y="549" on="0"/>
        <pt x="252" y="672" on="1"/>
        <pt x="316" y="715" on="0"/>
        <pt x="406" y="745" on="1"/>
        <pt x="406" y="746" on="1"/>
        <pt x="301" y="773" on="0"/>
        <pt x="147" y="918" on="0"/>
        <pt x="147" y="1020" on="1"/>
        <pt x="147" y="1183" on="0"/>
        <pt x="306" y="1286" on="1"/>
        <pt x="446" y="1377" on="0"/>
        <pt x="626" y="1377" on="1"/>
        <pt x="767" y="1377" on="0"/>
        <pt x="962" y="1255" on="0"/>
        <pt x="962" y="1140" on="1"/>
        <pt x="962" y="1081" on="0"/>
        <pt x="913" y="1047" on="1"/>
        <pt x="872" y="1018" on="0"/>
        <pt x="835" y="1018" on="1"/>
        <pt x="765" y="1018" on="0"/>
        <pt x="724" y="1022" on="1"/>
        <pt x="730" y="1061" on="0"/>
        <pt x="730" y="1100" on="1"/>
        <pt x="730" y="1192" on="0"/>
        <pt x="632" y="1301" on="0"/>
        <pt x="547" y="1301" on="1"/>
        <pt x="451" y="1301" on="0"/>
        <pt x="327" y="1147" on="0"/>
        <pt x="327" y="1040" on="1"/>
        <pt x="327" y="887" on="0"/>
        <pt x="443" y="828" on="1"/>
        <pt x="481" y="809" on="0"/>
        <pt x="522" y="809" on="1"/>
        <pt x="556" y="809" on="0"/>
        <pt x="598" y="772" on="0"/>
        <pt x="598" y="742" on="1"/>
        <pt x="598" y="683" on="0"/>
        <pt x="516" y="683" on="1"/>
        <pt x="420" y="683" on="0"/>
        <pt x="346" y="591" on="1"/>
        <pt x="276" y="505" on="0"/>
        <pt x="276" y="393" on="1"/>
        <pt x="276" y="200" on="0"/>
        <pt x="516" y="138" on="1"/>
        <pt x="600" y="117" on="0"/>
        <pt x="730" y="117" on="1"/>
        <pt x="877" y="117" on="0"/>
        <pt x="1098" y="194" on="0"/>
        <pt x="1233" y="370" on="0"/>
        <pt x="1233" y="501" on="1"/>
        <pt x="1233" y="634" on="0"/>
      </contour>
    </TTGlyph>
    <TTGlyph name="aogonek" xMin="64" yMin="-480" xMax="1087" yMax="976">
      <component glyphName="ogonek" x="300" y="-34" flags="0x1004"/>
      <component glyphName="a" x="2" y="0" flags="0x1004"/>
    </TTGlyph>
    <TTGlyph name="aring" xMin="62" yMin="-24" xMax="1085" yMax="1488">
      <component glyphName="ring" x="222" y="35" flags="0x1004"/>
      <component glyphName="a" x="0" y="0" flags="0x1204"/>
    </TTGlyph>
    <TTGlyph name="asciicircum" xMin="72" yMin="617" xMax="919" yMax="1309">
      <contour>
        <pt x="164" y="617" on="1"/>
        <pt x="125" y="617" on="0"/>
        <pt x="72" y="652" on="0"/>
        <pt x="72" y="685" on="1"/>
        <pt x="72" y="694" on="0"/>
        <pt x="77" y="715" on="0"/>
        <pt x="82" y="731" on="0"/>
        <pt x="94" y="756" on="0"/>
        <pt x="100" y="768" on="0"/>
        <pt x="114" y="795" on="0"/>
        <pt x="116" y="798" on="1"/>
        <pt x="122" y="809" on="0"/>
        <pt x="176" y="917" on="0"/>
        <pt x="190" y="942" on="1"/>
        <pt x="219" y="992" on="1"/>
        <pt x="230" y="1014" on="0"/>
        <pt x="234" y="1024" on="1"/>
        <pt x="251" y="1060" on="1"/>
        <pt x="277" y="1114" on="0"/>
        <pt x="321" y="1187" on="0"/>
        <pt x="385" y="1268" on="0"/>
        <pt x="462" y="1309" on="0"/>
        <pt x="550" y="1309" on="0"/>
        <pt x="628" y="1265" on="0"/>
        <pt x="690" y="1183" on="0"/>
        <pt x="735" y="1102" on="0"/>
        <pt x="759" y="1046" on="1"/>
        <pt x="807" y="944" on="1"/>
        <pt x="810" y="937" on="0"/>
        <pt x="880" y="802" on="0"/>
        <pt x="919" y="706" on="0"/>
        <pt x="919" y="679" on="1"/>
        <pt x="914" y="676" on="1"/>
        <pt x="908" y="681" on="1"/>
        <pt x="903" y="654" on="0"/>
        <pt x="858" y="617" on="0"/>
        <pt x="828" y="617" on="1"/>
        <pt x="770" y="617" on="0"/>
        <pt x="702" y="704" on="1"/>
        <pt x="664" y="752" on="0"/>
        <pt x="589" y="877" on="1"/>
        <pt x="574" y="902" on="1"/>
        <pt x="569" y="910" on="0"/>
        <pt x="546" y="949" on="0"/>
        <pt x="532" y="971" on="0"/>
        <pt x="511" y="999" on="0"/>
        <pt x="502" y="1009" on="1"/>
        <pt x="502" y="1010" on="1"/>
        <pt x="488" y="987" on="1"/>
        <pt x="444" y="914" on="0"/>
        <pt x="316" y="741" on="0"/>
        <pt x="267" y="690" on="1"/>
        <pt x="197" y="617" on="0"/>
      </contour>
    </TTGlyph>
    <TTGlyph name="asciitilde" xMin="82" yMin="1136" xMax="941" yMax="1376">
      <contour>
        <pt x="791" y="1278" on="1"/>
        <pt x="818" y="1278" on="0"/>
        <pt x="913" y="1328" on="0"/>
        <pt x="919" y="1329" on="1"/>
        <pt x="941" y="1321" on="1"/>
        <pt x="878" y="1196" on="0"/>
        <pt x="740" y="1150" on="1"/>
        <pt x="699" y="1136" on="0"/>
        <pt x="648" y="1136" on="1"/>
        <pt x="637" y="1136" on="0"/>
        <pt x="613" y="1138" on="0"/>
        <pt x="594" y="1140" on="0"/>
        <pt x="568" y="1145" on="0"/>
        <pt x="553" y="1148" on="0"/>
        <pt x="525" y="1156" on="0"/>
        <pt x="514" y="1159" on="0"/>
        <pt x="483" y="1170" on="0"/>
        <pt x="476" y="1172" on="0"/>
        <pt x="443" y="1184" on="0"/>
        <pt x="442" y="1184" on="1"/>
        <pt x="438" y="1185" on="0"/>
        <pt x="399" y="1199" on="0"/>
        <pt x="382" y="1205" on="0"/>
        <pt x="345" y="1217" on="0"/>
        <pt x="322" y="1223" on="0"/>
        <pt x="290" y="1230" on="0"/>
        <pt x="261" y="1233" on="0"/>
        <pt x="248" y="1233" on="1"/>
        <pt x="216" y="1233" on="0"/>
        <pt x="185" y="1223" on="0"/>
        <pt x="163" y="1210" on="1"/>
        <pt x="124" y="1186" on="0"/>
        <pt x="103" y="1183" on="1"/>
        <pt x="82" y="1191" on="1"/>
        <pt x="139" y="1315" on="0"/>
        <pt x="262" y="1361" on="1"/>
        <pt x="301" y="1376" on="0"/>
        <pt x="352" y="1376" on="1"/>
        <pt x="366" y="1376" on="0"/>
        <pt x="397" y="1373" on="0"/>
        <pt x="420" y="1370" on="0"/>
        <pt x="456" y="1361" on="0"/>
        <pt x="473" y="1358" on="0"/>
        <pt x="514" y="1345" on="0"/>
        <pt x="522" y="1342" on="0"/>
        <pt x="567" y="1327" on="0"/>
        <pt x="568" y="1327" on="1"/>
        <pt x="715" y="1278" on="0"/>
      </contour>
    </TTGlyph>
    <TTGlyph name="asterisk" xMin="80" yMin="426" xMax="1103" yMax="1478">
      <contour>
        <pt x="589" y="1478" on="1"/>
        <pt x="639" y="1478" on="0"/>
        <pt x="708" y="1416" on="0"/>
        <pt x="708" y="1368" on="1"/>
        <pt x="708" y="1299" on="0"/>
        <pt x="666" y="1197" on="1"/>
        <pt x="618" y="1080" on="0"/>
        <pt x="609" y="1023" on="1"/>
        <pt x="587" y="1016" on="1"/>
        <pt x="570" y="1022" on="1"/>
        <pt x="570" y="1028" on="1"/>
        <pt x="559" y="1078" on="0"/>
        <pt x="532" y="1152" on="1"/>
        <pt x="481" y="1298" on="0"/>
        <pt x="481" y="1340" on="1"/>
        <pt x="481" y="1404" on="0"/>
        <pt x="535" y="1478" on="0"/>
      </contour>
      <contour>
        <pt x="199" y="633" on="1"/>
        <pt x="148" y="633" on="0"/>
        <pt x="80" y="693" on="0"/>
        <pt x="80" y="746" on="1"/>
        <pt x="80" y="767" on="0"/>
        <pt x="114" y="807" on="0"/>
        <pt x="146" y="827" on="0"/>
        <pt x="172" y="840" on="1"/>
        <pt x="235" y="872" on="0"/>
        <pt x="439" y="927" on="0"/>
        <pt x="509" y="927" on="1"/>
        <pt x="516" y="927" on="1"/>
        <pt x="545" y="916" on="1"/>
        <pt x="481" y="846" on="1"/>
        <pt x="288" y="633" on="0"/>
      </contour>
      <contour>
        <pt x="696" y="1043" on="1"/>
        <pt x="822" y="1181" on="0"/>
        <pt x="920" y="1236" on="1"/>
        <pt x="961" y="1258" on="0"/>
        <pt x="985" y="1258" on="1"/>
        <pt x="1039" y="1258" on="0"/>
        <pt x="1103" y="1209" on="0"/>
        <pt x="1103" y="1162" on="1"/>
        <pt x="1092" y="1143" on="1"/>
        <pt x="1092" y="1138" on="1"/>
        <pt x="1098" y="1138" on="1"/>
        <pt x="1095" y="1055" on="0"/>
        <pt x="912" y="1017" on="1"/>
        <pt x="859" y="1006" on="0"/>
        <pt x="817" y="999" on="1"/>
        <pt x="788" y="994" on="1"/>
        <pt x="703" y="979" on="0"/>
        <pt x="674" y="965" on="1"/>
        <pt x="645" y="992" on="1"/>
      </contour>
      <contour>
        <pt x="479" y="566" on="1"/>
        <pt x="479" y="622" on="0"/>
        <pt x="541" y="775" on="1"/>
        <pt x="577" y="847" on="0"/>
        <pt x="577" y="877" on="1"/>
        <pt x="590" y="882" on="1"/>
        <pt x="617" y="873" on="0"/>
        <pt x="680" y="649" on="1"/>
        <pt x="704" y="566" on="0"/>
        <pt x="704" y="545" on="1"/>
        <pt x="704" y="426" on="0"/>
        <pt x="585" y="426" on="1"/>
        <pt x="479" y="426" on="0"/>
      </contour>
      <contour>
        <pt x="1098" y="749" on="1"/>
        <pt x="1098" y="700" on="0"/>
        <pt x="1034" y="628" on="0"/>
        <pt x="990" y="628" on="1"/>
        <pt x="950" y="628" on="0"/>
        <pt x="892" y="658" on="0"/>
        <pt x="860" y="685" on="1"/>
        <pt x="812" y="727" on="0"/>
        <pt x="751" y="798" on="1"/>
        <pt x="728" y="832" on="0"/>
        <pt x="702" y="856" on="1"/>
        <pt x="702" y="855" on="1"/>
        <pt x="683" y="866" on="0"/>
        <pt x="653" y="896" on="1"/>
        <pt x="653" y="895" on="1"/>
        <pt x="652" y="895" on="0"/>
        <pt x="648" y="899" on="1"/>
        <pt x="648" y="914" on="1"/>
        <pt x="674" y="927" on="1"/>
        <pt x="702" y="918" on="0"/>
        <pt x="768" y="902" on="0"/>
        <pt x="874" y="879" on="0"/>
        <pt x="885" y="877" on="1"/>
        <pt x="931" y="867" on="1"/>
        <pt x="945" y="864" on="0"/>
        <pt x="987" y="856" on="0"/>
        <pt x="1011" y="850" on="1"/>
        <pt x="1011" y="841" on="1"/>
        <pt x="1044" y="837" on="0"/>
        <pt x="1098" y="777" on="0"/>
      </contour>
      <contour>
        <pt x="80" y="1152" on="1"/>
        <pt x="80" y="1201" on="0"/>
        <pt x="137" y="1268" on="0"/>
        <pt x="180" y="1268" on="1"/>
        <pt x="212" y="1268" on="0"/>
        <pt x="267" y="1252" on="0"/>
        <pt x="318" y="1212" on="0"/>
        <pt x="345" y="1187" on="0"/>
        <pt x="397" y="1128" on="0"/>
        <pt x="403" y="1121" on="1"/>
        <pt x="428" y="1095" on="1"/>
        <pt x="476" y="1041" on="0"/>
        <pt x="504" y="1022" on="1"/>
        <pt x="540" y="994" on="1"/>
        <pt x="507" y="972" on="1"/>
        <pt x="490" y="979" on="0"/>
        <pt x="457" y="986" on="0"/>
        <pt x="405" y="994" on="0"/>
        <pt x="387" y="998" on="1"/>
        <pt x="381" y="999" on="0"/>
        <pt x="333" y="1009" on="0"/>
        <pt x="317" y="1012" on="0"/>
        <pt x="273" y="1021" on="0"/>
        <pt x="253" y="1027" on="0"/>
        <pt x="215" y="1037" on="0"/>
        <pt x="194" y="1046" on="0"/>
        <pt x="162" y="1058" on="0"/>
        <pt x="141" y="1070" on="0"/>
        <pt x="118" y="1086" on="0"/>
        <pt x="109" y="1094" on="1"/>
        <pt x="80" y="1121" on="0"/>
      </contour>
    </TTGlyph>
    <TTGlyph name="at" xMin="58" yMin="-81" xMax="1524" yMax="1331">
      <contour>
        <pt x="1072" y="993" on="1"/>
        <pt x="1114" y="993" on="0"/>
        <pt x="1157" y="944" on="0"/>
        <pt x="1157" y="901" on="1"/>
        <pt x="1157" y="438" on="1"/>
        <pt x="1157" y="347" on="0"/>
        <pt x="1237" y="347" on="1"/>
        <pt x="1340" y="347" on="0"/>
        <pt x="1370" y="586" on="1"/>
        <pt x="1379" y="662" on="0"/>
        <pt x="1379" y="745" on="1"/>
        <pt x="1379" y="907" on="0"/>
        <pt x="1216" y="1116" on="0"/>
        <pt x="1080" y="1168" on="1"/>
        <pt x="948" y="1218" on="0"/>
        <pt x="792" y="1218" on="1"/>
        <pt x="570" y="1218" on="0"/>
        <pt x="395" y="1061" on="1"/>
        <pt x="278" y="956" on="0"/>
        <pt x="230" y="798" on="1"/>
        <pt x="205" y="715" on="0"/>
        <pt x="205" y="596" on="1"/>
        <pt x="205" y="469" on="0"/>
        <pt x="306" y="250" on="0"/>
        <pt x="384" y="180" on="1"/>
        <pt x="543" y="39" on="0"/>
        <pt x="814" y="39" on="1"/>
        <pt x="1083" y="39" on="0"/>
        <pt x="1339" y="200" on="1"/>
        <pt x="1340" y="200" on="1"/>
        <pt x="1349" y="200" on="0"/>
        <pt x="1395" y="115" on="1"/>
        <pt x="1115" y="-81" on="0"/>
        <pt x="786" y="-81" on="1"/>
        <pt x="477" y="-81" on="0"/>
        <pt x="276" y="96" on="1"/>
        <pt x="58" y="287" on="0"/>
        <pt x="58" y="615" on="1"/>
        <pt x="58" y="831" on="0"/>
        <pt x="277" y="1157" on="0"/>
        <pt x="450" y="1246" on="1"/>
        <pt x="616" y="1331" on="0"/>
        <pt x="775" y="1331" on="1"/>
        <pt x="1034" y="1331" on="0"/>
        <pt x="1371" y="1182" on="0"/>
        <pt x="1458" y="1022" on="1"/>
        <pt x="1524" y="899" on="0"/>
        <pt x="1524" y="760" on="1"/>
        <pt x="1524" y="511" on="0"/>
        <pt x="1434" y="374" on="1"/>
        <pt x="1350" y="246" on="0"/>
        <pt x="1217" y="246" on="1"/>
        <pt x="1085" y="246" on="0"/>
        <pt x="1019" y="346" on="1"/>
        <pt x="870" y="236" on="0"/>
        <pt x="723" y="236" on="1"/>
        <pt x="574" y="236" on="0"/>
        <pt x="388" y="451" on="0"/>
        <pt x="388" y="611" on="1"/>
        <pt x="388" y="781" on="0"/>
        <pt x="569" y="1015" on="0"/>
        <pt x="719" y="1015" on="1"/>
        <pt x="863" y="1015" on="0"/>
        <pt x="1007" y="937" on="1"/>
        <pt x="1007" y="959" on="0"/>
        <pt x="1048" y="993" on="0"/>
      </contour>
      <contour>
        <pt x="545" y="608" on="1"/>
        <pt x="545" y="486" on="0"/>
        <pt x="645" y="340" on="0"/>
        <pt x="750" y="340" on="1"/>
        <pt x="853" y="340" on="0"/>
        <pt x="993" y="411" on="1"/>
        <pt x="992" y="430" on="0"/>
        <pt x="992" y="470" on="1"/>
        <pt x="992" y="600" on="1"/>
        <pt x="990" y="775" on="1"/>
        <pt x="990" y="815" on="1"/>
        <pt x="991" y="838" on="1"/>
        <pt x="848" y="896" on="0"/>
        <pt x="744" y="896" on="1"/>
        <pt x="545" y="896" on="0"/>
      </contour>
    </TTGlyph>
    <TTGlyph name="atilde" xMin="62" yMin="-24" xMax="1085" yMax="1318">
      <component glyphName="tilde" x="63" y="-48" flags="0x1004"/>
      <component glyphName="a" x="0" y="0" flags="0x1204"/>
    </TTGlyph>
    <TTGlyph name="b" xMin="13" yMin="-18" xMax="1107" yMax="1482">
      <contour>
        <pt x="891" y="433" on="1"/>
        <pt x="891" y="535" on="0"/>
        <pt x="815" y="724" on="0"/>
        <pt x="668" y="850" on="0"/>
        <pt x="577" y="850" on="1"/>
        <pt x="452" y="850" on="0"/>
        <pt x="346" y="752" on="1"/>
        <pt x="346" y="201" on="1"/>
        <pt x="465" y="107" on="0"/>
        <pt x="604" y="107" on="1"/>
        <pt x="739" y="107" on="0"/>
        <pt x="891" y="287" on="0"/>
      </contour>
      <contour>
        <pt x="1107" y="502" on="1"/>
        <pt x="1107" y="368" on="0"/>
        <pt x="990" y="130" on="0"/>
        <pt x="779" y="-18" on="0"/>
        <pt x="653" y="-18" on="1"/>
        <pt x="473" y="-18" on="0"/>
        <pt x="304" y="95" on="1"/>
        <pt x="302" y="93" on="0"/>
        <pt x="252" y="25" on="0"/>
        <pt x="214" y="-8" on="0"/>
        <pt x="195" y="-8" on="1"/>
        <pt x="178" y="-8" on="0"/>
        <pt x="159" y="24" on="0"/>
        <pt x="156" y="57" on="0"/>
        <pt x="156" y="83" on="1"/>
        <pt x="156" y="1247" on="1"/>
        <pt x="156" y="1338" on="0"/>
        <pt x="84" y="1345" on="1"/>
        <pt x="77" y="1346" on="0"/>
        <pt x="55" y="1348" on="0"/>
        <pt x="45" y="1349" on="0"/>
        <pt x="30" y="1352" on="0"/>
        <pt x="23" y="1356" on="0"/>
        <pt x="16" y="1362" on="0"/>
        <pt x="13" y="1371" on="0"/>
        <pt x="13" y="1378" on="1"/>
        <pt x="13" y="1411" on="0"/>
        <pt x="74" y="1461" on="0"/>
        <pt x="155" y="1482" on="0"/>
        <pt x="195" y="1482" on="1"/>
        <pt x="229" y="1482" on="0"/>
        <pt x="261" y="1481" on="0"/>
        <pt x="309" y="1473" on="0"/>
        <pt x="330" y="1458" on="0"/>
        <pt x="347" y="1429" on="0"/>
        <pt x="347" y="1407" on="1"/>
        <pt x="347" y="854" on="1"/>
        <pt x="496" y="981" on="0"/>
        <pt x="674" y="981" on="1"/>
        <pt x="876" y="981" on="0"/>
        <pt x="1107" y="716" on="0"/>
      </contour>
    </TTGlyph>
    <TTGlyph name="backslash" xMin="-8" yMin="-168" xMax="718" yMax="1679">
      <contour>
        <pt x="-8" y="1589" on="1"/>
        <pt x="-8" y="1628" on="0"/>
        <pt x="74" y="1679" on="0"/>
        <pt x="130" y="1679" on="1"/>
        <pt x="180" y="1679" on="0"/>
        <pt x="205" y="1597" on="1"/>
        <pt x="706" y="-25" on="1"/>
        <pt x="718" y="-65" on="0"/>
        <pt x="718" y="-83" on="1"/>
        <pt x="718" y="-119" on="0"/>
        <pt x="633" y="-168" on="0"/>
        <pt x="568" y="-168" on="1"/>
        <pt x="530" y="-168" on="0"/>
        <pt x="504" y="-87" on="1"/>
        <pt x="2" y="1535" on="1"/>
        <pt x="-8" y="1562" on="0"/>
      </contour>
    </TTGlyph>
    <TTGlyph name="bar" xMin="157" yMin="-88" xMax="281" yMax="1550">
      <contour>
        <pt x="158" y="1440" on="1"/>
        <pt x="158" y="1486" on="0"/>
        <pt x="191" y="1550" on="0"/>
        <pt x="223" y="1550" on="1"/>
        <pt x="281" y="1550" on="0"/>
        <pt x="281" y="1440" on="1"/>
        <pt x="281" y="8" on="1"/>
        <pt x="281" y="-32" on="0"/>
        <pt x="249" y="-88" on="0"/>
        <pt x="218" y="-88" on="1"/>
        <pt x="188" y="-88" on="0"/>
        <pt x="157" y="-32" on="0"/>
        <pt x="157" y="8" on="1"/>
      </contour>
    </TTGlyph>
    <TTGlyph name="braceleft" xMin="3" yMin="-92" xMax="656" yMax="1550">
      <contour>
        <pt x="3" y="781" on="1"/>
        <pt x="108" y="785" on="0"/>
        <pt x="188" y="915" on="0"/>
        <pt x="188" y="1047" on="1"/>
        <pt x="187" y="1131" on="1"/>
        <pt x="187" y="1318" on="0"/>
        <pt x="254" y="1436" on="1"/>
        <pt x="318" y="1550" on="0"/>
        <pt x="415" y="1550" on="1"/>
        <pt x="543" y="1550" on="0"/>
        <pt x="656" y="1474" on="1"/>
        <pt x="628" y="1394" on="1"/>
        <pt x="559" y="1409" on="0"/>
        <pt x="511" y="1409" on="1"/>
        <pt x="464" y="1409" on="0"/>
        <pt x="419" y="1355" on="0"/>
        <pt x="406" y="1304" on="1"/>
        <pt x="390" y="1240" on="0"/>
        <pt x="368" y="906" on="0"/>
        <pt x="346" y="837" on="1"/>
        <pt x="312" y="730" on="0"/>
        <pt x="229" y="729" on="1"/>
        <pt x="345" y="726" on="0"/>
        <pt x="369" y="512" on="1"/>
        <pt x="371" y="496" on="0"/>
        <pt x="391" y="217" on="0"/>
        <pt x="406" y="156" on="1"/>
        <pt x="433" y="50" on="0"/>
        <pt x="500" y="50" on="1"/>
        <pt x="550" y="50" on="0"/>
        <pt x="628" y="64" on="1"/>
        <pt x="656" y="-16" on="1"/>
        <pt x="540" y="-92" on="0"/>
        <pt x="415" y="-92" on="1"/>
        <pt x="318" y="-92" on="0"/>
        <pt x="254" y="22" on="1"/>
        <pt x="187" y="140" on="0"/>
        <pt x="187" y="327" on="1"/>
        <pt x="188" y="410" on="1"/>
        <pt x="188" y="532" on="0"/>
        <pt x="164" y="580" on="1"/>
        <pt x="116" y="674" on="0"/>
        <pt x="3" y="677" on="1"/>
      </contour>
    </TTGlyph>
    <TTGlyph name="braceright" xMin="-34" yMin="-92" xMax="619" yMax="1550">
      <contour>
        <pt x="435" y="1131" on="1"/>
        <pt x="434" y="1047" on="1"/>
        <pt x="434" y="926" on="0"/>
        <pt x="458" y="878" on="1"/>
        <pt x="506" y="784" on="0"/>
        <pt x="619" y="781" on="1"/>
        <pt x="619" y="677" on="1"/>
        <pt x="457" y="673" on="0"/>
        <pt x="439" y="505" on="1"/>
        <pt x="434" y="453" on="0"/>
        <pt x="434" y="410" on="1"/>
        <pt x="435" y="327" on="1"/>
        <pt x="435" y="140" on="0"/>
        <pt x="368" y="22" on="1"/>
        <pt x="304" y="-92" on="0"/>
        <pt x="207" y="-92" on="1"/>
        <pt x="82" y="-92" on="0"/>
        <pt x="-34" y="-16" on="1"/>
        <pt x="-6" y="64" on="1"/>
        <pt x="72" y="50" on="0"/>
        <pt x="114" y="50" on="1"/>
        <pt x="159" y="50" on="0"/>
        <pt x="203" y="106" on="0"/>
        <pt x="216" y="156" on="1"/>
        <pt x="232" y="220" on="0"/>
        <pt x="254" y="552" on="0"/>
        <pt x="276" y="621" on="1"/>
        <pt x="310" y="728" on="0"/>
        <pt x="393" y="729" on="1"/>
        <pt x="277" y="732" on="0"/>
        <pt x="253" y="946" on="1"/>
        <pt x="251" y="963" on="0"/>
        <pt x="231" y="1243" on="0"/>
        <pt x="216" y="1304" on="1"/>
        <pt x="189" y="1409" on="0"/>
        <pt x="122" y="1409" on="1"/>
        <pt x="63" y="1409" on="0"/>
        <pt x="-6" y="1394" on="1"/>
        <pt x="-34" y="1474" on="1"/>
        <pt x="79" y="1550" on="0"/>
        <pt x="207" y="1550" on="1"/>
        <pt x="304" y="1550" on="0"/>
        <pt x="368" y="1436" on="1"/>
        <pt x="435" y="1318" on="0"/>
      </contour>
    </TTGlyph>
    <TTGlyph name="bracketleft" xMin="170" yMin="-143" xMax="537" yMax="1771">
      <contour>
        <pt x="330" y="-143" on="1"/>
        <pt x="304" y="-143" on="1"/>
        <pt x="260" y="-143" on="0"/>
        <pt x="218" y="-139" on="0"/>
        <pt x="181" y="-118" on="0"/>
        <pt x="170" y="-75" on="0"/>
        <pt x="170" y="-37" on="1"/>
        <pt x="170" y="1661" on="1"/>
        <pt x="170" y="1722" on="0"/>
        <pt x="217" y="1770" on="0"/>
        <pt x="274" y="1770" on="1"/>
        <pt x="285" y="1770" on="0"/>
        <pt x="332" y="1771" on="0"/>
        <pt x="344" y="1771" on="1"/>
        <pt x="386" y="1771" on="0"/>
        <pt x="445" y="1765" on="0"/>
        <pt x="506" y="1748" on="0"/>
        <pt x="537" y="1710" on="0"/>
        <pt x="537" y="1681" on="1"/>
        <pt x="537" y="1655" on="0"/>
        <pt x="385" y="1629" on="0"/>
        <pt x="385" y="1617" on="1"/>
        <pt x="385" y="11" on="1"/>
        <pt x="385" y="-6" on="0"/>
        <pt x="461" y="-18" on="0"/>
        <pt x="537" y="-33" on="0"/>
        <pt x="537" y="-75" on="0"/>
        <pt x="522" y="-106" on="0"/>
        <pt x="489" y="-125" on="0"/>
        <pt x="457" y="-137" on="0"/>
        <pt x="401" y="-142" on="0"/>
        <pt x="363" y="-143" on="0"/>
      </contour>
    </TTGlyph>
    <TTGlyph name="bracketright" xMin="106" yMin="-143" xMax="473" yMax="1770">
      <contour>
        <pt x="473" y="-37" on="1"/>
        <pt x="473" y="-105" on="0"/>
        <pt x="426" y="-143" on="0"/>
        <pt x="355" y="-143" on="1"/>
        <pt x="303" y="-143" on="1"/>
        <pt x="269" y="-143" on="0"/>
        <pt x="222" y="-141" on="0"/>
        <pt x="165" y="-130" on="0"/>
        <pt x="130" y="-112" on="0"/>
        <pt x="106" y="-78" on="0"/>
        <pt x="106" y="-54" on="1"/>
        <pt x="106" y="-25" on="0"/>
        <pt x="258" y="-7" on="0"/>
        <pt x="258" y="11" on="1"/>
        <pt x="258" y="1617" on="1"/>
        <pt x="258" y="1630" on="0"/>
        <pt x="182" y="1644" on="0"/>
        <pt x="106" y="1663" on="0"/>
        <pt x="106" y="1681" on="1"/>
        <pt x="106" y="1702" on="0"/>
        <pt x="121" y="1733" on="0"/>
        <pt x="153" y="1752" on="0"/>
        <pt x="185" y="1764" on="0"/>
        <pt x="241" y="1769" on="0"/>
        <pt x="279" y="1770" on="0"/>
        <pt x="312" y="1770" on="1"/>
        <pt x="356" y="1770" on="0"/>
        <pt x="397" y="1768" on="0"/>
        <pt x="444" y="1757" on="0"/>
        <pt x="461" y="1734" on="0"/>
        <pt x="473" y="1693" on="0"/>
        <pt x="473" y="1661" on="1"/>
      </contour>
    </TTGlyph>
    <TTGlyph name="breve" xMin="102" yMin="60" xMax="920" yMax="417">
      <contour>
        <pt x="920" y="417" on="1"/>
        <pt x="916" y="246" on="0"/>
        <pt x="693" y="60" on="0"/>
        <pt x="508" y="60" on="1"/>
        <pt x="324" y="60" on="0"/>
        <pt x="106" y="248" on="0"/>
        <pt x="102" y="417" on="1"/>
        <pt x="235" y="417" on="1"/>
        <pt x="243" y="333" on="0"/>
        <pt x="401" y="239" on="0"/>
        <pt x="511" y="239" on="1"/>
        <pt x="673" y="239" on="0"/>
        <pt x="752" y="330" on="1"/>
        <pt x="783" y="365" on="0"/>
        <pt x="787" y="417" on="1"/>
      </contour>
    </TTGlyph>
    <TTGlyph name="brokenbar" xMin="154" yMin="-82" xMax="278" yMax="1540">
      <contour>
        <pt x="155" y="1440" on="1"/>
        <pt x="155" y="1481" on="0"/>
        <pt x="189" y="1540" on="0"/>
        <pt x="220" y="1540" on="1"/>
        <pt x="278" y="1540" on="0"/>
        <pt x="278" y="1440" on="1"/>
        <pt x="278" y="944" on="1"/>
        <pt x="278" y="908" on="0"/>
        <pt x="244" y="858" on="0"/>
        <pt x="214" y="858" on="1"/>
        <pt x="185" y="858" on="0"/>
        <pt x="154" y="907" on="0"/>
        <pt x="154" y="944" on="1"/>
      </contour>
      <contour>
        <pt x="155" y="560" on="1"/>
        <pt x="155" y="601" on="0"/>
        <pt x="189" y="660" on="0"/>
        <pt x="220" y="660" on="1"/>
        <pt x="278" y="660" on="0"/>
        <pt x="278" y="560" on="1"/>
        <pt x="278" y="4" on="1"/>
        <pt x="278" y="-32" on="0"/>
        <pt x="244" y="-82" on="0"/>
        <pt x="214" y="-82" on="1"/>
        <pt x="185" y="-82" on="0"/>
        <pt x="154" y="-33" on="0"/>
        <pt x="154" y="4" on="1"/>
      </contour>
    </TTGlyph>
    <TTGlyph name="bullet" xMin="93" yMin="381" xMax="681" yMax="953">
      <contour>
        <pt x="93" y="667" on="1"/>
        <pt x="93" y="793" on="0"/>
        <pt x="263" y="953" on="0"/>
        <pt x="392" y="953" on="1"/>
        <pt x="522" y="953" on="0"/>
        <pt x="681" y="792" on="0"/>
        <pt x="681" y="542" on="0"/>
        <pt x="520" y="381" on="0"/>
        <pt x="395" y="381" on="1"/>
        <pt x="264" y="381" on="0"/>
        <pt x="93" y="541" on="0"/>
      </contour>
    </TTGlyph>
    <TTGlyph name="c" xMin="31" yMin="-27" xMax="967" yMax="977">
      <contour>
        <pt x="563" y="977" on="1"/>
        <pt x="655" y="977" on="0"/>
        <pt x="823" y="926" on="0"/>
        <pt x="941" y="813" on="0"/>
        <pt x="941" y="737" on="1"/>
        <pt x="941" y="692" on="0"/>
        <pt x="866" y="630" on="0"/>
        <pt x="816" y="630" on="1"/>
        <pt x="762" y="630" on="0"/>
        <pt x="739" y="639" on="1"/>
        <pt x="732" y="752" on="0"/>
        <pt x="653" y="873" on="0"/>
        <pt x="560" y="873" on="1"/>
        <pt x="408" y="873" on="0"/>
        <pt x="235" y="679" on="0"/>
        <pt x="235" y="526" on="1"/>
        <pt x="235" y="351" on="0"/>
        <pt x="456" y="109" on="0"/>
        <pt x="624" y="109" on="1"/>
        <pt x="723" y="109" on="0"/>
        <pt x="867" y="179" on="1"/>
        <pt x="898" y="195" on="0"/>
        <pt x="922" y="195" on="1"/>
        <pt x="943" y="195" on="0"/>
        <pt x="967" y="173" on="0"/>
        <pt x="967" y="153" on="1"/>
        <pt x="967" y="130" on="0"/>
        <pt x="953" y="115" on="1"/>
        <pt x="820" y="-27" on="0"/>
        <pt x="552" y="-27" on="1"/>
        <pt x="322" y="-27" on="0"/>
        <pt x="31" y="243" on="0"/>
        <pt x="31" y="465" on="1"/>
        <pt x="31" y="610" on="0"/>
        <pt x="172" y="845" on="0"/>
        <pt x="415" y="977" on="0"/>
      </contour>
    </TTGlyph>
    <TTGlyph name="c_k" xMin="32" yMin="-27" xMax="2248" yMax="1529">
      <contour>
        <pt x="981" y="84" on="1"/>
        <pt x="981" y="108" on="0"/>
        <pt x="1021" y="128" on="0"/>
        <pt x="1070" y="130" on="0"/>
        <pt x="1110" y="159" on="0"/>
        <pt x="1110" y="191" on="1"/>
        <pt x="1110" y="1292" on="1"/>
        <pt x="1110" y="1310" on="0"/>
        <pt x="965" y="1355" on="0"/>
        <pt x="898" y="1355" on="1"/>
        <pt x="755" y="1355" on="0"/>
        <pt x="607" y="1250" on="0"/>
        <pt x="607" y="1176" on="1"/>
        <pt x="607" y="1108" on="0"/>
        <pt x="672" y="993" on="0"/>
        <pt x="726" y="956" on="1"/>
        <pt x="747" y="942" on="0"/>
        <pt x="820" y="900" on="0"/>
        <pt x="867" y="870" on="0"/>
        <pt x="917" y="826" on="0"/>
        <pt x="942" y="771" on="0"/>
        <pt x="942" y="737" on="1"/>
        <pt x="942" y="692" on="0"/>
        <pt x="867" y="630" on="0"/>
        <pt x="817" y="630" on="1"/>
        <pt x="762" y="630" on="0"/>
        <pt x="740" y="639" on="1"/>
        <pt x="733" y="752" on="0"/>
        <pt x="654" y="873" on="0"/>
        <pt x="561" y="873" on="1"/>
        <pt x="409" y="873" on="0"/>
        <pt x="236" y="679" on="0"/>
        <pt x="236" y="526" on="1"/>
        <pt x="236" y="351" on="0"/>
        <pt x="457" y="109" on="0"/>
        <pt x="625" y="109" on="1"/>
        <pt x="699" y="109" on="0"/>
        <pt x="808" y="179" on="1"/>
        <pt x="839" y="195" on="0"/>
        <pt x="862" y="195" on="1"/>
        <pt x="883" y="195" on="0"/>
        <pt x="908" y="172" on="0"/>
        <pt x="908" y="153" on="1"/>
        <pt x="908" y="130" on="0"/>
        <pt x="894" y="115" on="1"/>
        <pt x="780" y="-27" on="0"/>
        <pt x="553" y="-27" on="1"/>
        <pt x="323" y="-27" on="0"/>
        <pt x="32" y="243" on="0"/>
        <pt x="32" y="465" on="1"/>
        <pt x="32" y="560" on="0"/>
        <pt x="94" y="734" on="0"/>
        <pt x="211" y="875" on="0"/>
        <pt x="402" y="959" on="0"/>
        <pt x="521" y="959" on="1"/>
        <pt x="561" y="959" on="0"/>
        <pt x="582" y="957" on="1"/>
        <pt x="447" y="1066" on="0"/>
        <pt x="447" y="1210" on="1"/>
        <pt x="447" y="1335" on="0"/>
        <pt x="713" y="1529" on="0"/>
        <pt x="902" y="1529" on="1"/>
        <pt x="1044" y="1529" on="0"/>
        <pt x="1281" y="1376" on="0"/>
        <pt x="1301" y="1267" on="1"/>
        <pt x="1301" y="532" on="1"/>
        <pt x="1335" y="558" on="0"/>
        <pt x="1608" y="756" on="0"/>
        <pt x="1676" y="810" on="1"/>
        <pt x="1739" y="860" on="0"/>
        <pt x="1739" y="868" on="1"/>
        <pt x="1739" y="891" on="0"/>
        <pt x="1663" y="915" on="1"/>
        <pt x="1666" y="1006" on="0"/>
        <pt x="1831" y="1006" on="1"/>
        <pt x="1967" y="1006" on="1"/>
        <pt x="2219" y="1006" on="0"/>
        <pt x="2219" y="978" on="1"/>
        <pt x="2219" y="965" on="0"/>
        <pt x="2162" y="908" on="0"/>
        <pt x="2132" y="891" on="1"/>
        <pt x="2066" y="891" on="0"/>
        <pt x="1895" y="801" on="0"/>
        <pt x="1770" y="708" on="1"/>
        <pt x="1597" y="580" on="1"/>
        <pt x="1912" y="248" on="1"/>
        <pt x="1970" y="189" on="0"/>
        <pt x="2061" y="126" on="0"/>
        <pt x="2131" y="109" on="1"/>
        <pt x="2139" y="107" on="0"/>
        <pt x="2178" y="98" on="0"/>
        <pt x="2196" y="94" on="0"/>
        <pt x="2224" y="83" on="0"/>
        <pt x="2237" y="71" on="0"/>
        <pt x="2248" y="51" on="0"/>
        <pt x="2248" y="38" on="1"/>
        <pt x="2248" y="-10" on="0"/>
        <pt x="2093" y="-10" on="1"/>
        <pt x="2044" y="-10" on="1"/>
        <pt x="1949" y="-10" on="0"/>
        <pt x="1879" y="7" on="0"/>
        <pt x="1839" y="45" on="1"/>
        <pt x="1690" y="186" on="0"/>
        <pt x="1470" y="501" on="1"/>
        <pt x="1300" y="386" on="1"/>
        <pt x="1300" y="191" on="1"/>
        <pt x="1300" y="160" on="0"/>
        <pt x="1340" y="131" on="0"/>
        <pt x="1389" y="128" on="0"/>
        <pt x="1429" y="104" on="0"/>
        <pt x="1429" y="78" on="1"/>
        <pt x="1429" y="51" on="0"/>
        <pt x="1400" y="17" on="0"/>
        <pt x="1337" y="3" on="0"/>
        <pt x="1288" y="0" on="0"/>
        <pt x="1243" y="0" on="1"/>
        <pt x="1229" y="0" on="0"/>
        <pt x="1172" y="-1" on="0"/>
        <pt x="1157" y="-1" on="1"/>
        <pt x="1118" y="-1" on="0"/>
        <pt x="1063" y="5" on="0"/>
        <pt x="1009" y="21" on="0"/>
        <pt x="981" y="57" on="0"/>
      </contour>
    </TTGlyph>
    <TTGlyph name="cacute" xMin="31" yMin="-27" xMax="967" yMax="1697">
      <component glyphName="acute" x="382" y="-7" flags="0x1004"/>
      <component glyphName="c" x="0" y="0" flags="0x1204"/>
    </TTGlyph>
    <TTGlyph name="caron" xMin="12" yMin="1262" xMax="754" yMax="1708">
      <contour>
        <pt x="754" y="1695" on="1"/>
        <pt x="728" y="1629" on="0"/>
        <pt x="498" y="1359" on="0"/>
        <pt x="425" y="1290" on="1"/>
        <pt x="396" y="1262" on="0"/>
        <pt x="374" y="1262" on="0"/>
        <pt x="343" y="1290" on="1"/>
        <pt x="255" y="1370" on="0"/>
        <pt x="50" y="1613" on="0"/>
        <pt x="12" y="1695" on="1"/>
        <pt x="40" y="1708" on="1"/>
        <pt x="74" y="1705" on="0"/>
        <pt x="286" y="1564" on="1"/>
        <pt x="386" y="1498" on="1"/>
        <pt x="436" y="1534" on="1"/>
        <pt x="478" y="1560" on="1"/>
        <pt x="488" y="1567" on="0"/>
        <pt x="574" y="1627" on="0"/>
        <pt x="635" y="1668" on="0"/>
        <pt x="711" y="1707" on="0"/>
        <pt x="733" y="1708" on="1"/>
      </contour>
    </TTGlyph>
    <TTGlyph name="ccaron" xMin="31" yMin="-27" xMax="967" yMax="1545">
      <component glyphName="caron" x="116" y="-163" flags="0x1004"/>
      <component glyphName="c" x="0" y="0" flags="0x1204"/>
    </TTGlyph>
    <TTGlyph name="ccedilla" xMin="31" yMin="-493" xMax="967" yMax="977">
      <component glyphName="cedilla" x="186" y="-28" flags="0x1004"/>
      <component glyphName="c" x="0" y="0" flags="0x1204"/>
    </TTGlyph>
    <TTGlyph name="ccircumflex" xMin="31" yMin="-27" xMax="967" yMax="1545">
      <component glyphName="circumflex" x="46" y="-164" flags="0x1004"/>
      <component glyphName="c" x="0" y="0" flags="0x1204"/>
    </TTGlyph>
    <TTGlyph name="cdotaccent" xMin="31" yMin="-27" xMax="967" yMax="1332">
      <component glyphName="dotaccent" x="260" y="868" flags="0x1004"/>
      <component glyphName="c" x="0" y="0" flags="0x1204"/>
    </TTGlyph>
    <TTGlyph name="cedilla" xMin="28" yMin="-465" xMax="558" yMax="17">
      <contour>
        <pt x="329" y="-306" on="1"/>
        <pt x="329" y="-279" on="0"/>
        <pt x="276" y="-245" on="0"/>
        <pt x="214" y="-234" on="0"/>
        <pt x="181" y="-234" on="1"/>
        <pt x="213" y="-144" on="0"/>
        <pt x="243" y="-36" on="1"/>
        <pt x="261" y="17" on="1"/>
        <pt x="373" y="13" on="1"/>
        <pt x="373" y="12" on="1"/>
        <pt x="325" y="-128" on="1"/>
        <pt x="326" y="-131" on="1"/>
        <pt x="326" y="-128" on="1"/>
        <pt x="397" y="-135" on="0"/>
        <pt x="493" y="-166" on="0"/>
        <pt x="558" y="-237" on="0"/>
        <pt x="558" y="-291" on="1"/>
        <pt x="558" y="-374" on="0"/>
        <pt x="415" y="-465" on="0"/>
        <pt x="312" y="-465" on="1"/>
        <pt x="265" y="-465" on="0"/>
        <pt x="122" y="-432" on="0"/>
        <pt x="88" y="-416" on="1"/>
        <pt x="28" y="-388" on="0"/>
        <pt x="28" y="-352" on="1"/>
        <pt x="28" y="-333" on="0"/>
        <pt x="56" y="-307" on="0"/>
        <pt x="92" y="-307" on="0"/>
        <pt x="117" y="-318" on="1"/>
        <pt x="140" y="-329" on="0"/>
        <pt x="148" y="-329" on="1"/>
        <pt x="211" y="-356" on="0"/>
        <pt x="246" y="-356" on="1"/>
        <pt x="278" y="-356" on="0"/>
        <pt x="329" y="-330" on="0"/>
      </contour>
    </TTGlyph>
    <TTGlyph name="cent" xMin="36" yMin="-260" xMax="1067" yMax="1456">
      <contour>
        <pt x="1067" y="896" on="1"/>
        <pt x="1067" y="840" on="0"/>
        <pt x="984" y="781" on="0"/>
        <pt x="927" y="781" on="1"/>
        <pt x="884" y="781" on="0"/>
        <pt x="862" y="790" on="1"/>
        <pt x="857" y="1023" on="0"/>
        <pt x="699" y="1050" on="1"/>
        <pt x="602" y="214" on="1"/>
        <pt x="630" y="210" on="0"/>
        <pt x="667" y="210" on="1"/>
        <pt x="787" y="210" on="0"/>
        <pt x="942" y="281" on="1"/>
        <pt x="996" y="306" on="0"/>
        <pt x="1019" y="306" on="1"/>
        <pt x="1061" y="306" on="0"/>
        <pt x="1061" y="267" on="1"/>
        <pt x="1061" y="246" on="0"/>
        <pt x="1046" y="226" on="1"/>
        <pt x="886" y="74" on="0"/>
        <pt x="589" y="74" on="1"/>
        <pt x="586" y="74" on="1"/>
        <pt x="553" y="-210" on="1"/>
        <pt x="551" y="-232" on="0"/>
        <pt x="526" y="-260" on="0"/>
        <pt x="506" y="-260" on="1"/>
        <pt x="490" y="-260" on="0"/>
        <pt x="462" y="-233" on="0"/>
        <pt x="462" y="-217" on="1"/>
        <pt x="462" y="-200" on="0"/>
        <pt x="463" y="-197" on="1"/>
        <pt x="494" y="80" on="1"/>
        <pt x="289" y="105" on="0"/>
        <pt x="36" y="372" on="0"/>
        <pt x="36" y="583" on="1"/>
        <pt x="36" y="820" on="0"/>
        <pt x="203" y="982" on="1"/>
        <pt x="370" y="1143" on="0"/>
        <pt x="617" y="1156" on="1"/>
        <pt x="646" y="1407" on="1"/>
        <pt x="648" y="1428" on="0"/>
        <pt x="673" y="1456" on="0"/>
        <pt x="692" y="1456" on="1"/>
        <pt x="712" y="1456" on="0"/>
        <pt x="737" y="1424" on="0"/>
        <pt x="737" y="1380" on="0"/>
        <pt x="711" y="1155" on="1"/>
        <pt x="940" y="1136" on="0"/>
        <pt x="1033" y="1008" on="1"/>
        <pt x="1067" y="962" on="0"/>
      </contour>
      <contour>
        <pt x="605" y="1052" on="1"/>
        <pt x="447" y="1038" on="0"/>
        <pt x="243" y="818" on="0"/>
        <pt x="243" y="652" on="1"/>
        <pt x="243" y="499" on="0"/>
        <pt x="393" y="279" on="0"/>
        <pt x="512" y="236" on="1"/>
      </contour>
    </TTGlyph>
    <TTGlyph name="circumflex" xMin="82" yMin="1263" xMax="824" yMax="1709">
      <contour>
        <pt x="82" y="1275" on="1"/>
        <pt x="98" y="1313" on="0"/>
        <pt x="255" y="1522" on="0"/>
        <pt x="428" y="1709" on="0"/>
        <pt x="484" y="1709" on="0"/>
        <pt x="814" y="1305" on="0"/>
        <pt x="824" y="1275" on="1"/>
        <pt x="803" y="1263" on="1"/>
        <pt x="761" y="1266" on="0"/>
        <pt x="548" y="1411" on="1"/>
        <pt x="512" y="1435" on="1"/>
        <pt x="512" y="1434" on="1"/>
        <pt x="456" y="1474" on="1"/>
        <pt x="422" y="1451" on="1"/>
        <pt x="400" y="1438" on="0"/>
        <pt x="264" y="1337" on="0"/>
        <pt x="148" y="1267" on="0"/>
        <pt x="111" y="1263" on="1"/>
      </contour>
    </TTGlyph>
    <TTGlyph name="colon" xMin="112" yMin="183" xMax="393" yMax="984">
      <contour>
        <pt x="241" y="984" on="1"/>
        <pt x="298" y="984" on="0"/>
        <pt x="393" y="922" on="0"/>
        <pt x="393" y="879" on="1"/>
        <pt x="393" y="790" on="0"/>
        <pt x="302" y="760" on="1"/>
        <pt x="277" y="751" on="0"/>
        <pt x="254" y="751" on="1"/>
        <pt x="198" y="751" on="0"/>
        <pt x="112" y="815" on="0"/>
        <pt x="112" y="863" on="1"/>
        <pt x="112" y="914" on="0"/>
        <pt x="160" y="950" on="1"/>
        <pt x="206" y="984" on="0"/>
      </contour>
      <contour>
        <pt x="241" y="416" on="1"/>
        <pt x="298" y="416" on="0"/>
        <pt x="393" y="354" on="0"/>
        <pt x="393" y="311" on="1"/>
        <pt x="393" y="222" on="0"/>
        <pt x="302" y="192" on="1"/>
        <pt x="276" y="183" on="0"/>
        <pt x="254" y="183" on="1"/>
        <pt x="198" y="183" on="0"/>
        <pt x="112" y="247" on="0"/>
        <pt x="112" y="295" on="1"/>
        <pt x="112" y="346" on="0"/>
        <pt x="160" y="382" on="1"/>
        <pt x="206" y="416" on="0"/>
      </contour>
    </TTGlyph>
    <TTGlyph name="comma" xMin="90" yMin="-120" xMax="375" yMax="225">
      <contour>
        <pt x="375" y="99" on="1"/>
        <pt x="375" y="10" on="0"/>
        <pt x="261" y="-120" on="0"/>
        <pt x="178" y="-120" on="1"/>
        <pt x="139" y="-120" on="0"/>
        <pt x="139" y="-97" on="1"/>
        <pt x="139" y="-88" on="0"/>
        <pt x="148" y="-74" on="0"/>
        <pt x="170" y="-56" on="0"/>
        <pt x="172" y="-54" on="1"/>
        <pt x="205" y="-22" on="0"/>
        <pt x="207" y="27" on="1"/>
        <pt x="155" y="29" on="0"/>
        <pt x="90" y="74" on="0"/>
        <pt x="90" y="118" on="1"/>
        <pt x="90" y="169" on="0"/>
        <pt x="178" y="225" on="0"/>
        <pt x="236" y="225" on="1"/>
        <pt x="363" y="225" on="0"/>
      </contour>
    </TTGlyph>
    <TTGlyph name="copyright" xMin="46" yMin="-16" xMax="1593" yMax="1403">
      <contour>
        <pt x="639" y="769" on="1"/>
        <pt x="639" y="673" on="0"/>
        <pt x="703" y="510" on="0"/>
        <pt x="835" y="407" on="0"/>
        <pt x="922" y="407" on="1"/>
        <pt x="988" y="407" on="0"/>
        <pt x="1040" y="430" on="1"/>
        <pt x="1094" y="454" on="0"/>
        <pt x="1114" y="464" on="1"/>
        <pt x="1136" y="475" on="0"/>
        <pt x="1150" y="475" on="1"/>
        <pt x="1163" y="475" on="0"/>
        <pt x="1163" y="444" on="1"/>
        <pt x="1163" y="405" on="0"/>
        <pt x="1104" y="334" on="0"/>
        <pt x="1066" y="310" on="1"/>
        <pt x="974" y="253" on="0"/>
        <pt x="856" y="253" on="1"/>
        <pt x="636" y="253" on="0"/>
        <pt x="508" y="396" on="1"/>
        <pt x="392" y="526" on="0"/>
        <pt x="392" y="712" on="1"/>
        <pt x="392" y="899" on="0"/>
        <pt x="508" y="1024" on="1"/>
        <pt x="638" y="1165" on="0"/>
        <pt x="864" y="1165" on="1"/>
        <pt x="989" y="1165" on="0"/>
        <pt x="1176" y="1027" on="0"/>
        <pt x="1176" y="917" on="1"/>
        <pt x="1176" y="893" on="0"/>
        <pt x="1131" y="859" on="0"/>
        <pt x="1103" y="859" on="1"/>
        <pt x="1063" y="859" on="0"/>
        <pt x="1014" y="912" on="0"/>
        <pt x="974" y="1013" on="0"/>
        <pt x="966" y="1026" on="1"/>
        <pt x="930" y="1085" on="0"/>
        <pt x="869" y="1085" on="1"/>
        <pt x="758" y="1085" on="0"/>
        <pt x="696" y="988" on="1"/>
        <pt x="639" y="898" on="0"/>
      </contour>
      <contour>
        <pt x="865" y="1403" on="1"/>
        <pt x="1009" y="1403" on="0"/>
        <pt x="1278" y="1293" on="0"/>
        <pt x="1372" y="1210" on="1"/>
        <pt x="1467" y="1125" on="0"/>
        <pt x="1593" y="872" on="0"/>
        <pt x="1593" y="731" on="1"/>
        <pt x="1593" y="605" on="0"/>
        <pt x="1538" y="419" on="0"/>
        <pt x="1482" y="334" on="1"/>
        <pt x="1380" y="180" on="0"/>
        <pt x="1027" y="-16" on="0"/>
        <pt x="809" y="-16" on="1"/>
        <pt x="599" y="-16" on="0"/>
        <pt x="252" y="174" on="0"/>
        <pt x="154" y="322" on="1"/>
        <pt x="46" y="486" on="0"/>
        <pt x="46" y="679" on="1"/>
        <pt x="46" y="891" on="0"/>
        <pt x="272" y="1218" on="0"/>
        <pt x="446" y="1308" on="1"/>
        <pt x="630" y="1403" on="0"/>
      </contour>
      <contour>
        <pt x="191" y="685" on="1"/>
        <pt x="191" y="424" on="0"/>
        <pt x="541" y="80" on="0"/>
        <pt x="810" y="80" on="1"/>
        <pt x="1085" y="80" on="0"/>
        <pt x="1264" y="258" on="1"/>
        <pt x="1443" y="435" on="0"/>
        <pt x="1443" y="703" on="1"/>
        <pt x="1443" y="961" on="0"/>
        <pt x="1272" y="1132" on="1"/>
        <pt x="1100" y="1304" on="0"/>
        <pt x="836" y="1304" on="1"/>
        <pt x="558" y="1304" on="0"/>
        <pt x="374" y="1126" on="1"/>
        <pt x="191" y="949" on="0"/>
      </contour>
    </TTGlyph>
    <TTGlyph name="currency" xMin="101" yMin="498" xMax="809" yMax="1208">
      <contour>
        <pt x="102" y="1158" on="0"/>
        <pt x="102" y="1188" on="0"/>
        <pt x="121" y="1208" on="0"/>
        <pt x="136" y="1208" on="1"/>
        <pt x="152" y="1208" on="0"/>
        <pt x="166" y="1194" on="1"/>
        <pt x="338" y="1022" on="1"/>
        <pt x="396" y="1048" on="0"/>
        <pt x="526" y="1048" on="0"/>
        <pt x="577" y="1025" on="1"/>
        <pt x="746" y="1194" on="1"/>
        <pt x="760" y="1208" on="0"/>
        <pt x="790" y="1208" on="0"/>
        <pt x="809" y="1187" on="0"/>
        <pt x="809" y="1157" on="0"/>
        <pt x="795" y="1143" on="1"/>
        <pt x="638" y="986" on="1"/>
        <pt x="695" y="934" on="0"/>
        <pt x="695" y="854" on="1"/>
        <pt x="695" y="774" on="0"/>
        <pt x="638" y="722" on="1"/>
        <pt x="797" y="563" on="1"/>
        <pt x="808" y="549" on="0"/>
        <pt x="808" y="533" on="1"/>
        <pt x="808" y="519" on="0"/>
        <pt x="791" y="498" on="0"/>
        <pt x="761" y="498" on="0"/>
        <pt x="747" y="512" on="1"/>
        <pt x="577" y="681" on="1"/>
        <pt x="525" y="658" on="0"/>
        <pt x="456" y="658" on="1"/>
        <pt x="388" y="658" on="0"/>
        <pt x="334" y="681" on="1"/>
        <pt x="165" y="512" on="1"/>
        <pt x="151" y="498" on="0"/>
        <pt x="121" y="498" on="0"/>
        <pt x="101" y="519" on="0"/>
        <pt x="101" y="549" on="0"/>
        <pt x="115" y="563" on="1"/>
        <pt x="274" y="722" on="1"/>
        <pt x="222" y="774" on="0"/>
        <pt x="222" y="926" on="0"/>
        <pt x="279" y="981" on="1"/>
        <pt x="117" y="1143" on="1"/>
      </contour>
      <contour>
        <pt x="320" y="851" on="1"/>
        <pt x="320" y="799" on="0"/>
        <pt x="390" y="727" on="0"/>
        <pt x="441" y="727" on="1"/>
        <pt x="514" y="727" on="0"/>
        <pt x="596" y="793" on="0"/>
        <pt x="596" y="857" on="1"/>
        <pt x="596" y="915" on="0"/>
        <pt x="520" y="979" on="0"/>
        <pt x="458" y="979" on="1"/>
        <pt x="397" y="979" on="0"/>
        <pt x="320" y="909" on="0"/>
      </contour>
    </TTGlyph>
    <TTGlyph name="d" xMin="19" yMin="-21" xMax="1157" yMax="1482">
      <contour>
        <pt x="510" y="871" on="1"/>
        <pt x="419" y="871" on="0"/>
        <pt x="283" y="759" on="0"/>
        <pt x="219" y="590" on="0"/>
        <pt x="219" y="493" on="1"/>
        <pt x="219" y="328" on="0"/>
        <pt x="398" y="99" on="0"/>
        <pt x="544" y="99" on="1"/>
        <pt x="685" y="99" on="0"/>
        <pt x="812" y="218" on="0"/>
        <pt x="812" y="356" on="1"/>
        <pt x="812" y="751" on="1"/>
        <pt x="770" y="806" on="0"/>
        <pt x="613" y="871" on="0"/>
      </contour>
      <contour>
        <pt x="536" y="979" on="1"/>
        <pt x="602" y="979" on="0"/>
        <pt x="765" y="936" on="0"/>
        <pt x="812" y="912" on="1"/>
        <pt x="812" y="1247" on="1"/>
        <pt x="812" y="1338" on="0"/>
        <pt x="740" y="1345" on="1"/>
        <pt x="733" y="1346" on="0"/>
        <pt x="711" y="1348" on="0"/>
        <pt x="701" y="1349" on="0"/>
        <pt x="686" y="1352" on="0"/>
        <pt x="679" y="1356" on="0"/>
        <pt x="672" y="1362" on="0"/>
        <pt x="669" y="1371" on="0"/>
        <pt x="669" y="1378" on="1"/>
        <pt x="669" y="1411" on="0"/>
        <pt x="730" y="1461" on="0"/>
        <pt x="811" y="1482" on="0"/>
        <pt x="851" y="1482" on="1"/>
        <pt x="885" y="1482" on="0"/>
        <pt x="917" y="1481" on="0"/>
        <pt x="965" y="1473" on="0"/>
        <pt x="986" y="1458" on="0"/>
        <pt x="1003" y="1429" on="0"/>
        <pt x="1003" y="1407" on="1"/>
        <pt x="1003" y="313" on="1"/>
        <pt x="1003" y="202" on="0"/>
        <pt x="1027" y="169" on="1"/>
        <pt x="1052" y="137" on="0"/>
        <pt x="1085" y="125" on="1"/>
        <pt x="1091" y="123" on="0"/>
        <pt x="1120" y="113" on="0"/>
        <pt x="1132" y="108" on="0"/>
        <pt x="1150" y="97" on="0"/>
        <pt x="1157" y="83" on="0"/>
        <pt x="1157" y="74" on="1"/>
        <pt x="1157" y="32" on="0"/>
        <pt x="1068" y="-7" on="0"/>
        <pt x="1008" y="-7" on="1"/>
        <pt x="921" y="-7" on="0"/>
        <pt x="855" y="49" on="0"/>
        <pt x="830" y="124" on="1"/>
        <pt x="748" y="-21" on="0"/>
        <pt x="488" y="-21" on="1"/>
        <pt x="280" y="-21" on="0"/>
        <pt x="19" y="255" on="0"/>
        <pt x="19" y="469" on="1"/>
        <pt x="19" y="695" on="0"/>
        <pt x="309" y="979" on="0"/>
      </contour>
    </TTGlyph>
    <TTGlyph name="dagger" xMin="-4" yMin="-4" xMax="849" yMax="1408">
      <contour>
        <pt x="849" y="972" on="1"/>
        <pt x="849" y="972" on="0"/>
        <pt x="849" y="936" on="1"/>
        <pt x="849" y="905" on="0"/>
        <pt x="846" y="863" on="0"/>
        <pt x="835" y="816" on="0"/>
        <pt x="810" y="792" on="0"/>
        <pt x="791" y="792" on="1"/>
        <pt x="785" y="792" on="0"/>
        <pt x="777" y="796" on="0"/>
        <pt x="772" y="802" on="0"/>
        <pt x="768" y="813" on="0"/>
        <pt x="767" y="820" on="0"/>
        <pt x="765" y="835" on="0"/>
        <pt x="765" y="838" on="1"/>
        <pt x="759" y="883" on="0"/>
        <pt x="716" y="883" on="1"/>
        <pt x="506" y="883" on="1"/>
        <pt x="506" y="185" on="1"/>
        <pt x="506" y="135" on="0"/>
        <pt x="582" y="126" on="1"/>
        <pt x="638" y="119" on="0"/>
        <pt x="649" y="109" on="1"/>
        <pt x="657" y="102" on="0"/>
        <pt x="657" y="90" on="1"/>
        <pt x="657" y="-4" on="0"/>
        <pt x="465" y="-4" on="1"/>
        <pt x="361" y="-1" on="1"/>
        <pt x="198" y="-1" on="0"/>
        <pt x="198" y="90" on="1"/>
        <pt x="198" y="107" on="0"/>
        <pt x="239" y="122" on="0"/>
        <pt x="301" y="127" on="0"/>
        <pt x="309" y="130" on="1"/>
        <pt x="348" y="144" on="0"/>
        <pt x="348" y="185" on="1"/>
        <pt x="348" y="883" on="1"/>
        <pt x="128" y="883" on="1"/>
        <pt x="116" y="883" on="0"/>
        <pt x="99" y="876" on="0"/>
        <pt x="89" y="868" on="0"/>
        <pt x="81" y="848" on="0"/>
        <pt x="78" y="839" on="0"/>
        <pt x="73" y="811" on="0"/>
        <pt x="72" y="807" on="1"/>
        <pt x="69" y="793" on="0"/>
        <pt x="53" y="793" on="1"/>
        <pt x="-4" y="793" on="0"/>
        <pt x="-4" y="917" on="1"/>
        <pt x="-4" y="954" on="1"/>
        <pt x="-4" y="1023" on="0"/>
        <pt x="18" y="1106" on="0"/>
        <pt x="53" y="1106" on="1"/>
        <pt x="73" y="1106" on="0"/>
        <pt x="79" y="1060" on="1"/>
        <pt x="85" y="1015" on="0"/>
        <pt x="128" y="1015" on="1"/>
        <pt x="348" y="1014" on="1"/>
        <pt x="348" y="1220" on="1"/>
        <pt x="348" y="1274" on="0"/>
        <pt x="273" y="1282" on="1"/>
        <pt x="218" y="1287" on="0"/>
        <pt x="207" y="1295" on="1"/>
        <pt x="198" y="1301" on="0"/>
        <pt x="198" y="1314" on="1"/>
        <pt x="198" y="1408" on="0"/>
        <pt x="378" y="1408" on="1"/>
        <pt x="480" y="1405" on="1"/>
        <pt x="657" y="1405" on="0"/>
        <pt x="657" y="1314" on="1"/>
        <pt x="657" y="1301" on="0"/>
        <pt x="629" y="1287" on="0"/>
        <pt x="595" y="1283" on="0"/>
        <pt x="553" y="1279" on="0"/>
        <pt x="545" y="1276" on="1"/>
        <pt x="506" y="1262" on="0"/>
        <pt x="506" y="1220" on="1"/>
        <pt x="506" y="1014" on="1"/>
        <pt x="716" y="1014" on="1"/>
        <pt x="730" y="1014" on="0"/>
        <pt x="748" y="1022" on="0"/>
        <pt x="759" y="1041" on="0"/>
        <pt x="764" y="1055" on="0"/>
        <pt x="770" y="1085" on="0"/>
        <pt x="772" y="1091" on="1"/>
        <pt x="777" y="1105" on="0"/>
        <pt x="792" y="1105" on="1"/>
        <pt x="849" y="1105" on="0"/>
      </contour>
    </TTGlyph>
    <TTGlyph name="daggerdbl" xMin="72" yMin="-4" xMax="925" yMax="1408">
      <contour>
        <pt x="72" y="924" on="1"/>
        <pt x="72" y="924" on="0"/>
        <pt x="72" y="956" on="1"/>
        <pt x="72" y="1024" on="0"/>
        <pt x="94" y="1106" on="0"/>
        <pt x="129" y="1106" on="1"/>
        <pt x="149" y="1106" on="0"/>
        <pt x="155" y="1060" on="1"/>
        <pt x="161" y="1015" on="0"/>
        <pt x="204" y="1015" on="1"/>
        <pt x="424" y="1014" on="1"/>
        <pt x="424" y="1220" on="1"/>
        <pt x="424" y="1274" on="0"/>
        <pt x="349" y="1282" on="1"/>
        <pt x="294" y="1287" on="0"/>
        <pt x="283" y="1295" on="1"/>
        <pt x="274" y="1302" on="0"/>
        <pt x="274" y="1314" on="1"/>
        <pt x="274" y="1408" on="0"/>
        <pt x="454" y="1408" on="1"/>
        <pt x="556" y="1405" on="1"/>
        <pt x="733" y="1405" on="0"/>
        <pt x="733" y="1314" on="1"/>
        <pt x="733" y="1301" on="0"/>
        <pt x="705" y="1287" on="0"/>
        <pt x="671" y="1283" on="0"/>
        <pt x="629" y="1279" on="0"/>
        <pt x="621" y="1276" on="1"/>
        <pt x="582" y="1262" on="0"/>
        <pt x="582" y="1220" on="1"/>
        <pt x="582" y="1014" on="1"/>
        <pt x="792" y="1014" on="1"/>
        <pt x="806" y="1014" on="0"/>
        <pt x="824" y="1022" on="0"/>
        <pt x="835" y="1041" on="0"/>
        <pt x="840" y="1055" on="0"/>
        <pt x="846" y="1085" on="0"/>
        <pt x="848" y="1091" on="1"/>
        <pt x="853" y="1105" on="0"/>
        <pt x="868" y="1105" on="1"/>
        <pt x="925" y="1105" on="0"/>
        <pt x="925" y="986" on="1"/>
        <pt x="925" y="935" on="1"/>
        <pt x="925" y="812" on="0"/>
        <pt x="867" y="812" on="1"/>
        <pt x="861" y="812" on="0"/>
        <pt x="853" y="816" on="0"/>
        <pt x="848" y="822" on="0"/>
        <pt x="844" y="833" on="0"/>
        <pt x="843" y="840" on="0"/>
        <pt x="841" y="855" on="0"/>
        <pt x="841" y="858" on="1"/>
        <pt x="835" y="903" on="0"/>
        <pt x="792" y="903" on="1"/>
        <pt x="582" y="903" on="1"/>
        <pt x="582" y="553" on="1"/>
        <pt x="792" y="553" on="1"/>
        <pt x="806" y="553" on="0"/>
        <pt x="824" y="561" on="0"/>
        <pt x="835" y="580" on="0"/>
        <pt x="840" y="594" on="0"/>
        <pt x="846" y="624" on="0"/>
        <pt x="848" y="630" on="1"/>
        <pt x="853" y="644" on="0"/>
        <pt x="868" y="644" on="1"/>
        <pt x="925" y="644" on="0"/>
        <pt x="925" y="525" on="1"/>
        <pt x="925" y="474" on="1"/>
        <pt x="925" y="351" on="0"/>
        <pt x="867" y="351" on="1"/>
        <pt x="861" y="351" on="0"/>
        <pt x="853" y="355" on="0"/>
        <pt x="848" y="360" on="0"/>
        <pt x="844" y="372" on="0"/>
        <pt x="843" y="378" on="0"/>
        <pt x="841" y="394" on="0"/>
        <pt x="841" y="396" on="1"/>
        <pt x="835" y="442" on="0"/>
        <pt x="792" y="442" on="1"/>
        <pt x="582" y="442" on="1"/>
        <pt x="582" y="185" on="1"/>
        <pt x="582" y="135" on="0"/>
        <pt x="658" y="126" on="1"/>
        <pt x="714" y="119" on="0"/>
        <pt x="725" y="109" on="1"/>
        <pt x="733" y="102" on="0"/>
        <pt x="733" y="90" on="1"/>
        <pt x="733" y="-4" on="0"/>
        <pt x="541" y="-4" on="1"/>
        <pt x="437" y="-1" on="1"/>
        <pt x="274" y="-1" on="0"/>
        <pt x="274" y="90" on="1"/>
        <pt x="274" y="107" on="0"/>
        <pt x="315" y="122" on="0"/>
        <pt x="377" y="127" on="0"/>
        <pt x="385" y="130" on="1"/>
        <pt x="424" y="144" on="0"/>
        <pt x="424" y="185" on="1"/>
        <pt x="424" y="442" on="1"/>
        <pt x="204" y="442" on="1"/>
        <pt x="192" y="442" on="0"/>
        <pt x="175" y="435" on="0"/>
        <pt x="165" y="427" on="0"/>
        <pt x="157" y="407" on="0"/>
        <pt x="154" y="398" on="0"/>
        <pt x="149" y="370" on="0"/>
        <pt x="148" y="366" on="1"/>
        <pt x="145" y="352" on="0"/>
        <pt x="129" y="352" on="1"/>
        <pt x="72" y="352" on="0"/>
        <pt x="72" y="463" on="1"/>
        <pt x="72" y="495" on="1"/>
        <pt x="72" y="563" on="0"/>
        <pt x="94" y="645" on="0"/>
        <pt x="129" y="645" on="1"/>
        <pt x="149" y="645" on="0"/>
        <pt x="155" y="600" on="1"/>
        <pt x="161" y="554" on="0"/>
        <pt x="204" y="554" on="1"/>
        <pt x="424" y="553" on="1"/>
        <pt x="424" y="903" on="1"/>
        <pt x="204" y="903" on="1"/>
        <pt x="192" y="903" on="0"/>
        <pt x="175" y="896" on="0"/>
        <pt x="165" y="888" on="0"/>
        <pt x="157" y="868" on="0"/>
        <pt x="154" y="859" on="0"/>
        <pt x="149" y="831" on="0"/>
        <pt x="148" y="827" on="1"/>
        <pt x="145" y="813" on="0"/>
        <pt x="129" y="813" on="1"/>
        <pt x="72" y="813" on="0"/>
      </contour>
    </TTGlyph>
    <TTGlyph name="dcaron" xMin="23" yMin="-21" xMax="1637" yMax="1482">
      <component glyphName="comma" x="1262" y="1257" flags="0x1004"/>
      <component glyphName="d" x="4" y="0" flags="0x1004"/>
    </TTGlyph>
    <TTGlyph name="degree" xMin="108" yMin="1063" xMax="595" yMax="1453">
      <contour>
        <pt x="233" y="1305" on="0"/>
        <pt x="233" y="1207" on="0"/>
        <pt x="297" y="1151" on="0"/>
        <pt x="350" y="1151" on="1"/>
        <pt x="402" y="1151" on="0"/>
        <pt x="467" y="1212" on="0"/>
        <pt x="467" y="1262" on="1"/>
        <pt x="467" y="1311" on="0"/>
        <pt x="404" y="1365" on="0"/>
        <pt x="351" y="1365" on="1"/>
        <pt x="299" y="1365" on="0"/>
      </contour>
      <contour>
        <pt x="356" y="1453" on="1"/>
        <pt x="468" y="1453" on="0"/>
        <pt x="595" y="1361" on="0"/>
        <pt x="595" y="1264" on="1"/>
        <pt x="595" y="1166" on="0"/>
        <pt x="456" y="1063" on="0"/>
        <pt x="349" y="1063" on="1"/>
        <pt x="188" y="1063" on="0"/>
        <pt x="128" y="1170" on="1"/>
        <pt x="108" y="1207" on="0"/>
        <pt x="108" y="1256" on="1"/>
        <pt x="108" y="1352" on="0"/>
        <pt x="249" y="1453" on="0"/>
      </contour>
    </TTGlyph>
    <TTGlyph name="dieresis" xMin="115" yMin="1366" xMax="908" yMax="1587">
      <contour>
        <pt x="786" y="1366" on="1"/>
        <pt x="736" y="1366" on="0"/>
        <pt x="667" y="1434" on="0"/>
        <pt x="667" y="1476" on="1"/>
        <pt x="667" y="1517" on="0"/>
        <pt x="734" y="1587" on="0"/>
        <pt x="774" y="1587" on="1"/>
        <pt x="833" y="1587" on="0"/>
        <pt x="908" y="1527" on="0"/>
        <pt x="908" y="1476" on="1"/>
        <pt x="908" y="1430" on="0"/>
        <pt x="834" y="1366" on="0"/>
      </contour>
      <contour>
        <pt x="356" y="1476" on="1"/>
        <pt x="356" y="1434" on="0"/>
        <pt x="288" y="1366" on="0"/>
        <pt x="248" y="1366" on="1"/>
        <pt x="191" y="1366" on="0"/>
        <pt x="115" y="1427" on="0"/>
        <pt x="115" y="1476" on="1"/>
        <pt x="115" y="1517" on="0"/>
        <pt x="184" y="1587" on="0"/>
        <pt x="224" y="1587" on="1"/>
        <pt x="282" y="1587" on="0"/>
        <pt x="356" y="1526" on="0"/>
      </contour>
    </TTGlyph>
    <TTGlyph name="divide" xMin="74" yMin="183" xMax="355" yMax="984">
      <component glyphName="colon" x="-38" y="0" flags="0x1004"/>
    </TTGlyph>
    <TTGlyph name="dollar" xMin="70" yMin="-161" xMax="1057" yMax="1633">
      <contour>
        <pt x="866" y="921" on="1"/>
        <pt x="865" y="921" on="1"/>
        <pt x="819" y="921" on="0"/>
        <pt x="796" y="938" on="0"/>
        <pt x="796" y="980" on="1"/>
        <pt x="796" y="1062" on="0"/>
        <pt x="717" y="1172" on="0"/>
        <pt x="649" y="1196" on="1"/>
        <pt x="608" y="813" on="1"/>
        <pt x="826" y="748" on="0"/>
        <pt x="903" y="700" on="1"/>
        <pt x="974" y="655" on="0"/>
        <pt x="1057" y="549" on="0"/>
        <pt x="1057" y="470" on="1"/>
        <pt x="1057" y="349" on="0"/>
        <pt x="972" y="266" on="1"/>
        <pt x="906" y="201" on="0"/>
        <pt x="683" y="125" on="0"/>
        <pt x="559" y="125" on="1"/>
        <pt x="534" y="125" on="1"/>
        <pt x="515" y="-59" on="1"/>
        <pt x="515" y="-120" on="0"/>
        <pt x="496" y="-140" on="1"/>
        <pt x="476" y="-161" on="0"/>
        <pt x="458" y="-161" on="1"/>
        <pt x="420" y="-161" on="0"/>
        <pt x="420" y="-108" on="1"/>
        <pt x="420" y="-73" on="0"/>
        <pt x="428" y="7" on="0"/>
        <pt x="442" y="112" on="0"/>
        <pt x="444" y="131" on="1"/>
        <pt x="298" y="144" on="0"/>
        <pt x="215" y="179" on="1"/>
        <pt x="134" y="213" on="0"/>
        <pt x="102" y="240" on="1"/>
        <pt x="71" y="266" on="0"/>
        <pt x="71" y="291" on="1"/>
        <pt x="71" y="293" on="0"/>
        <pt x="82" y="318" on="1"/>
        <pt x="115" y="393" on="0"/>
        <pt x="115" y="517" on="1"/>
        <pt x="115" y="540" on="0"/>
        <pt x="142" y="574" on="0"/>
        <pt x="162" y="574" on="1"/>
        <pt x="167" y="574" on="0"/>
        <pt x="175" y="571" on="0"/>
        <pt x="182" y="567" on="0"/>
        <pt x="188" y="559" on="0"/>
        <pt x="193" y="554" on="0"/>
        <pt x="199" y="542" on="0"/>
        <pt x="202" y="535" on="0"/>
        <pt x="206" y="522" on="0"/>
        <pt x="208" y="516" on="0"/>
        <pt x="212" y="502" on="0"/>
        <pt x="213" y="500" on="1"/>
        <pt x="246" y="392" on="0"/>
        <pt x="274" y="352" on="1"/>
        <pt x="335" y="266" on="0"/>
        <pt x="456" y="243" on="1"/>
        <pt x="501" y="653" on="1"/>
        <pt x="290" y="714" on="0"/>
        <pt x="228" y="752" on="1"/>
        <pt x="152" y="798" on="0"/>
        <pt x="70" y="913" on="0"/>
        <pt x="70" y="999" on="1"/>
        <pt x="70" y="1203" on="0"/>
        <pt x="335" y="1278" on="1"/>
        <pt x="432" y="1306" on="0"/>
        <pt x="550" y="1306" on="1"/>
        <pt x="560" y="1306" on="1"/>
        <pt x="568" y="1306" on="0"/>
        <pt x="572" y="1305" on="1"/>
        <pt x="602" y="1575" on="1"/>
        <pt x="604" y="1597" on="0"/>
        <pt x="633" y="1633" on="0"/>
        <pt x="652" y="1633" on="1"/>
        <pt x="667" y="1633" on="0"/>
        <pt x="691" y="1611" on="0"/>
        <pt x="691" y="1596" on="1"/>
        <pt x="691" y="1578" on="0"/>
        <pt x="690" y="1575" on="1"/>
        <pt x="660" y="1295" on="1"/>
        <pt x="892" y="1251" on="0"/>
        <pt x="982" y="1133" on="1"/>
        <pt x="1015" y="1090" on="0"/>
        <pt x="1015" y="1044" on="1"/>
        <pt x="1015" y="1003" on="0"/>
        <pt x="984" y="959" on="0"/>
        <pt x="952" y="944" on="1"/>
        <pt x="903" y="921" on="0"/>
      </contour>
      <contour>
        <pt x="559" y="234" on="1"/>
        <pt x="843" y="234" on="0"/>
        <pt x="843" y="417" on="1"/>
        <pt x="843" y="531" on="0"/>
        <pt x="688" y="592" on="1"/>
        <pt x="639" y="611" on="0"/>
        <pt x="588" y="627" on="1"/>
        <pt x="546" y="234" on="1"/>
      </contour>
      <contour>
        <pt x="519" y="1212" on="1"/>
        <pt x="452" y="1212" on="0"/>
        <pt x="327" y="1157" on="0"/>
        <pt x="295" y="1115" on="1"/>
        <pt x="269" y="1080" on="0"/>
        <pt x="269" y="1038" on="1"/>
        <pt x="269" y="963" on="0"/>
        <pt x="342" y="915" on="1"/>
        <pt x="400" y="876" on="0"/>
        <pt x="521" y="839" on="1"/>
        <pt x="562" y="1211" on="1"/>
        <pt x="557" y="1212" on="0"/>
        <pt x="549" y="1212" on="1"/>
      </contour>
    </TTGlyph>
    <TTGlyph name="dotaccent" xMin="99" yMin="231" xMax="380" yMax="464">
      <contour>
        <pt x="228" y="464" on="1"/>
        <pt x="285" y="464" on="0"/>
        <pt x="380" y="402" on="0"/>
        <pt x="380" y="359" on="1"/>
        <pt x="380" y="270" on="0"/>
        <pt x="289" y="240" on="1"/>
        <pt x="264" y="231" on="0"/>
        <pt x="240" y="231" on="1"/>
        <pt x="184" y="231" on="0"/>
        <pt x="99" y="295" on="0"/>
        <pt x="99" y="343" on="1"/>
        <pt x="99" y="395" on="0"/>
        <pt x="146" y="430" on="1"/>
        <pt x="192" y="464" on="0"/>
      </contour>
    </TTGlyph>
    <TTGlyph name="dotaccentcmb" xMin="99" yMin="231" xMax="380" yMax="464">
      <contour>
        <pt x="228" y="464" on="1"/>
        <pt x="285" y="464" on="0"/>
        <pt x="380" y="402" on="0"/>
        <pt x="380" y="359" on="1"/>
        <pt x="380" y="270" on="0"/>
        <pt x="289" y="240" on="1"/>
        <pt x="264" y="231" on="0"/>
        <pt x="240" y="231" on="1"/>
        <pt x="184" y="231" on="0"/>
        <pt x="99" y="295" on="0"/>
        <pt x="99" y="343" on="1"/>
        <pt x="99" y="395" on="0"/>
        <pt x="146" y="430" on="1"/>
        <pt x="192" y="464" on="0"/>
      </contour>
    </TTGlyph>
    <TTGlyph name="dotlessi" xMin="60" yMin="-1" xMax="522" yMax="964">
      <contour>
        <pt x="242" y="964" on="1"/>
        <pt x="270" y="964" on="0"/>
        <pt x="298" y="963" on="0"/>
        <pt x="341" y="959" on="0"/>
        <pt x="361" y="950" on="0"/>
        <pt x="384" y="934" on="0"/>
        <pt x="393" y="907" on="0"/>
        <pt x="393" y="889" on="1"/>
        <pt x="393" y="191" on="1"/>
        <pt x="393" y="131" on="0"/>
        <pt x="458" y="126" on="1"/>
        <pt x="495" y="124" on="0"/>
        <pt x="522" y="106" on="0"/>
        <pt x="522" y="78" on="1"/>
        <pt x="522" y="28" on="0"/>
        <pt x="461" y="11" on="1"/>
        <pt x="419" y="0" on="0"/>
        <pt x="336" y="0" on="1"/>
        <pt x="322" y="0" on="0"/>
        <pt x="265" y="-1" on="0"/>
        <pt x="250" y="-1" on="1"/>
        <pt x="211" y="-1" on="0"/>
        <pt x="156" y="5" on="0"/>
        <pt x="102" y="21" on="0"/>
        <pt x="74" y="57" on="0"/>
        <pt x="74" y="84" on="1"/>
        <pt x="74" y="106" on="0"/>
        <pt x="103" y="123" on="0"/>
        <pt x="159" y="130" on="0"/>
        <pt x="170" y="134" on="1"/>
        <pt x="203" y="146" on="0"/>
        <pt x="203" y="191" on="1"/>
        <pt x="203" y="729" on="1"/>
        <pt x="203" y="820" on="0"/>
        <pt x="132" y="827" on="1"/>
        <pt x="125" y="828" on="0"/>
        <pt x="103" y="830" on="0"/>
        <pt x="93" y="831" on="0"/>
        <pt x="78" y="834" on="0"/>
        <pt x="71" y="838" on="0"/>
        <pt x="63" y="844" on="0"/>
        <pt x="60" y="853" on="0"/>
        <pt x="60" y="860" on="1"/>
        <pt x="60" y="893" on="0"/>
        <pt x="121" y="943" on="0"/>
        <pt x="202" y="964" on="0"/>
      </contour>
    </TTGlyph>
    <TTGlyph name="dotlessj" xMin="-84" yMin="-270" xMax="339" yMax="963">
      <contour>
        <pt x="187" y="963" on="1"/>
        <pt x="221" y="963" on="0"/>
        <pt x="253" y="962" on="0"/>
        <pt x="301" y="954" on="0"/>
        <pt x="322" y="939" on="0"/>
        <pt x="339" y="910" on="0"/>
        <pt x="339" y="888" on="1"/>
        <pt x="339" y="152" on="1"/>
        <pt x="339" y="-59" on="0"/>
        <pt x="206" y="-249" on="0"/>
        <pt x="31" y="-269" on="1"/>
        <pt x="28" y="-270" on="0"/>
        <pt x="22" y="-270" on="1"/>
        <pt x="14" y="-270" on="1"/>
        <pt x="-84" y="-270" on="0"/>
        <pt x="-84" y="-192" on="1"/>
        <pt x="-84" y="-123" on="0"/>
        <pt x="14" y="-112" on="1"/>
        <pt x="94" y="-93" on="0"/>
        <pt x="138" y="-70" on="1"/>
        <pt x="181" y="-48" on="0"/>
        <pt x="181" y="-18" on="1"/>
        <pt x="181" y="4" on="0"/>
        <pt x="174" y="45" on="0"/>
        <pt x="160" y="101" on="0"/>
        <pt x="158" y="113" on="1"/>
        <pt x="148" y="162" on="1"/>
        <pt x="148" y="728" on="1"/>
        <pt x="148" y="818" on="0"/>
        <pt x="76" y="826" on="1"/>
        <pt x="69" y="827" on="0"/>
        <pt x="47" y="829" on="0"/>
        <pt x="37" y="830" on="0"/>
        <pt x="22" y="833" on="0"/>
        <pt x="15" y="837" on="0"/>
        <pt x="8" y="843" on="0"/>
        <pt x="5" y="852" on="0"/>
        <pt x="5" y="859" on="1"/>
        <pt x="5" y="892" on="0"/>
        <pt x="66" y="942" on="0"/>
        <pt x="147" y="963" on="0"/>
      </contour>
    </TTGlyph>
    <TTGlyph name="e" xMin="32" yMin="-27" xMax="933" yMax="976">
      <contour>
        <pt x="32" y="245" on="0"/>
        <pt x="32" y="695" on="0"/>
        <pt x="311" y="976" on="0"/>
        <pt x="527" y="976" on="1"/>
        <pt x="698" y="976" on="0"/>
        <pt x="933" y="755" on="0"/>
        <pt x="933" y="588" on="1"/>
        <pt x="933" y="507" on="0"/>
        <pt x="805" y="507" on="1"/>
        <pt x="226" y="507" on="1"/>
        <pt x="228" y="345" on="0"/>
        <pt x="434" y="123" on="0"/>
        <pt x="591" y="123" on="1"/>
        <pt x="695" y="123" on="0"/>
        <pt x="793" y="184" on="1"/>
        <pt x="845" y="216" on="0"/>
        <pt x="857" y="216" on="1"/>
        <pt x="874" y="216" on="0"/>
        <pt x="911" y="187" on="0"/>
        <pt x="911" y="166" on="1"/>
        <pt x="911" y="111" on="0"/>
        <pt x="770" y="18" on="0"/>
        <pt x="600" y="-27" on="0"/>
        <pt x="536" y="-27" on="1"/>
        <pt x="309" y="-27" on="0"/>
      </contour>
      <contour>
        <pt x="749" y="612" on="1"/>
        <pt x="747" y="727" on="0"/>
        <pt x="631" y="871" on="0"/>
        <pt x="522" y="871" on="1"/>
        <pt x="408" y="871" on="0"/>
        <pt x="241" y="711" on="0"/>
        <pt x="236" y="608" on="1"/>
        <pt x="470" y="608" on="1"/>
        <pt x="626" y="608" on="0"/>
      </contour>
    </TTGlyph>
    <TTGlyph name="eacute" xMin="32" yMin="-27" xMax="933" yMax="1696">
      <component glyphName="acute" x="366" y="-8" flags="0x1004"/>
      <component glyphName="e" x="0" y="0" flags="0x1204"/>
    </TTGlyph>
    <TTGlyph name="ebreve" xMin="32" yMin="-27" xMax="933" yMax="1455">
      <component glyphName="breve" x="-28" y="1038" flags="0x1004"/>
      <component glyphName="e" x="0" y="0" flags="0x1204"/>
    </TTGlyph>
    <TTGlyph name="ecaron" xMin="32" yMin="-27" xMax="933" yMax="1544">
      <component glyphName="caron" x="99" y="-164" flags="0x1004"/>
      <component glyphName="e" x="0" y="0" flags="0x1204"/>
    </TTGlyph>
    <TTGlyph name="ecircumflex" xMin="32" yMin="-27" xMax="933" yMax="1544">
      <component glyphName="circumflex" x="29" y="-165" flags="0x1004"/>
      <component glyphName="e" x="0" y="0" flags="0x1204"/>
    </TTGlyph>
    <TTGlyph name="edieresis" xMin="32" yMin="-27" xMax="933" yMax="1319">
      <component glyphName="dieresis" x="-29" y="-268" flags="0x1004"/>
      <component glyphName="e" x="0" y="0" flags="0x1204"/>
    </TTGlyph>
    <TTGlyph name="edotaccent" xMin="32" yMin="-27" xMax="933" yMax="1331">
      <component glyphName="dotaccent" x="243" y="867" flags="0x1004"/>
      <component glyphName="e" x="0" y="0" flags="0x1204"/>
    </TTGlyph>
    <TTGlyph name="egrave" xMin="32" yMin="-27" xMax="933" yMax="1696">
      <component glyphName="grave" x="64" y="-8" flags="0x1004"/>
      <component glyphName="e" x="0" y="0" flags="0x1204"/>
    </TTGlyph>
    <TTGlyph name="eight" xMin="78" yMin="-21" xMax="1221" yMax="1493">
      <contour>
        <pt x="276" y="341" on="1"/>
        <pt x="276" y="273" on="0"/>
        <pt x="382" y="172" on="0"/>
        <pt x="534" y="126" on="0"/>
        <pt x="617" y="126" on="1"/>
        <pt x="837" y="126" on="0"/>
        <pt x="934" y="235" on="1"/>
        <pt x="971" y="276" on="0"/>
        <pt x="971" y="341" on="1"/>
        <pt x="971" y="454" on="0"/>
        <pt x="846" y="544" on="1"/>
        <pt x="822" y="562" on="0"/>
        <pt x="754" y="601" on="0"/>
        <pt x="712" y="623" on="0"/>
        <pt x="619" y="670" on="0"/>
        <pt x="608" y="676" on="1"/>
        <pt x="493" y="631" on="0"/>
        <pt x="389" y="530" on="1"/>
        <pt x="276" y="420" on="0"/>
      </contour>
      <contour>
        <pt x="558" y="1358" on="1"/>
        <pt x="444" y="1350" on="0"/>
        <pt x="339" y="1244" on="0"/>
        <pt x="339" y="1138" on="1"/>
        <pt x="339" y="1072" on="0"/>
        <pt x="398" y="1002" on="1"/>
        <pt x="461" y="926" on="0"/>
        <pt x="590" y="866" on="1"/>
        <pt x="599" y="862" on="0"/>
        <pt x="618" y="852" on="0"/>
        <pt x="638" y="842" on="0"/>
        <pt x="642" y="840" on="1"/>
        <pt x="657" y="850" on="0"/>
        <pt x="748" y="909" on="0"/>
        <pt x="811" y="954" on="0"/>
        <pt x="836" y="976" on="1"/>
        <pt x="941" y="1070" on="0"/>
        <pt x="941" y="1178" on="1"/>
        <pt x="941" y="1362" on="0"/>
        <pt x="649" y="1362" on="1"/>
        <pt x="624" y="1362" on="0"/>
      </contour>
      <contour>
        <pt x="1115" y="1160" on="1"/>
        <pt x="1115" y="946" on="0"/>
        <pt x="800" y="767" on="1"/>
        <pt x="1086" y="651" on="0"/>
        <pt x="1185" y="483" on="1"/>
        <pt x="1221" y="422" on="0"/>
        <pt x="1221" y="350" on="1"/>
        <pt x="1221" y="85" on="0"/>
        <pt x="908" y="8" on="1"/>
        <pt x="789" y="-21" on="0"/>
        <pt x="686" y="-21" on="1"/>
        <pt x="500" y="-21" on="0"/>
        <pt x="254" y="40" on="0"/>
        <pt x="172" y="120" on="1"/>
        <pt x="78" y="213" on="0"/>
        <pt x="78" y="362" on="1"/>
        <pt x="78" y="484" on="0"/>
        <pt x="204" y="595" on="1"/>
        <pt x="306" y="684" on="0"/>
        <pt x="471" y="752" on="1"/>
        <pt x="312" y="819" on="0"/>
        <pt x="217" y="924" on="1"/>
        <pt x="122" y="1031" on="0"/>
        <pt x="122" y="1149" on="1"/>
        <pt x="122" y="1377" on="0"/>
        <pt x="400" y="1461" on="1"/>
        <pt x="508" y="1493" on="0"/>
        <pt x="591" y="1493" on="1"/>
        <pt x="704" y="1493" on="0"/>
        <pt x="864" y="1461" on="0"/>
        <pt x="940" y="1423" on="1"/>
        <pt x="1017" y="1385" on="0"/>
        <pt x="1115" y="1248" on="0"/>
      </contour>
    </TTGlyph>
    <TTGlyph name="ellipsis" xMin="95" yMin="0" xMax="1968" yMax="233">
      <contour>
        <pt x="224" y="233" on="1"/>
        <pt x="281" y="233" on="0"/>
        <pt x="376" y="171" on="0"/>
        <pt x="376" y="128" on="1"/>
        <pt x="376" y="38" on="0"/>
        <pt x="285" y="8" on="1"/>
        <pt x="262" y="0" on="0"/>
        <pt x="236" y="0" on="1"/>
        <pt x="180" y="0" on="0"/>
        <pt x="95" y="64" on="0"/>
        <pt x="95" y="112" on="1"/>
        <pt x="95" y="165" on="0"/>
        <pt x="142" y="200" on="1"/>
        <pt x="187" y="233" on="0"/>
      </contour>
      <contour>
        <pt x="1172" y="118" on="1"/>
        <pt x="1172" y="67" on="0"/>
        <pt x="1088" y="0" on="0"/>
        <pt x="976" y="0" on="0"/>
        <pt x="891" y="64" on="0"/>
        <pt x="891" y="112" on="1"/>
        <pt x="891" y="163" on="0"/>
        <pt x="980" y="232" on="0"/>
        <pt x="1036" y="232" on="1"/>
        <pt x="1058" y="232" on="0"/>
        <pt x="1082" y="224" on="1"/>
        <pt x="1122" y="210" on="0"/>
        <pt x="1172" y="156" on="0"/>
      </contour>
      <contour>
        <pt x="1968" y="118" on="1"/>
        <pt x="1968" y="67" on="0"/>
        <pt x="1884" y="0" on="0"/>
        <pt x="1772" y="0" on="0"/>
        <pt x="1687" y="64" on="0"/>
        <pt x="1687" y="112" on="1"/>
        <pt x="1687" y="163" on="0"/>
        <pt x="1776" y="232" on="0"/>
        <pt x="1832" y="232" on="1"/>
        <pt x="1854" y="232" on="0"/>
        <pt x="1878" y="224" on="1"/>
        <pt x="1918" y="210" on="0"/>
        <pt x="1968" y="156" on="0"/>
      </contour>
    </TTGlyph>
    <TTGlyph name="emacron" xMin="32" yMin="-27" xMax="933" yMax="1224">
      <component glyphName="macron" x="54" y="851" flags="0x1004"/>
      <component glyphName="e" x="0" y="0" flags="0x1204"/>
    </TTGlyph>
    <TTGlyph name="emdash" xMin="110" yMin="247" xMax="1122" yMax="373">
      <contour>
        <pt x="110" y="307" on="1"/>
        <pt x="110" y="336" on="0"/>
        <pt x="160" y="373" on="0"/>
        <pt x="195" y="373" on="1"/>
        <pt x="1042" y="373" on="1"/>
        <pt x="1076" y="373" on="0"/>
        <pt x="1122" y="341" on="0"/>
        <pt x="1122" y="313" on="1"/>
        <pt x="1122" y="284" on="0"/>
        <pt x="1072" y="247" on="0"/>
        <pt x="1036" y="247" on="1"/>
        <pt x="189" y="247" on="1"/>
        <pt x="155" y="247" on="0"/>
        <pt x="110" y="279" on="0"/>
      </contour>
    </TTGlyph>
    <TTGlyph name="endash" xMin="110" yMin="247" xMax="749" yMax="373">
      <contour>
        <pt x="110" y="307" on="1"/>
        <pt x="110" y="336" on="0"/>
        <pt x="160" y="373" on="0"/>
        <pt x="195" y="373" on="1"/>
        <pt x="669" y="373" on="1"/>
        <pt x="703" y="373" on="0"/>
        <pt x="749" y="341" on="0"/>
        <pt x="749" y="313" on="1"/>
        <pt x="749" y="284" on="0"/>
        <pt x="699" y="247" on="0"/>
        <pt x="663" y="247" on="1"/>
        <pt x="189" y="247" on="1"/>
        <pt x="155" y="247" on="0"/>
        <pt x="110" y="279" on="0"/>
      </contour>
    </TTGlyph>
    <TTGlyph name="eogonek" xMin="32" yMin="-482" xMax="933" yMax="976">
      <component glyphName="ogonek" x="142" y="-36" flags="0x1004"/>
      <component glyphName="e" x="0" y="0" flags="0x1204"/>
    </TTGlyph>
    <TTGlyph name="equal" xMin="125" yMin="183" xMax="1148" yMax="672">
      <contour>
        <pt x="1021" y="672" on="1"/>
        <pt x="1086" y="672" on="0"/>
        <pt x="1148" y="639" on="0"/>
        <pt x="1148" y="592" on="1"/>
        <pt x="1148" y="532" on="0"/>
        <pt x="1086" y="492" on="0"/>
        <pt x="1012" y="492" on="1"/>
        <pt x="256" y="492" on="1"/>
        <pt x="194" y="492" on="0"/>
        <pt x="130" y="528" on="0"/>
        <pt x="130" y="571" on="1"/>
        <pt x="130" y="635" on="0"/>
        <pt x="197" y="672" on="0"/>
        <pt x="278" y="672" on="1"/>
      </contour>
      <contour>
        <pt x="1020" y="362" on="1"/>
        <pt x="1085" y="362" on="0"/>
        <pt x="1143" y="329" on="0"/>
        <pt x="1143" y="280" on="1"/>
        <pt x="1143" y="214" on="0"/>
        <pt x="1096" y="194" on="1"/>
        <pt x="1073" y="183" on="0"/>
        <pt x="985" y="183" on="1"/>
        <pt x="259" y="183" on="1"/>
        <pt x="192" y="183" on="0"/>
        <pt x="125" y="215" on="0"/>
        <pt x="125" y="259" on="1"/>
        <pt x="125" y="323" on="0"/>
        <pt x="192" y="362" on="0"/>
        <pt x="273" y="362" on="1"/>
      </contour>
    </TTGlyph>
</ttFont>
